<svg width="22" height="21" viewBox="0 0 75 72" fill="none" xmlns="http://www.w3.org/2000/svg">
<path d="M5.71454 68.822L11.2145 49.322L56.2145 7.82204L73.2145 17.822L28.2145 63.322L5.71454 68.822Z" fill="#C9B8AA"/>
<path d="M9.13393 49.7924C9.22202 50.0371 9.11667 50.353 8.97541 50.5769C8.93154 50.6487 8.74733 50.6055 8.70865 50.6548C8.63315 50.7526 8.72076 50.8461 8.63117 50.9379C8.60056 50.9684 8.30846 50.9174 8.28309 50.9496C8.14599 51.1288 8.21335 51.2995 8.14204 51.4814C7.79061 52.3642 7.62184 53.2296 7.41903 54.1068C7.35216 54.3991 7.05729 54.7298 7.1471 55.0446C7.15791 55.0807 7.4167 55.0821 7.43731 55.0906C7.75248 55.2233 7.2367 55.1435 7.1618 55.2058C6.86563 55.4564 6.81478 55.7526 6.88899 56.0264C6.92129 56.1429 7.44198 56.079 7.14503 56.1643C7.12495 56.1702 6.8549 56.1164 6.82296 56.1438C6.75107 56.2058 6.78728 56.341 6.76046 56.3926C6.70742 56.4919 6.70848 56.5093 6.6957 56.6075C6.67568 56.7431 6.52482 56.8835 6.57194 57.0339C6.58283 57.0659 6.86632 57.0537 6.90888 57.1075C6.95138 57.1612 6.91433 57.2892 6.84391 57.3266C6.77357 57.363 6.55594 57.3219 6.50483 57.3243C6.07369 57.3426 6.64641 57.552 6.65889 57.573C6.86962 57.952 6.5026 58.2116 6.46665 58.5434C6.44063 58.7901 6.5206 59.0709 6.4779 59.3062C6.42638 59.5828 6.24608 59.8109 6.23947 60.0834C6.2384 60.1125 6.57026 60.1184 6.56961 60.1541C6.56209 60.5355 6.48025 60.9013 6.21105 61.2494C6.18376 61.2843 5.90244 61.1989 5.85799 61.2315C5.59281 61.4276 4.97826 61.7137 6.21132 62.0158C6.14215 62.163 6.06654 62.3442 5.79565 62.449C5.62127 62.5166 5.32011 62.3873 5.43874 62.5153C5.46512 62.5442 5.74355 62.5491 5.76238 62.5896C5.84135 62.7604 5.72924 62.9161 5.84929 63.0906C5.87437 63.1262 6.12101 63.1516 6.16397 63.1667C6.5115 63.2915 5.9023 63.3345 5.85549 63.3557C5.50591 63.5176 5.61098 63.684 5.57552 63.8759C5.56715 63.9204 5.90423 63.9147 5.908 63.9592C5.92292 64.1912 5.86142 64.4153 5.68306 64.6126C5.64261 64.6563 5.36869 64.5703 5.33501 64.589C5.18991 64.672 5.71629 64.7732 5.58719 64.8548C5.56065 64.8721 5.32231 64.8247 5.29537 64.8246C4.87262 64.8224 5.45159 64.9599 5.46225 64.9772C5.61056 65.1947 4.98001 65.2248 5.03848 65.4232C5.04608 65.447 5.35734 65.4432 5.36012 65.5076C5.38083 65.9342 5.22844 66.3633 4.9208 66.7317C4.87332 66.7894 4.65277 66.7076 4.62404 66.7071C4.17482 66.702 4.75598 66.8384 4.77477 66.8628C4.90777 67.0527 4.38998 67.1262 5.07195 67.3506C4.96351 67.5494 4.91373 67.7583 4.87563 67.9699L3.9224 66.6178C4.38511 66.7072 4.83983 66.7194 5.24903 67.2184C5.25658 67.2268 5.20332 67.5156 5.21866 67.5311C5.40321 67.7208 5.42229 67.2636 5.62293 66.7265C5.6726 66.5916 5.69713 67.2719 5.70131 67.322C5.71426 67.5064 5.62987 67.9359 5.63719 67.9722C5.70134 68.2576 5.84663 66.8222 5.96794 66.8349C5.97154 66.8377 5.92712 67.1 5.93462 67.1273C5.95767 67.2132 6.00183 67.1117 6.02423 67.2059C6.07521 67.4238 6.03336 68.1243 6.18661 67.7293C6.20583 67.6779 6.26313 66.8614 6.36883 66.9101C6.41039 66.9303 6.60711 66.9334 6.65757 66.9906C6.70797 67.0478 6.64911 67.3076 6.65203 67.3193C6.77349 67.6789 6.70561 67.8184 6.7428 68.3391C6.78171 68.8578 6.85069 67.6327 6.89084 67.4984C6.93015 67.3644 7.02141 67.6591 7.0422 67.7607C7.06295 67.8624 7.01763 68.0273 7.03839 68.0855C7.17764 68.4652 7.14822 67.4823 7.21264 67.2913C7.36185 66.8385 7.4032 67.752 7.51593 67.847C7.54582 67.8725 7.53077 67.6643 7.55921 67.6463C7.67098 67.5776 7.72451 67.8642 7.85748 67.6089C7.87931 67.5673 7.99818 67.0244 8.04859 67.4276C8.05589 67.4857 8.02245 67.7115 8.06735 67.7637C8.13438 67.8421 8.25842 67.895 8.33409 67.8209C8.3905 67.766 8.33529 67.3912 8.40205 67.5086C8.43186 67.561 8.37016 67.7784 8.42692 67.8587C8.48358 67.9389 8.63197 67.9315 8.68791 67.9244C8.74389 67.9172 8.71583 67.6336 8.72056 67.6145C8.74861 67.5055 8.85514 67.3695 8.86476 67.3698C9.3328 67.3371 9.78373 67.8061 10.2436 67.6295C10.2797 67.616 10.2431 67.3184 10.2485 67.3133C10.3671 67.183 10.3025 67.981 10.4025 68.2428C10.3629 67.6376 10.4196 67.7451 10.5039 67.6744C10.5445 67.6399 10.51 67.4065 10.5127 67.3823C10.5562 67.0231 10.6239 67.4808 10.6402 67.5743C10.7004 67.9183 10.7239 67.5068 10.7649 67.7365C10.8064 67.9645 10.7593 68.3087 10.845 68.2994C10.8563 68.0814 10.7613 67.5186 10.8197 67.4232C11.0365 67.063 11.5135 67.4747 11.7128 67.504C11.909 67.5339 11.9701 67.4881 12.0894 67.5559C12.3056 67.6782 12.1925 67.2661 12.2995 67.0622C12.4062 66.858 12.448 67.8945 12.4884 68.1142C12.5288 68.3338 12.5257 68.1039 12.5606 68.2233C12.5955 68.3427 12.5618 68.4982 12.6197 68.5385C12.6776 68.5788 12.7831 68.1697 12.7768 67.9362C12.7639 67.4416 12.6445 66.934 12.8014 67.0999C12.8105 67.1097 12.8142 67.3832 12.8476 67.4073C13.112 67.5893 13.366 67.5727 13.6329 67.7269C13.6695 67.7485 13.6764 68.0528 13.6982 68.0688C13.9251 68.236 13.79 67.738 13.8303 67.1611C13.8995 67.9135 14.0197 68.364 14.1752 68.3486C14.2684 68.3396 14.2101 68.0146 14.2406 67.7762C14.2496 67.7044 14.3448 67.9204 14.3366 67.765C14.3099 67.2572 14.1749 66.7026 14.3618 66.9059C14.3701 66.9156 14.3844 67.1937 14.4105 67.2072C14.5793 67.2958 14.5298 66.7674 14.688 66.6814C14.8119 66.614 15.0903 66.9027 15.2481 66.9345C15.3586 67.7762 15.4748 67.5643 15.4543 66.9765C15.5539 66.9873 15.6577 66.9401 15.7626 67.0078C15.7988 67.0308 15.8096 67.2773 15.8172 67.3031C15.9346 67.7078 15.9018 67.1378 15.9207 67.1128C16.1239 66.8673 16.3651 67.2715 16.5335 66.8261C16.5393 66.8101 16.4814 66.2231 16.5929 66.6433C16.6001 66.6724 16.5588 66.9475 16.6658 66.9556C16.7732 66.9637 17.0032 67.2554 17.1186 66.9683C17.1361 66.9247 17.1578 66.716 17.1995 66.6586L17.234 66.6557C17.2597 66.623 17.2901 66.6429 17.3247 66.7795C17.3372 66.8297 17.3368 66.9991 17.356 67.0922C17.4173 67.3891 17.4082 66.7926 17.4881 67.2952C17.5681 67.7979 17.6929 68.1708 17.8186 67.8149C17.8225 67.8045 17.8343 67.3309 17.88 67.3363C17.953 67.3451 18.0613 67.4388 18.1365 67.4325C18.1728 67.4294 18.1372 67.1373 18.1433 67.1316C18.3822 66.9572 18.568 67.2121 18.8331 67.3174C18.8811 67.3372 19.0088 66.9332 19.1103 67.2469C19.2215 67.5903 19.156 69.0325 19.3775 68.6837C19.4663 68.5443 19.5458 66.7148 19.7359 67.6578C20.0606 67.4167 20.3721 67.8965 20.6977 67.5578C20.7122 67.5427 20.7538 67.0323 20.7888 67.0389C20.8408 67.0496 20.8718 67.2876 20.909 67.3029C21.0652 67.3731 21.2055 67.168 21.3555 67.1986C21.4125 67.2097 21.3945 67.4563 21.4623 67.4696C21.5299 67.4827 21.573 67.1579 21.666 67.314C21.736 67.4331 21.8087 68.096 21.9009 68.1728C21.9013 67.5186 21.9642 67.5317 22.076 67.3586C22.0975 67.325 22.0733 67.0974 22.0835 67.0697C22.1248 66.9522 22.1638 67.1408 22.2029 67.0129C22.2124 66.9822 22.212 66.7587 22.2198 66.721C22.2855 66.3917 22.3976 66.894 22.4166 66.9814C22.4899 67.3136 22.523 67.0229 22.579 67.1536C22.6347 67.2843 22.5523 67.4481 22.6171 67.5274C22.7515 67.6913 22.9237 67.6549 23.0602 67.6651C23.1144 67.6677 23.0771 67.3695 23.0848 67.363C23.1971 67.2872 23.3113 67.6044 23.3731 67.0102C23.452 68.5463 23.441 66.8612 23.6019 67.1686C23.6146 67.1935 23.6309 67.9199 23.5824 68.0266C23.534 68.1331 23.46 67.9061 23.3927 68.0724C23.3767 68.1114 23.286 68.7921 23.2736 68.8334C23.1762 69.1557 23.1614 68.0702 23.1561 68.0106C23.0969 67.3672 22.9859 68.1007 22.9566 68.1514C22.8227 68.3838 22.7079 68.2313 22.5962 68.3973C22.5229 68.5046 22.5175 69.2156 22.4599 69.194C22.2688 69.1226 22.1982 68.131 22.0212 68.9918C21.9834 69.1754 22.0253 69.9523 21.8844 69.3419C21.8756 69.3034 21.7699 68.7449 21.7127 69.0988C21.7055 69.1435 21.7071 69.3699 21.6974 69.389C21.6324 69.5125 21.5874 69.3323 21.5166 69.4192C21.446 69.5061 21.3606 69.6355 21.2788 69.5594C21.2297 69.5138 21.1627 69.0924 21.1383 68.9893C21.0689 68.6923 21.0026 69.1809 20.9576 68.8209C20.9123 68.4592 20.9886 67.9083 20.8763 67.6754C20.8784 68.2639 20.8754 68.8679 20.8752 69.4597C20.6373 69.4415 20.4014 69.2543 20.1637 69.2841C20.1344 69.2884 20.1697 69.6042 20.1383 69.617C20.006 69.6694 19.8859 69.4461 19.7502 69.5386C19.6448 69.6115 19.5365 69.9489 19.4279 70.036C19.3444 69.3644 19.1848 69.5972 19.0643 69.5391C19.0218 69.5191 19.0194 69.3392 18.9879 69.2815C18.8691 69.0679 18.9399 69.6611 18.9122 69.7556C18.7935 70.1592 18.7396 68.8134 18.5831 68.8522C18.5745 68.8538 18.5008 69.5749 18.4887 69.6201C18.4123 69.9147 18.4647 69.3709 18.4077 69.3201C18.3045 69.2271 18.2261 69.0587 18.1187 69.2739C18.0867 69.3377 18.0261 69.7883 17.9443 69.4458C17.9334 69.4009 17.9268 69.1637 17.9191 69.1501C17.7797 68.925 17.8147 69.6699 17.7566 69.9258C17.6988 70.1816 17.5619 69.6738 17.53 69.5271C17.4486 69.1474 17.5659 69.3607 17.5671 69.323C17.5799 68.8734 17.5019 68.955 17.4374 68.9209C17.4018 68.4237 17.3503 68.2883 17.3441 68.4579L17.3861 68.4545C17.3866 68.5325 17.3994 68.6745 17.4297 68.8749L17.3698 68.8798C17.3702 68.8827 17.3705 68.8856 17.3708 68.8886C17.3787 68.9593 17.4228 68.8883 17.4374 68.9209C17.4334 69.1539 17.4217 69.3216 17.4028 69.4194L17.4856 69.4126C17.4556 69.6181 17.3813 69.5206 17.261 69.078C17.1774 68.7712 17.1834 68.4018 17.0468 68.5521C16.9854 68.6201 17.0695 69.1171 17.0258 69.2603C16.926 69.5872 16.6927 69.1428 16.5574 69.2345C16.5085 69.2678 16.594 69.5347 16.5619 69.5668C16.4785 69.6528 16.3693 69.4585 16.2875 69.576C16.2802 69.5869 16.3387 69.8702 16.3096 69.8777C16.0916 69.9401 15.8704 69.7834 15.632 69.8104C15.5162 69.8236 15.3328 70.0089 15.207 69.9936C14.9925 69.9682 14.6788 69.5868 14.5119 69.7112C14.4019 69.7912 14.4654 70.0739 14.4399 70.2754C14.391 70.6659 14.1301 70.0109 14.0938 69.9089C14.0928 69.9055 14.1866 69.8252 14.1136 69.6851C14.0435 69.3829 14.0949 69.9074 14.0938 69.9089C14.0697 69.8432 13.8595 69.8031 13.8251 69.8628C13.8066 69.8954 13.8518 70.1652 13.8415 70.1771C13.5961 70.4532 13.3245 70.5543 13.0279 70.4573C13.0224 70.4524 12.9976 70.1475 12.9849 70.1397C12.8065 70.0218 12.7432 70.4042 12.6273 70.6386C12.5111 70.873 12.3957 70.809 12.2678 70.2935C12.1713 70.3687 12.0025 70.1503 11.908 70.0167C11.8129 69.8833 11.8485 70.4774 11.8419 70.4898C11.6353 70.8838 11.4746 70.554 11.2265 70.517C11.1085 70.4984 10.885 70.5979 10.7602 70.6693C10.6622 70.7268 10.5966 70.5903 10.5083 70.6835C10.4964 70.696 10.5207 70.9602 10.5174 70.9705C10.427 71.2918 10.4493 70.6424 10.4231 70.5277C10.3288 70.1105 10.2726 69.8886 10.1513 70.0909C10.1238 70.1373 10.0661 71.0725 10.0106 71.1287C9.93921 71.2 9.95749 70.865 9.88312 70.948C9.87672 70.9548 9.88355 71.161 9.83557 71.1531C9.6156 71.1191 9.37199 71.0027 9.14577 71.0244C9.11464 71.0266 9.15613 71.3536 9.11079 71.3621C8.89726 71.4017 8.66146 71.388 8.45615 71.2315C8.40551 71.1919 8.44153 70.9634 8.4316 70.8952C8.37181 70.4826 8.26343 71.0784 8.24742 71.0894C7.86038 71.3677 7.59077 70.8159 7.1918 71.0524C7.17128 71.0665 6.97009 71.697 6.93112 71.1435C6.92802 71.1067 6.89372 70.5409 6.80521 70.9204C6.79955 70.9441 6.82517 71.2361 6.74862 71.2013C6.67159 71.1666 6.53274 71.3504 6.45033 71.0248C6.42377 70.9222 6.39123 70.3568 6.25369 70.794C6.24591 70.8248 5.99836 71.8184 6.00609 71.1183C6.00742 71.003 6.08503 70.2688 5.93152 70.6345C5.90179 70.7054 5.92763 70.8734 5.85746 70.9699C5.74936 71.1188 5.64586 70.9095 5.49668 71.2243C5.47118 71.2802 5.33088 71.7691 5.30437 71.3833C5.30035 71.3229 5.3481 71.0802 5.31542 71.0488C5.16116 70.8982 4.95989 71.0398 4.81147 70.8486C4.75854 70.7813 4.84101 70.3902 4.79267 70.2761C4.74422 70.162 4.63339 70.0433 4.54245 70.2143C4.45126 70.3855 4.43421 71.0246 4.32751 71.0607C3.90732 71.2015 3.56148 70.8587 3.19127 70.6931L-2.38419e-07 69.5115L0.791644 67.2893C0.808531 67.2529 0.82322 67.2161 0.834851 67.1788C0.852407 67.1227 0.620317 67.1331 0.630047 67.0479C0.665041 66.734 0.541367 66.1645 1.06096 65.9707C1.47723 65.8154 1.72496 66.1335 1.90663 65.9927C1.9934 65.9248 1.2777 65.7226 1.25776 65.6998C1.05419 65.474 1.39775 65.3935 1.32471 65.2088C1.30951 65.1708 1.00844 65.1594 0.998765 65.1275C0.963025 65.0187 1.1115 64.9317 1.10223 64.8303C1.09738 64.7847 0.870169 64.7584 0.893718 64.7209C0.947453 64.6307 1.05527 64.5603 1.28118 64.4987C1.30177 64.4931 1.57432 64.5929 1.59546 64.5234C1.62882 64.4111 1.85919 64.2993 1.66305 64.1337C1.60394 64.0845 1.08735 64.0067 1.45675 63.9747C1.5339 63.968 2.15126 64.0818 1.62945 63.9044C1.54281 63.8745 0.84345 63.6042 1.32147 63.5916C1.4473 63.5881 1.9632 63.6075 1.89029 63.5479C1.87848 63.5396 1.59701 63.5254 1.57561 63.482C1.50503 63.33 1.55541 63.1892 1.48846 63.0353C1.47002 62.9942 1.17455 63.0096 1.15624 62.9497C1.1053 62.786 1.20588 62.6009 1.31693 62.4617C1.35842 62.4104 1.59133 62.4821 1.61783 62.4816C2.04867 62.4743 1.48472 62.3569 1.4545 62.3308C1.27431 62.1684 1.55555 62.1041 1.50191 61.9682C1.48778 61.931 1.21292 61.9188 1.18964 61.9086C0.962702 61.8053 1.44318 61.9244 1.50304 61.8866C1.67234 61.7807 1.66934 61.6373 1.65145 61.506C1.64447 61.4577 1.32257 61.4682 1.31993 61.4254C1.29856 61.1702 1.36256 60.9143 1.56703 60.6966C1.60614 60.6554 1.84516 60.7151 1.90181 60.7126C2.29813 60.6958 1.78145 60.5314 1.73385 60.503C1.51653 60.3729 1.7361 60.361 1.70717 60.2672C1.562 59.81 1.76917 59.2909 1.90492 58.8909C2.0803 58.3707 2.35845 57.9781 2.35288 57.4648C2.35288 57.4316 2.02571 57.4299 2.02155 57.401C1.98236 57.0301 2.14547 56.6893 2.0877 56.3209C2.08351 56.2909 1.77228 56.3025 1.75522 56.2535C1.71808 56.1527 1.74711 56.0286 1.85466 55.9403C1.90656 55.8969 2.16386 55.9868 2.21071 55.9426C2.32048 55.8389 2.35349 55.7244 2.31538 55.6014C2.29843 55.5497 1.9772 55.595 1.97962 55.5302C1.98937 55.091 1.97253 54.6669 2.41673 54.257C2.44718 54.2294 3.08858 54.2559 2.97123 54.1821C2.79422 54.1627 2.58552 54.1459 2.39608 54.1282C2.34582 53.4872 2.61364 52.8793 2.6875 52.251C2.69051 52.2249 2.34852 52.2488 2.3526 52.1983C2.37616 51.9004 2.2985 51.6079 2.65073 51.328C2.68517 51.3003 3.28161 51.3445 3.19569 51.2499C3.18003 51.2329 3.10671 51.0951 2.97854 51.0556C2.95919 51.0502 2.67935 51.0613 2.67312 51.0189C2.64194 50.7695 2.71553 50.5133 2.8931 50.2775C2.92228 50.24 3.21811 50.2896 3.24146 50.2629C3.40517 50.0623 3.18388 49.8426 3.45575 49.6625C3.63874 49.5374 4.15189 49.5884 4.65802 49.5224C4.72945 49.5128 4.74107 49.433 5.03524 49.4297C5.77502 49.4201 6.58495 49.463 7.37351 49.4484C7.54341 49.4449 7.36055 49.3279 7.77094 49.3974C7.79843 49.402 7.93444 49.4888 8.07352 49.5117C8.1697 49.5274 8.46903 49.5012 8.59209 49.5334C8.71501 49.5659 8.464 49.5989 8.60827 49.6536C8.75428 49.7088 9.09495 49.6893 9.13393 49.7924ZM11.4822 69.4186C11.3855 69.139 11.448 70.1841 11.5142 69.9282C11.5173 69.9146 11.4872 69.4323 11.4822 69.4186ZM20.3915 68.465C20.2882 68.0047 20.2319 68.6845 20.3054 69.0401C20.3788 69.3952 20.4226 68.6045 20.3915 68.465ZM21.3931 68.1174C21.2766 67.7542 21.2707 69.2387 21.3893 68.9377C21.3963 68.9207 21.3999 68.1384 21.3931 68.1174ZM4.79818 49.848C4.81211 49.8472 4.82661 49.7884 4.81284 49.7869C4.4809 49.7509 4.45218 49.8669 4.79818 49.848ZM22.3927 67.7454C22.3567 67.5447 22.2548 67.7769 22.2999 68.0264C22.3361 68.2272 22.4376 67.9951 22.3927 67.7454ZM7.49356 68.3575C7.49315 68.3418 7.45027 68.3256 7.4466 68.4137C7.43498 68.6975 7.50042 68.6205 7.49356 68.3575ZM24.0978 67.7266C23.8458 67.6707 23.6926 66.4445 23.9674 66.5828C24.0171 66.6079 23.8602 66.9739 23.9235 67.0844C24.0395 67.2858 24.1161 66.5159 24.2344 66.9285C24.2558 67.004 24.1122 67.7325 24.0974 67.7283C24.0975 67.7277 24.0977 67.7271 24.0978 67.7266ZM11.3483 68.1676C11.3458 68.1539 11.2854 68.145 11.2849 68.1588C11.2755 68.4927 11.3985 68.5107 11.3483 68.1676ZM5.05573 67.4814C5.05649 67.4518 4.92435 67.4056 4.91603 67.4318C4.7678 67.9599 5.04029 68.0557 5.05573 67.4814ZM15.2535 66.9566C15.274 66.6164 15.3465 66.567 15.4539 66.9761C15.3867 66.9627 15.3214 66.9682 15.2535 66.9566Z" fill="#735A47"/>
<path d="M5.71496 45.8429C5.82259 45.6762 6.2341 45.5171 6.5653 45.445C6.67457 45.4183 6.73885 45.6003 6.821 45.587C6.97631 45.5646 7.02645 45.4157 7.19638 45.3976C7.25324 45.3923 7.37788 45.6654 7.43389 45.6542C7.72644 45.6002 7.90794 45.3707 8.16343 45.2552C9.47878 44.6426 10.6643 43.8384 11.8891 43.0284C12.2971 42.7574 12.922 42.5967 13.239 42.1911C13.2757 42.1437 13.0867 41.9647 13.082 41.9412C13.0131 41.5786 13.2951 42.0202 13.4274 42.0023C13.9561 41.9266 14.3577 41.6327 14.6367 41.2792C14.7533 41.1295 14.287 40.8476 14.6128 40.9541C14.6351 40.961 14.7707 41.2036 14.8286 41.1944C14.9594 41.1731 15.0996 40.9969 15.1834 40.9571C15.346 40.8812 15.3655 40.8619 15.4941 40.762C15.6712 40.6275 15.964 40.566 16.1123 40.3664C16.1431 40.3235 15.9142 40.1474 15.9474 40.0592C15.9806 39.9711 16.1633 39.8541 16.2617 39.8599C16.36 39.8656 16.4744 40.0569 16.5162 40.0882C16.8668 40.3539 16.6908 39.7362 16.7068 39.7045C17.0057 39.1434 17.6107 39.089 18.0393 38.7438C18.3655 38.4802 18.6443 38.1145 18.9657 37.8774C19.3489 37.5961 19.758 37.465 20.1038 37.1575C20.1404 37.1253 19.8906 36.902 19.935 36.8622C20.4064 36.4396 20.9223 36.0788 21.5575 35.8648C21.6213 35.8437 21.7357 36.1222 21.81 36.1148C22.2602 36.065 23.0937 36.1421 22.5021 35.0043C22.7374 34.8846 23.0252 34.7272 23.3649 34.7874C23.5841 34.8257 23.6601 35.1652 23.7247 34.9461C23.7395 34.897 23.5285 34.7102 23.5634 34.6531C23.7124 34.4116 23.9989 34.3066 24.12 34.0357C24.1443 33.98 23.9832 33.7911 23.9683 33.7465C23.8497 33.3829 24.3827 33.7293 24.445 33.7368C24.7567 33.7673 24.9184 33.6696 25.0669 33.5461C25.1413 33.4839 25.2127 33.4135 25.3008 33.3501C25.36 33.3076 25.0903 33.0945 25.1398 33.0442C25.4037 32.7836 25.7099 32.5804 26.0833 32.4711C26.1659 32.4482 26.2863 32.7149 26.3349 32.7152C26.5483 32.7127 26.2414 32.2722 26.44 32.2601C26.4816 32.2569 26.6196 32.4575 26.6413 32.4743C26.9821 32.7366 26.6741 32.2225 26.6842 32.1973C26.8111 31.8623 27.3684 32.2043 27.5465 31.9406C27.5673 31.9087 27.3069 31.7263 27.3774 31.6508C27.8538 31.1398 28.4522 30.7338 29.1338 30.4601C29.2393 30.4175 29.3346 30.6411 29.3586 30.6579C29.7341 30.9191 29.3928 30.4261 29.4037 30.3864C29.5001 30.0854 30.0293 30.2822 29.6933 29.631C30.7245 29.0369 31.3083 27.9583 32.5894 27.6319C32.6051 27.6273 32.786 27.8596 32.8165 27.8495C33.1868 27.729 32.8264 27.4419 32.6165 26.8749C32.5638 26.7324 33.1559 27.0997 33.2015 27.1246C33.3685 27.2171 33.6229 27.5767 33.6613 27.5889C33.9683 27.6798 32.9604 26.6471 33.1172 26.4991C33.1237 26.4962 33.2851 26.709 33.3163 26.7158C33.4142 26.7376 33.3825 26.6224 33.4854 26.6511C33.7226 26.7183 34.2365 27.1973 34.0981 26.7669C34.0794 26.7117 33.4913 26.1415 33.6579 26.0373C33.7244 25.9966 33.9619 25.7526 34.0681 25.725C34.174 25.6976 34.3077 25.9342 34.3206 25.9378C34.7481 26.013 34.7765 26.1853 35.2262 26.4703C35.6747 26.7538 34.8034 25.8894 34.7473 25.7539C34.6912 25.6188 35.0258 25.6978 35.1285 25.7382C35.231 25.7788 35.3046 25.9401 35.3735 25.9527C35.827 26.032 35.041 25.4286 34.9721 25.2253C34.8085 24.7446 35.5571 25.288 35.7584 25.2192C35.8131 25.2004 35.6391 25.08 35.6595 25.0337C35.7426 24.8523 36.0194 24.9805 35.9932 24.6456C35.9888 24.5912 35.7361 24.0761 36.0923 24.291C36.1436 24.322 36.2682 24.5166 36.3603 24.4988C36.498 24.4725 36.6862 24.3611 36.726 24.2182C36.7552 24.1127 36.419 23.9173 36.5848 23.9192C36.6587 23.9202 36.7392 24.1457 36.8655 24.1344C36.9916 24.1232 37.1666 23.9424 37.2298 23.8713C37.2932 23.8 37.0596 23.6313 37.0519 23.6122C37.0099 23.5011 37.0474 23.276 37.0593 23.265C37.6263 22.6739 38.4982 22.4995 38.9633 21.8349C39.0002 21.7829 38.7633 21.596 38.7668 21.5858C38.835 21.3471 39.2626 22.0377 39.5547 22.1262C39.1197 21.7031 39.2589 21.7218 39.3212 21.57C39.351 21.4965 39.1601 21.3542 39.1482 21.3323C38.979 21.0005 39.3517 21.2814 39.4308 21.3361C39.7219 21.5373 39.4947 21.1878 39.69 21.3216C39.884 21.4542 40.0392 21.7776 40.1405 21.6746C40.0197 21.4897 39.5499 21.1542 39.5656 21.0119C39.6246 20.4739 40.4897 20.2626 40.7621 20.0667C41.0335 19.8715 41.0837 19.7684 41.278 19.6916C41.6294 19.5527 41.2462 19.3365 41.2703 19.0476C41.2949 18.7583 41.9321 19.5814 42.1082 19.7212C42.2837 19.8613 42.1501 19.6723 42.262 19.7347C42.3738 19.7972 42.4185 19.9635 42.5149 19.9352C42.6112 19.907 42.516 19.4514 42.3788 19.2607C42.088 18.8567 41.6514 18.5576 41.9491 18.5258C41.9664 18.5242 42.1217 18.7523 42.1786 18.7362C42.6225 18.6039 42.9452 18.3164 43.3732 18.1673C43.4323 18.1472 43.6033 18.4023 43.64 18.3931C44.0233 18.2978 43.5833 18.0108 43.3319 17.4681C43.8188 18.0468 44.2115 18.3114 44.4052 18.1353C44.5218 18.0296 44.2763 17.8078 44.1911 17.5689C44.1653 17.497 44.4014 17.586 44.3099 17.4591C44.0114 17.044 43.5464 16.702 43.8981 16.6819C43.9141 16.6816 44.0764 16.9099 44.1178 16.8941C44.3862 16.7933 44.0468 16.3846 44.2127 16.1416C44.3423 15.9514 44.8547 15.9157 45.0779 15.78C45.6521 16.4053 45.6965 16.0986 45.3699 15.6032C45.5076 15.5081 45.6165 15.3621 45.7891 15.3126C45.8483 15.2954 45.9886 15.5004 46.0118 15.5152C46.3728 15.7487 46.0392 15.2817 46.0504 15.2409C46.189 14.8176 46.7127 14.9222 46.7008 14.3609C46.7002 14.3408 46.3175 13.8916 46.6815 14.1421C46.7063 14.1596 46.7972 14.4401 46.9398 14.3377C47.0827 14.235 47.5376 14.2477 47.5325 13.8829C47.5314 13.7949 47.3192 13.3408 47.6588 13.5377C47.7046 13.5647 47.8055 13.7015 47.8857 13.7559C48.0815 13.8877 47.911 13.6449 48.0006 13.6648C48.0246 13.674 48.0772 13.7043 48.1736 13.7775C48.5822 14.0886 48.9743 14.2413 48.9129 13.819C48.9118 13.8062 48.6291 13.4234 48.6901 13.376C48.7873 13.3012 48.9807 13.2533 49.0711 13.163C49.1143 13.1196 48.8835 12.9342 48.8875 12.923C49.0699 12.5219 49.4611 12.5084 49.8556 12.2833C49.9287 12.242 49.8142 11.795 50.147 11.9116C50.5114 12.039 51.3946 13.1905 51.4376 12.6667C51.4564 12.4554 50.3134 11.0163 51.1829 11.4867C51.4107 10.9294 52.1153 10.9082 52.2695 10.2772C52.2766 10.2489 51.97 9.83396 52.0164 9.79702C52.0858 9.74306 52.2887 9.87691 52.3437 9.84368C52.422 9.79873 52.4771 9.73351 52.5226 9.66123C52.6136 9.51695 52.6683 9.34346 52.8014 9.23951C52.877 9.17976 53.0282 9.37717 53.1182 9.30632C53.2081 9.23528 53.032 8.9522 53.2521 8.95397C53.4192 8.95595 53.969 9.34449 54.1318 9.2923C53.676 8.82297 53.7605 8.75811 53.7744 8.50278C53.7769 8.45344 53.5898 8.31791 53.5828 8.28614C53.5511 8.15304 53.7293 8.24284 53.6882 8.10475C53.6785 8.07143 53.5235 7.91051 53.5068 7.87414C53.3598 7.55825 53.8441 7.79006 53.9273 7.83176C54.2452 7.98774 54.0864 7.73797 54.2446 7.76859C54.4024 7.79984 54.413 8.01442 54.5465 7.9979C54.8223 7.96398 55.0082 7.74381 55.1841 7.59987C55.2533 7.54146 55.0083 7.36053 55.0136 7.34702C55.1047 7.16378 55.456 7.27792 55.1464 6.76022C56.25 7.8369 55.1351 6.57212 55.5442 6.6288C55.5769 6.63377 56.0643 7.1729 56.0721 7.30585C56.0803 7.43833 55.8406 7.34428 55.8655 7.54259C55.8703 7.58986 56.206 8.20007 56.2189 8.24379C56.3156 8.5877 55.5788 7.79085 55.5325 7.7521C55.0319 7.33596 55.3828 8.00694 55.3824 8.07589C55.3759 8.39557 55.1356 8.41043 55.1146 8.65772C55.1002 8.81849 55.5811 9.34241 55.499 9.39044C55.2276 9.55014 54.4548 8.91815 54.8445 9.74043C54.9276 9.91601 55.5182 10.4249 54.9277 10.1492C54.8907 10.1315 54.3761 9.85452 54.5558 10.1747C54.5785 10.215 54.7387 10.3751 54.7407 10.4001C54.7505 10.5641 54.5713 10.4881 54.5483 10.6337C54.525 10.7794 54.5151 10.9721 54.3636 11.0158C54.2729 11.042 53.8977 10.821 53.7964 10.7765C53.7073 10.7368 53.67 10.7497 53.6524 10.7808C53.6127 10.8508 53.6733 11.0142 53.4617 10.8727C53.1548 10.6678 52.8612 10.1826 52.5647 10.1493C52.9778 10.5684 53.3956 11.0048 53.8082 11.4292C53.5075 11.7032 53.09 11.8537 52.8185 12.1625C52.7853 12.2011 53.0459 12.3879 53.016 12.4351C52.8886 12.6338 52.5866 12.6166 52.48 12.8492C52.3985 13.03 52.4894 13.4114 52.4095 13.6087C51.852 13.2129 51.807 13.5777 51.6135 13.6806C51.5461 13.7167 51.424 13.5846 51.3455 13.5792C51.0534 13.5608 51.5343 13.923 51.5608 14.0279C51.6723 14.4768 50.7204 13.5239 50.548 13.7365C50.5388 13.7472 50.909 14.3873 50.9222 14.4366C51.0118 14.7547 50.7306 14.2742 50.6237 14.3032C50.429 14.3555 50.2217 14.3164 50.2162 14.6116C50.2151 14.6986 50.4173 15.1234 50.0934 14.9533C50.051 14.9309 49.8943 14.7525 49.8758 14.7509C49.5534 14.7366 50.0599 15.2835 50.1379 15.5566C50.1879 15.7331 49.9988 15.6955 49.8225 15.6255L49.7984 15.6476C49.7033 15.6067 49.6123 15.5561 49.5665 15.5266C49.232 15.3119 49.5151 15.3518 49.4939 15.3202C49.486 15.3083 49.4782 15.297 49.4707 15.2862L49.4897 15.2687C49.4162 15.1658 49.3604 15.1093 49.3152 15.0816L49.2989 15.0967C49.2004 15.0335 49.1532 15.1113 49.0826 15.1413C48.5795 14.6106 48.4964 14.7455 48.9749 15.1901C49.0274 15.2385 49.044 15.1312 49.0826 15.1413C49.4942 15.7364 49.4336 15.9156 48.8462 15.5441C48.5709 15.37 48.3842 15.0443 48.2809 15.3201C48.2339 15.4449 48.6074 15.7856 48.6227 15.9575C48.6574 16.35 48.1108 16.2141 47.9791 16.4358C47.9314 16.5162 48.1822 16.66 48.156 16.7219C48.0873 16.8867 47.842 16.8317 47.7937 17.0204C47.7896 17.0377 48.0118 17.2251 47.977 17.2622C47.7171 17.5478 47.3472 17.6388 47.0489 17.9092C46.905 18.0398 46.7598 18.3926 46.5914 18.5062C46.3001 18.7047 45.6996 18.6926 45.5526 18.9706C45.456 19.1509 45.6842 19.3323 45.7583 19.5325C45.9022 19.9202 45.2274 19.6183 45.1269 19.5677C45.1236 19.566 45.1988 19.4017 45.0322 19.3552C44.7828 19.1663 45.1274 19.5655 45.1269 19.5677C45.0617 19.5353 44.7738 19.7169 44.7636 19.8024C44.7582 19.8491 44.9605 20.034 44.9541 20.0545C44.796 20.5404 44.5209 20.8967 44.103 21.1172C44.0934 21.1187 43.8916 20.8887 43.8717 20.895C43.5873 20.9777 43.7231 21.3646 43.7197 21.6744C43.7168 21.9836 43.5399 22.0495 43.085 21.7579C43.0121 21.9187 42.6823 21.9127 42.4876 21.9038C42.2929 21.895 42.6903 22.3384 42.6899 22.3551C42.681 22.8844 42.2906 22.7862 41.9767 23.0131C41.8269 23.1202 41.6228 23.435 41.5252 23.6187C41.4485 23.7647 41.284 23.7291 41.2419 23.8929C41.236 23.9151 41.4337 24.0927 41.4364 24.1042C41.5389 24.4451 41.1469 23.9236 41.0427 23.8631C40.6642 23.6431 40.4551 23.5331 40.4429 23.8189C40.4399 23.8846 40.9853 24.6539 40.9605 24.7532C40.9272 24.881 40.7265 24.6103 40.6975 24.7502C40.6948 24.762 40.8393 24.9092 40.7802 24.9533C40.507 25.1605 40.1579 25.3289 39.9184 25.587C39.8849 25.6219 40.1561 25.8152 40.1114 25.8696C39.9011 26.1248 39.6357 26.3623 39.2998 26.4718C39.2161 26.4983 39.0934 26.2987 39.034 26.2613C38.6737 26.0366 38.9799 26.5712 38.9701 26.5963C38.7488 27.2056 38.049 27.1258 37.7983 27.7206C37.7851 27.754 38.0453 28.3915 37.5856 28.07C37.5548 28.0488 37.0873 27.7171 37.2818 28.0628C37.294 28.0844 37.5432 28.2471 37.4362 28.3081C37.3292 28.3692 37.3235 28.6412 36.9836 28.5251C36.8765 28.4885 36.4007 28.1664 36.5953 28.5982C36.6094 28.6278 37.1299 29.5276 36.5885 29.0792C36.4992 29.0055 36.0038 28.4578 36.1278 28.8614C36.1522 28.9393 36.3125 29.0145 36.3145 29.154C36.3182 29.3685 36.0438 29.3554 36.1409 29.7157C36.1584 29.7791 36.4063 30.234 36.0696 30.0284C36.0169 29.9962 35.8708 29.7952 35.8116 29.813C35.5266 29.8991 35.4367 30.2092 35.1249 30.2669C35.0148 30.2877 34.7786 29.963 34.6334 29.9524C34.4874 29.9427 34.2707 30.0041 34.3186 30.2081C34.3666 30.4122 34.882 30.8004 34.8024 30.9436C34.4564 31.5659 33.7044 31.7512 33.1658 32.1666C33.0859 32.2281 33.301 32.3398 33.1933 32.4433C32.7948 32.8281 32.2276 33.6199 31.5443 33.5759C31 33.5386 31.1693 32.9988 30.8456 33.073C30.6907 33.1088 31.0614 33.765 31.0508 33.805C30.9499 34.2054 30.5593 34.1098 30.3967 34.3803C30.3619 34.4373 30.6034 34.6248 30.5715 34.6709C30.4643 34.8303 30.2309 34.8526 30.1138 34.9828C30.0616 35.0417 30.2194 35.2077 30.1531 35.2402C29.9942 35.3215 29.8121 35.3477 29.5459 35.2895C29.5217 35.2842 29.4205 34.9991 29.3154 35.072C29.1475 35.1892 28.8129 35.1894 28.7638 35.509C28.7499 35.6043 29.0741 36.0142 28.7299 35.8274C28.6574 35.7888 28.3006 35.2712 28.4974 35.807C28.5304 35.8961 28.7416 36.6607 28.3346 36.38C28.2272 36.3064 27.8358 35.9604 27.8171 36.0766C27.8155 36.0941 28.0248 36.2871 27.9836 36.3534C27.8583 36.5475 27.6741 36.6754 27.5272 36.8452C27.503 36.8743 27.48 36.9049 27.4588 36.9377C27.4224 36.9949 27.6718 37.171 27.6121 37.2488C27.4491 37.4623 27.1387 37.6034 26.8814 37.6843C26.7858 37.714 26.6924 37.483 26.6711 37.4662C26.3259 37.1936 26.6208 37.6913 26.6119 37.7401C26.5518 38.0378 26.246 37.9316 26.1233 38.1154C26.0888 38.1658 26.2881 38.3583 26.2938 38.3847C26.3439 38.6471 26.1155 38.2022 26.0222 38.2053C25.7598 38.2129 25.5829 38.3768 25.4323 38.5374C25.3778 38.5962 25.6424 38.7933 25.5913 38.8432C25.2929 39.143 24.9249 39.3907 24.493 39.506C24.411 39.5275 24.2989 39.3047 24.2517 39.2706C23.9225 39.0317 24.1217 39.5531 24.1233 39.6164C24.1306 39.9055 23.9457 39.7756 23.8515 39.9011C23.3932 40.517 22.5874 40.9733 21.9835 41.342C21.1973 41.8235 20.4975 42.0868 19.8531 42.6831C19.8119 42.7207 20.0597 42.9391 20.0269 42.9748C19.5953 43.4231 19.0414 43.7067 18.6151 44.172C18.5799 44.2096 18.831 44.4034 18.781 44.4718C18.6795 44.6142 18.5061 44.7327 18.3105 44.7641C18.2158 44.7796 18.1364 44.5034 18.0445 44.5232C17.8302 44.5688 17.6543 44.6826 17.531 44.8459C17.479 44.9159 17.7764 45.0812 17.6934 45.153C17.1245 45.6531 16.5869 46.1573 15.7328 46.3204C15.6744 46.3314 15.2364 45.8606 15.2274 46.0258C15.3325 46.1697 15.4641 46.3325 15.5805 46.4831C14.7866 47.2532 13.7935 47.7637 12.8957 48.4254C12.8585 48.4529 13.1312 48.6708 13.0603 48.7254C12.6334 49.0539 12.2874 49.4423 11.6431 49.5089C11.5793 49.5161 11.2388 49.024 11.1665 49.1925C11.1522 49.2241 11.0178 49.4257 11.0388 49.5722C11.0435 49.5931 11.2478 49.7887 11.1879 49.8438C10.8435 50.1551 10.4218 50.3866 9.918 50.5308C9.83968 50.5512 9.73581 50.2614 9.67902 50.2735C9.25814 50.3729 9.03729 50.7963 8.47813 50.8054C8.11278 50.7999 7.95358 50.2998 7.59105 49.916C7.5512 49.8581 7.34032 49.9376 7.22428 49.6645C6.95406 48.9758 6.69736 48.2066 6.39301 47.4789C6.30293 47.3286 6.53051 47.4491 6.30153 47.0901C6.27156 47.0699 6.15613 46.9695 6.10977 46.8385C6.06801 46.7518 5.94732 46.4779 5.8887 46.3693C5.82877 46.2614 5.94345 46.485 5.90218 46.3428C5.8592 46.1991 5.67324 45.9138 5.71496 45.8429ZM41.6123 21.8695C41.3242 21.7495 42.0343 22.519 41.9591 22.2443C41.9546 22.2302 41.6267 21.8752 41.6123 21.8695ZM52.5312 11.2953C52.0881 11.086 52.4892 11.6453 52.8241 11.8144C53.1587 11.9833 52.6659 11.3583 52.5312 11.2953ZM53.4898 9.85054C53.0968 9.72951 54.1296 10.7963 54.0599 10.4405C54.0563 10.4202 53.5126 9.85754 53.4898 9.85054ZM8.10149 49.4645C8.0926 49.4538 7.99658 49.4969 7.99739 49.5124C8.11812 49.8283 8.32568 49.7326 8.10149 49.4645ZM54.4235 8.4142C54.2416 8.31025 54.2793 8.59597 54.5056 8.72455C54.6873 8.82836 54.6492 8.54399 54.4235 8.4142ZM36.1148 25.5854C36.1027 25.5755 36.0406 25.6153 36.1025 25.6781C36.302 25.8803 36.3196 25.7527 36.1148 25.5854ZM56.5399 6.53587C56.1829 6.7482 55.1975 5.97278 55.654 5.77958C55.7358 5.74568 55.7568 6.19914 55.9106 6.217C56.188 6.25178 55.8135 5.56612 56.2281 5.7661C56.3018 5.80426 56.5611 6.52626 56.5404 6.53767C56.5402 6.53707 56.54 6.53647 56.5399 6.53587ZM40.6913 21.0105C40.68 21.0022 40.5982 21.0622 40.6059 21.0738C40.7962 21.3517 40.9611 21.2309 40.6913 21.0105ZM32.5874 28.0251C32.5632 28.0074 32.3733 28.1463 32.3863 28.1713C32.6667 28.6526 33.0525 28.3722 32.5874 28.0251ZM45.0963 15.7938C44.9492 15.474 45.0196 15.3549 45.3692 15.6032C45.2742 15.661 45.1908 15.734 45.0963 15.7938Z" fill="#735A47"/>
<path d="M22.4559 64.8185C22.7491 64.2057 23.2621 63.7603 23.666 63.5134C23.795 63.4332 23.8813 63.614 23.9737 63.568C24.153 63.48 24.2074 63.2905 24.3912 63.224C24.4533 63.2021 24.6136 63.459 24.6735 63.4318C24.9996 63.2824 25.1603 63.0173 25.4351 62.8364C26.7778 61.9629 27.9268 61.0736 29.105 60.1409C29.4924 59.8351 30.1092 59.614 30.3897 59.1775C30.4222 59.1264 30.217 58.9663 30.2102 58.9432C30.1083 58.5878 30.4304 59.0011 30.5614 58.9697C31.0775 58.8465 31.455 58.5034 31.6916 58.1205C31.7906 57.9581 31.2947 57.7321 31.6305 57.8002C31.6535 57.8045 31.8163 58.0297 31.8729 58.0137C32.0005 57.9772 32.1206 57.7831 32.1972 57.7348C32.3478 57.6408 32.3657 57.6181 32.4811 57.5018C32.6418 57.3429 32.9209 57.2454 33.0402 57.026C33.0649 56.9788 32.8131 56.8373 32.8336 56.745C32.8543 56.6527 33.0161 56.5124 33.114 56.5034C33.2117 56.4947 33.3538 56.6664 33.3998 56.691C33.7872 56.9003 33.5186 56.316 33.528 56.2835C33.732 55.6846 34.3135 55.5304 34.6659 55.1119C34.7207 55.0464 34.7727 54.9768 34.8229 54.9049C35.0299 54.6116 35.217 54.2884 35.4455 54.0447C35.7892 53.6799 36.1844 53.467 36.4917 53.0934C36.5245 53.0542 36.2408 52.8749 36.2805 52.8263C36.7031 52.3104 37.1866 51.8553 37.8068 51.5418C37.8692 51.5106 38.0165 51.7743 38.091 51.7555C38.5437 51.6338 39.3892 51.6011 38.6769 50.5328C38.9063 50.377 39.1804 50.1826 39.5318 50.1984C39.7581 50.2086 39.8665 50.5417 39.9119 50.3121C39.9225 50.2605 39.6909 50.0992 39.7214 50.0368C39.8504 49.7742 40.1295 49.6349 40.2302 49.3456C40.2503 49.2862 40.0704 49.1152 40.0514 49.0719C39.902 48.7171 40.4693 49.006 40.5334 49.006C41.019 48.9985 41.1277 48.7269 41.3826 48.5069C41.442 48.4558 41.1501 48.271 41.1994 48.2129C41.458 47.915 41.7795 47.6664 42.1636 47.5243C42.2494 47.4933 42.3786 47.7575 42.4292 47.7536C42.6495 47.7345 42.3257 47.3062 42.5312 47.2798C42.574 47.2738 42.7187 47.4697 42.7412 47.4854C43.0944 47.7324 42.7711 47.2275 42.7826 47.2001C42.9173 46.845 43.4858 47.1714 43.672 46.895C43.694 46.8614 43.4276 46.6856 43.5017 46.6053C43.9959 46.0676 44.6349 45.6364 45.3394 45.3655C45.4485 45.3232 45.5363 45.5508 45.5599 45.5681C45.9329 45.8351 45.6067 45.3317 45.6201 45.2912C45.7357 44.9837 46.2591 45.1971 45.9545 44.5278C47.0404 43.9428 47.7109 42.8741 49.0334 42.6009C49.0498 42.5969 49.2164 42.8397 49.2482 42.8307C49.6323 42.7254 49.2885 42.4186 49.1161 41.8365C49.073 41.6903 49.6453 42.0891 49.6895 42.1165C49.8515 42.2179 50.0842 42.5921 50.122 42.6063C50.4251 42.7132 49.48 41.6229 49.6494 41.4802C49.6563 41.4776 49.8046 41.6998 49.8358 41.7081C49.9335 41.7344 49.9095 41.6167 50.0116 41.6503C50.2466 41.7291 50.7328 42.2363 50.6226 41.7955C50.6076 41.7389 50.0509 41.1379 50.2266 41.04C50.2971 41.0015 50.5529 40.7661 50.6621 40.7426C50.7707 40.7196 50.8909 40.9637 50.9035 40.9679C51.3301 41.0623 51.3481 41.237 51.7843 41.5433C52.2193 41.8478 51.3933 40.94 51.3448 40.8011C51.297 40.6623 51.6311 40.7542 51.7324 40.7988C51.8338 40.8435 51.8985 41.009 51.9675 41.0242C52.4214 41.1206 51.6615 40.4837 51.6029 40.2768C51.4646 39.7862 52.1891 40.3613 52.3971 40.297C52.4115 40.2926 52.411 40.281 52.4027 40.2653C52.3814 40.2178 52.2926 40.1384 52.31 40.1042C52.4047 39.9242 52.6775 40.0632 52.6699 39.7243C52.6689 39.6689 52.4396 39.1428 52.7892 39.3703C52.8394 39.4032 52.9545 39.6038 53.049 39.5885C53.1906 39.5657 53.3873 39.4587 53.4349 39.3158C53.4699 39.2101 53.1402 39.0028 53.3076 39.0098C53.3823 39.0131 53.4521 39.243 53.5803 39.2353C53.7085 39.2277 53.8944 39.0503 53.9627 38.9796C54.0307 38.9089 53.8025 38.7325 53.7957 38.713C53.7588 38.5996 53.8083 38.3728 53.8207 38.3621C54.4201 37.7823 55.3124 37.6217 55.8097 36.9576C55.849 36.9058 55.6167 36.713 55.6207 36.7028C55.6983 36.4634 56.1045 37.1676 56.3965 37.2618C55.9726 36.8276 56.1132 36.8483 56.1826 36.6953C56.2157 36.6213 56.0278 36.4747 56.0167 36.4524C55.8581 36.1146 56.2246 36.4038 56.3027 36.4602C56.5899 36.6675 56.3729 36.3112 56.5656 36.4491C56.7572 36.5856 56.9022 36.9147 57.0088 36.8117C56.8932 36.6233 56.43 36.278 56.451 36.1344C56.5293 35.5928 57.4126 35.3879 57.6949 35.1917C57.9767 34.996 58.0305 34.8922 58.2295 34.816C58.589 34.6784 58.2077 34.4572 58.241 34.165C58.2747 33.8724 58.8957 34.7082 59.0699 34.8504C59.2436 34.9929 59.1139 34.801 59.2255 34.8646C59.337 34.9283 59.3773 35.0969 59.4759 35.0686C59.5745 35.0402 59.4915 34.5788 59.3579 34.3855C59.0747 33.9759 58.6412 33.6714 58.943 33.641C58.9606 33.6394 59.1115 33.8706 59.1695 33.8546C59.6242 33.7213 59.958 33.4319 60.3958 33.2814C60.4563 33.2609 60.6228 33.5193 60.6604 33.5099C61.0521 33.4131 60.6133 33.1227 60.3723 32.5736C60.851 33.1591 61.2422 33.427 61.4431 33.2487C61.564 33.1417 61.3205 32.9176 61.2402 32.6758C61.216 32.603 61.453 32.6928 61.3635 32.5645C61.0712 32.1446 60.6083 31.7991 60.9654 31.7783C60.9816 31.778 61.1406 32.0087 61.1829 31.9927C61.4573 31.8905 61.123 31.4776 61.2966 31.2318C61.4322 31.0394 61.9534 31.0014 62.1821 30.8643C62.7498 31.4954 62.8018 31.1852 62.4822 30.6847C62.6239 30.5882 62.7381 30.4399 62.9143 30.3893C62.9747 30.3717 63.1122 30.5788 63.1354 30.5937C63.4961 30.829 63.1684 30.3576 63.1806 30.3164C63.3307 29.8878 63.8602 29.9915 63.8608 29.4241C63.8607 29.4037 63.4827 28.9506 63.8463 29.2028C63.871 29.2205 63.9565 29.5043 64.1038 29.4001C64.2514 29.2957 64.7122 29.3077 64.7163 28.9383C64.7175 28.8492 64.5125 28.3909 64.8527 28.5891C64.8986 28.6163 64.9975 28.7547 65.0775 28.8095C65.3332 28.9836 64.9691 28.5098 65.3714 28.8301C65.7736 29.1502 66.1617 29.3132 66.1184 28.8861C66.1177 28.8733 65.8502 28.4794 65.9141 28.4333C66.0158 28.3604 66.2156 28.3163 66.312 28.2281C66.3581 28.1857 66.1351 27.991 66.1398 27.9798C66.1769 27.9087 66.22 27.8504 66.2679 27.8013L66.2878 27.7853C66.4688 27.6125 66.8021 27.5456 67.1217 27.3419C67.1961 27.2939 67.0605 26.8498 67.3983 26.9465C67.7729 27.0467 68.7297 28.1388 68.7459 27.6027C68.7556 27.3841 67.5151 26.0274 68.4201 26.4289C68.6166 25.8446 69.3258 25.7628 69.4462 25.1145C69.4517 25.0856 69.1203 24.6897 69.1654 24.6486C69.2329 24.5884 69.4449 24.7081 69.499 24.6702C69.7288 24.5168 69.7387 24.1974 69.9347 24.0253C70.0087 23.9597 70.1696 24.1495 70.2577 24.0717C70.3457 23.994 70.1564 23.7192 70.3796 23.7064C70.5492 23.6974 71.1177 24.0584 71.2805 23.9959C70.8037 23.548 70.8872 23.4769 70.8926 23.2185C70.8938 23.1681 70.7001 23.0419 70.6921 23.01C70.6564 22.8765 70.8398 22.9571 70.7941 22.8196C70.7833 22.7864 70.6218 22.632 70.6039 22.5961C70.4454 22.2849 70.9449 22.4909 71.0296 22.5294C71.3554 22.6709 71.1878 22.4269 71.35 22.4489C71.5108 22.4726 71.5259 22.6896 71.6609 22.6664C71.9375 22.6208 72.1209 22.3914 72.2987 22.2402C72.3674 22.18 72.1191 22.0036 72.1242 21.99C72.2169 21.8007 72.5678 21.9142 72.2653 21.3912C73.3668 22.4714 72.2519 21.2034 72.6791 21.2554C72.713 21.2604 73.1791 21.8178 73.1854 21.9488C73.191 22.0802 72.9571 21.9784 72.9807 22.1769C72.9839 22.2251 73.3228 22.8325 73.3382 22.8743C73.4439 23.2114 72.6967 22.4248 72.6497 22.3867C72.1428 21.9778 72.5038 22.6446 72.5047 22.714C72.5068 23.0326 72.2644 23.0578 72.2508 23.3068C72.2402 23.4698 72.7398 23.976 72.6599 24.0268C72.3935 24.198 71.5931 23.6009 72.0149 24.4091C72.1052 24.5815 72.719 25.062 72.1146 24.8158C72.0765 24.8001 71.5484 24.5487 71.7422 24.8612C71.7668 24.9005 71.9346 25.0526 71.9376 25.0775C71.9546 25.2418 71.7717 25.1751 71.7553 25.3225C71.739 25.4698 71.7387 25.6636 71.5896 25.7157C71.5001 25.7473 71.1131 25.548 71.0088 25.5101C70.7101 25.3988 70.9958 25.8128 70.6785 25.6281C70.3589 25.4432 70.0382 24.9745 69.7373 24.9629C70.1755 25.3556 70.6196 25.7654 71.0577 26.1633C70.7741 26.4561 70.3638 26.6396 70.1107 26.9722C70.0797 27.0138 70.3537 27.1807 70.3267 27.2306C70.2127 27.4394 69.9079 27.4471 69.8126 27.6938C69.7426 27.8823 69.8543 28.2638 69.7828 28.4726C69.194 28.1227 69.1648 28.5004 68.9652 28.6283C68.8945 28.6743 68.7655 28.5489 68.684 28.5509C68.3827 28.5578 68.8831 28.8926 68.9106 29.0006C69.0163 29.4713 68.0291 28.5583 67.8247 28.8076C67.8198 28.8154 68.1401 29.5009 68.1308 29.5677C68.1331 29.9532 67.9411 29.4035 67.7748 29.4746C67.7167 29.4995 67.6578 29.5201 67.598 29.54L67.7049 29.4538C67.5475 29.4727 67.4078 29.4843 67.3932 29.7253C67.3884 29.8123 67.5748 30.2438 67.2587 30.0608C67.2172 30.0369 67.067 29.853 67.0485 29.8508C66.7264 29.8254 67.2142 30.3895 67.2852 30.6636C67.3567 30.9371 66.8675 30.6828 66.7386 30.5988C66.4047 30.382 66.6907 30.4222 66.6699 30.3903C66.4234 30.01 66.3658 30.164 66.2573 30.2096C65.7599 29.6736 65.6728 29.8096 66.1471 30.2589C66.199 30.3078 66.2183 30.1996 66.2573 30.2096C66.6599 30.8113 66.5955 30.9914 66.0085 30.6167C65.7336 30.4409 65.5515 30.1124 65.4407 30.391C65.3902 30.5173 65.7608 30.8611 65.7723 31.035C65.798 31.4322 65.2484 31.2947 65.1088 31.5202C65.0586 31.6016 65.3094 31.7464 65.2816 31.809C65.2084 31.9757 64.9607 31.9208 64.9073 32.1119C64.9027 32.1295 65.1238 32.3185 65.0876 32.3562C64.8184 32.645 64.4398 32.7393 64.1309 33.0138C63.9825 33.1457 63.8256 33.5044 63.652 33.6197C63.3514 33.8217 62.7428 33.8104 62.5856 34.0929C62.4825 34.2761 62.7098 34.459 62.7796 34.6618C62.9154 35.0543 62.2384 34.7495 62.1378 34.6984C62.1345 34.6966 62.2153 34.5301 62.0474 34.4832C61.7994 34.2921 62.1383 34.6961 62.1378 34.6984C62.0726 34.6656 61.7746 34.8505 61.7618 34.9372C61.7548 34.9845 61.9551 35.1717 61.948 35.1925C61.7748 35.684 61.4821 36.0477 61.0515 36.27C61.0417 36.2715 60.8438 36.0381 60.8234 36.0444C60.532 36.1276 60.6576 36.5203 60.6432 36.835C60.6287 37.1497 60.4478 37.215 59.9953 36.9178C59.9157 37.0806 59.5804 37.0733 59.3825 37.0636C59.1847 37.0539 59.5725 37.5059 59.5714 37.5228C59.5434 38.0591 59.1501 37.9573 58.8207 38.1863C58.6636 38.2942 58.4444 38.6109 58.3366 38.7968C58.2522 38.9445 58.086 38.9071 58.0354 39.0735C58.0284 39.0958 58.2216 39.2784 58.2239 39.2901C58.3134 39.637 57.9375 39.1033 57.8343 39.0407C57.4593 38.8128 57.2521 38.6982 57.2267 38.9881C57.2207 39.0547 57.7398 39.8428 57.7096 39.9436C57.6692 40.0733 57.478 39.7956 57.4412 39.9378C57.4379 39.9498 57.5776 40.1015 57.5153 40.1454C57.2281 40.3511 56.8627 40.5179 56.6041 40.7767C56.5682 40.8116 56.834 41.0128 56.7856 41.0672C56.5587 41.3219 56.2719 41.5607 55.9231 41.6647C55.8363 41.6898 55.7229 41.4843 55.6646 41.445C55.3108 41.2085 55.5913 41.7584 55.5797 41.7838C55.3573 42.3014 54.8219 42.3137 54.4805 42.6582L54.4973 42.6435C54.4321 42.7103 54.3736 42.7893 54.3251 42.8864C54.3103 42.9196 54.5303 43.5783 54.082 43.2393C54.0518 43.217 53.5971 42.8668 53.7714 43.2244C53.7822 43.2468 54.0261 43.4188 53.9115 43.4787C53.7971 43.5385 53.7682 43.8183 53.4316 43.6875C53.3249 43.6468 52.8637 43.3028 53.0298 43.7488C53.0417 43.7796 53.5057 44.7124 52.9866 44.2375C52.9012 44.1592 52.4362 43.5856 52.5333 43.9991C52.5525 44.079 52.71 44.1616 52.7019 44.303C52.6889 44.5213 52.4134 44.4946 52.4846 44.8642C52.4977 44.9292 52.7153 45.4008 52.3874 45.1791C52.3363 45.1442 52.2027 44.9346 52.1413 44.9499C51.8496 45.0214 51.7337 45.3327 51.4152 45.3757C51.3022 45.3917 51.0857 45.0535 50.9395 45.0361C50.7937 45.0185 50.5696 45.0711 50.6055 45.2778C50.6407 45.4854 51.1349 45.9006 51.0456 46.0408C50.6546 46.6517 49.8948 46.7965 49.3348 47.1905C49.2519 47.2488 49.4615 47.3702 49.3497 47.4686C48.9372 47.8328 48.3507 48.6001 47.6791 48.5348C47.1399 48.4833 47.3154 47.9503 46.9919 48.0172C46.8359 48.0505 47.1969 48.7123 47.1865 48.7516C47.0889 49.1436 46.7018 49.0435 46.5431 49.3111C46.5103 49.3665 46.7502 49.5552 46.7203 49.5998C46.6199 49.754 46.391 49.7744 46.2796 49.9027C46.23 49.9608 46.3899 50.1248 46.3258 50.1569C46.1741 50.2355 46 50.2593 45.7368 50.2043C45.7128 50.1993 45.6014 49.9192 45.5016 49.9921C45.3406 50.1106 45.0143 50.1152 44.9859 50.431C44.9782 50.5253 45.3219 50.9187 44.9739 50.7447C44.9011 50.7085 44.5145 50.2128 44.7464 50.7315C44.7843 50.8182 45.0574 51.5536 44.6402 51.2946C44.5302 51.2266 44.1174 50.9071 44.1104 51.0218C44.1108 51.0388 44.3312 51.218 44.2993 51.2835C44.1835 51.5106 43.9791 51.6553 43.8586 51.8843C43.8268 51.9459 44.094 52.0951 44.0406 52.1798C43.8939 52.4132 43.6019 52.5822 43.3504 52.6926C43.2574 52.7328 43.1415 52.512 43.1185 52.4976C42.7457 52.2632 43.0901 52.7281 43.0862 52.7777C43.0559 53.0814 42.7432 53.0056 42.6388 53.2039C42.6096 53.258 42.8287 53.4276 42.8372 53.4533C42.9153 53.7089 42.64 53.2913 42.5474 53.3049C42.2866 53.3418 42.1294 53.5242 41.9994 53.7C41.9519 53.7649 42.2375 53.9301 42.1925 53.9856C41.9306 54.318 41.6022 54.6021 41.191 54.7702C41.1132 54.8015 40.9726 54.5955 40.9215 54.5678C40.5645 54.3732 40.8318 54.8629 40.8426 54.9247C40.8911 55.2076 40.6902 55.1042 40.6157 55.24C40.2556 55.904 39.5481 56.4616 39.032 56.9166C38.7168 57.1945 38.4141 57.4261 38.1312 57.6662C37.7763 57.9798 37.4429 58.2912 37.1354 58.6888C37.0983 58.7362 37.3826 58.9059 37.3534 58.9499C36.9638 59.5095 36.4243 59.9103 36.0321 60.4625C35.9996 60.5073 36.2783 60.6617 36.2334 60.7408C36.1421 60.9057 35.9695 61.0621 35.772 61.125C35.6761 61.1561 35.5682 60.8866 35.4758 60.9214C35.2597 61.0024 35.0872 61.1479 34.974 61.3337C34.9261 61.4133 35.2469 61.5373 35.1669 61.6238C34.6226 62.2211 34.0951 62.8158 33.2331 63.0776C33.1739 63.0955 32.6961 62.6652 32.6972 62.8345C32.8139 62.9692 32.959 63.1201 33.0878 63.2602C32.323 64.1344 31.3418 64.7399 30.504 65.4748C30.4685 65.5061 30.7601 65.6987 30.6927 65.7604C30.3065 66.1145 30.0064 66.5255 29.4029 66.6391C29.3433 66.6508 28.948 66.2012 28.9011 66.3729C28.8924 66.4042 28.7871 66.6192 28.8397 66.7501C28.848 66.7695 29.0729 66.9394 29.0284 66.995C28.7663 67.315 28.4357 67.5651 28.0765 67.7153C28.0187 67.7387 27.8345 67.498 27.791 67.5135C27.4736 67.6361 27.4803 67.9968 27.1752 67.9796C26.9691 67.9696 26.5443 67.6787 26.0616 67.5087C25.9927 67.4854 25.9437 67.5617 25.6721 67.4502C24.9833 67.1789 24.2789 66.769 23.5434 66.4823C23.382 66.4187 23.418 66.8266 23.1159 66.473C23.0941 66.448 23.0805 66.14 22.9882 66.0182C22.9222 65.9348 22.6165 65.8768 22.5503 65.7345C22.4863 65.5893 22.7559 65.616 22.7076 65.4118C22.6565 65.2124 22.3295 65.0888 22.4559 64.8185ZM58.495 37.0231C58.207 36.8992 58.8993 37.6846 58.8333 37.4055C58.8293 37.3911 58.5093 37.029 58.495 37.0231ZM69.7679 26.1218C69.3086 25.9468 69.7481 26.4767 70.0945 26.6212C70.4408 26.7654 69.9073 26.1746 69.7679 26.1218ZM70.6555 24.5978C70.2538 24.5012 71.3436 25.5097 71.2562 25.1568C71.2514 25.1366 70.6789 24.6034 70.6555 24.5978ZM26.1731 67.0607C26.1605 67.0541 26.0997 67.1173 26.1103 67.1265C26.3602 67.3494 26.4735 67.2341 26.1731 67.0607ZM71.5471 23.0932C71.3601 22.9974 71.4057 23.2851 71.6384 23.4032C71.8254 23.4981 71.7786 23.213 71.5471 23.0932ZM52.7387 40.677C52.7269 40.6667 52.6619 40.7051 52.7212 40.7704C52.9125 40.9804 52.9374 40.8517 52.7387 40.677ZM73.6742 21.2558C73.3464 21.3706 72.3481 20.5839 72.9008 20.3816C72.994 20.3524 72.9357 20.8226 73.0975 20.8504C73.3644 20.9191 73.1475 20.1547 73.5568 20.432C73.6069 20.4906 73.6763 21.2568 73.6744 21.2576C73.6743 21.257 73.6742 21.2564 73.6742 21.2558ZM57.5916 36.1454C57.5803 36.1369 57.4953 36.1969 57.5027 36.2087C57.6857 36.4917 57.8572 36.3709 57.5916 36.1454ZM49.0039 42.9976C48.9805 42.9787 48.7786 43.1104 48.7902 43.1361C49.0409 43.6342 49.4504 43.3691 49.0039 42.9976ZM62.2004 30.8782C62.0589 30.5549 62.1326 30.4346 62.4815 30.6847C62.3836 30.7436 62.2978 30.8173 62.2004 30.8782Z" fill="#735A47"/>
<path d="M61.5636 0.000638008C61.7258 0.0314682 61.7925 0.233654 61.7948 0.424259C61.7975 0.485313 61.6519 0.602245 61.6463 0.648697C61.635 0.739075 61.7408 0.7159 61.7202 0.81668C61.7126 0.850609 61.4889 1.04255 61.4857 1.07335C61.4716 1.24263 61.5957 1.26089 61.632 1.38587C61.7953 1.98682 62.0883 2.44492 62.3657 2.92618C62.4602 3.08769 62.4164 3.4276 62.6272 3.47975C62.6519 3.48561 62.8299 3.29849 62.8481 3.28676C63.128 3.10868 62.7362 3.45238 62.715 3.53049C62.6351 3.84281 62.7397 3.98775 62.9239 4.03796C63.0012 4.05703 63.3278 3.65658 63.165 3.90315C63.1541 3.91991 62.9431 4.09538 62.9345 4.12885C62.9153 4.20429 63.0059 4.22915 63.0128 4.26817C63.0247 4.34387 63.0355 4.35133 63.0728 4.39566C63.1228 4.45861 63.0894 4.62212 63.1951 4.64435C63.2183 4.64856 63.4063 4.43848 63.4619 4.42794C63.5179 4.41807 63.5535 4.49107 63.523 4.55544C63.4926 4.61985 63.3235 4.76219 63.2897 4.80009C63.0034 5.11912 63.498 4.78251 63.5169 4.78134C63.8483 4.77164 63.7216 5.13064 63.8602 5.27931C63.9622 5.38765 64.1579 5.43597 64.243 5.55126C64.3433 5.68901 64.3347 5.90503 64.4637 6.00763C64.4773 6.01895 64.7074 5.78123 64.7245 5.79463C64.908 5.93877 65.0339 6.1309 65.023 6.45093C65.0217 6.48328 64.7867 6.65567 64.7726 6.6996C64.6914 6.96492 64.4105 7.50795 65.4054 6.72677C65.4335 6.83164 65.4715 6.95015 65.3385 7.18279C65.2529 7.33263 64.9825 7.50413 65.1275 7.46394C65.1599 7.45514 65.3527 7.25589 65.3858 7.25669C65.5247 7.25991 65.5296 7.40017 65.6981 7.3743C65.7329 7.36867 65.9142 7.19971 65.9511 7.174C66.2509 6.96709 65.8559 7.42168 65.8345 7.46291C65.6892 7.7486 65.8114 7.7577 65.8891 7.83181L65.9523 7.90893C65.9584 7.91582 65.9642 7.92314 65.9694 7.93108C65.9849 7.95496 66.2306 7.72788 66.2552 7.74385C66.3794 7.82964 66.4452 7.96663 66.4079 8.16603C66.399 8.21085 66.1532 8.35503 66.1371 8.38492C66.0688 8.51424 66.5106 8.21125 66.4534 8.32971C66.4419 8.35423 66.2408 8.49037 66.2206 8.50791C65.9029 8.78277 66.4027 8.46216 66.4191 8.46251C66.6357 8.45756 66.1763 8.87957 66.3143 8.92315C66.3314 8.92813 66.5643 8.72541 66.5971 8.75038C66.8174 8.9158 66.9057 9.19309 66.8454 9.54277C66.8363 9.59691 66.6292 9.70239 66.607 9.7204C66.2612 10.0024 66.7696 9.69137 66.7955 9.68974C66.9868 9.68499 66.6239 10.0407 67.2529 9.70604C67.2874 10.2027 67.8561 10.3493 67.5484 11.0498C67.5451 11.0583 67.2924 11.2074 67.2868 11.2236C67.217 11.4209 67.5884 11.1556 68.1056 10.9306C68.2356 10.8743 67.7017 11.2893 67.663 11.3204C67.5206 11.4353 67.1399 11.6494 67.1138 11.6742C66.911 11.8708 68.1266 11.0937 68.1694 11.1607C68.1686 11.1641 67.9383 11.2966 67.9195 11.3163C67.8603 11.3779 67.9605 11.3391 67.8939 11.4049C67.7394 11.5566 67.1541 11.9429 67.5371 11.7856C67.5867 11.765 68.273 11.3189 68.2777 11.3994C68.279 11.4317 68.3571 11.5303 68.3306 11.588C68.3041 11.6456 68.0677 11.7648 68.0593 11.773C67.8129 12.037 67.6715 12.0833 67.2579 12.396C66.8461 12.7076 67.8806 12.048 68.0069 11.9919C68.133 11.9361 67.925 12.1464 67.8489 12.2135C67.7728 12.2806 67.6194 12.3513 67.5792 12.3939C67.3172 12.6732 68.1193 12.1093 68.302 12.0343C68.7344 11.8567 67.9933 12.3878 67.9546 12.4946C67.9441 12.5235 68.112 12.401 68.1374 12.4052C68.2357 12.4232 68.0159 12.6074 68.2774 12.5353C68.3201 12.5236 68.8176 12.2881 68.4974 12.5335C68.4512 12.5687 68.25 12.6745 68.2219 12.7255C68.1796 12.802 68.1782 12.8939 68.2668 12.893C68.3324 12.8923 68.6294 12.6625 68.5533 12.7599C68.5192 12.8033 68.3149 12.8885 68.2664 12.9605C68.2178 13.0321 68.2739 13.1044 68.2985 13.1297C68.3232 13.155 68.5541 12.9896 68.5718 12.9819C68.6736 12.9386 68.8245 12.9226 68.8272 12.9277C69.0116 13.1591 68.7494 13.6417 69.0352 13.7995C69.0573 13.8121 69.3024 13.6404 69.3083 13.6407C69.4551 13.6389 68.7504 14.0107 68.5541 14.198C69.0631 13.8683 68.9871 13.9537 69.0721 13.9638C69.1135 13.9684 69.3045 13.8311 69.326 13.8203C69.6481 13.6623 69.2728 13.9307 69.1969 13.987C68.9177 14.1941 69.2787 13.9986 69.0923 14.1372C68.9074 14.2751 68.5978 14.4236 68.6295 14.4654C68.8206 14.3614 69.279 14.0251 69.3777 14.0089C69.7497 13.9464 69.5228 14.4172 69.549 14.5424C69.5742 14.6662 69.6291 14.6771 69.6011 14.7775C69.5506 14.9593 69.8774 14.6901 70.0805 14.6482C70.2834 14.6059 69.3992 15.1461 69.2196 15.2782C69.0402 15.4103 69.2379 15.294 69.1435 15.373C69.0493 15.4521 68.9065 15.5108 68.8863 15.5634C68.8662 15.6161 69.2451 15.4708 69.4449 15.3508C69.8682 15.0966 70.2766 14.7763 70.1719 14.9467C70.1656 14.9568 69.9308 15.0956 69.9183 15.1263C69.847 15.3097 69.8766 15.433 69.8617 15.5821C69.8576 15.6271 69.8496 15.6744 69.8341 15.7267C69.8244 15.7583 69.5652 15.916 69.5568 15.9364C69.4693 16.1498 69.8626 15.8209 70.3657 15.5501C69.7389 15.9714 69.3827 16.2682 69.4348 16.3494C69.4657 16.3982 69.7288 16.199 69.9393 16.0939C70.0027 16.0622 69.842 16.2267 69.9723 16.1424C70.3983 15.8665 70.838 15.5058 70.7094 15.714C70.7031 15.7237 70.4702 15.8752 70.465 15.8967C70.4303 16.0365 70.8666 15.7349 70.9767 15.7767C71.0625 15.8087 70.8858 16.1135 70.8974 16.2166C70.2166 16.7238 70.4253 16.6779 70.9128 16.3522C70.9288 16.4131 70.9933 16.4432 70.9635 16.5374C70.9534 16.5696 70.7505 16.7089 70.7309 16.727C70.4235 17.0107 70.8909 16.6845 70.9162 16.6807C71.1715 16.6566 70.9004 17.0107 71.3132 16.8529C71.328 16.8472 71.7953 16.4874 71.479 16.7815C71.4571 16.8018 71.2199 16.9344 71.2418 16.9955C71.2639 17.0569 71.0897 17.3454 71.3571 17.2418C71.4216 17.217 71.8266 16.9566 71.5622 17.2244C71.5262 17.2607 71.391 17.3624 71.323 17.428C71.1067 17.6374 71.5785 17.2728 71.2052 17.6164C70.8321 17.9601 70.5804 18.2516 70.9071 18.0988C70.9167 18.0946 71.295 17.8109 71.3067 17.8369C71.3252 17.8787 71.289 17.9894 71.321 18.0231C71.3364 18.0391 71.5531 17.8409 71.5597 17.8404C71.7801 17.8487 71.6464 18.0964 71.6621 18.2912C71.6647 18.3274 72.0237 18.1326 71.8188 18.38C71.5948 18.6511 70.455 19.5338 70.8102 19.422C70.953 19.378 72.3902 18.2477 71.7373 18.9407C72.0458 18.9406 71.7989 19.3966 72.1838 19.3306C72.2009 19.3278 72.6063 19.0171 72.6149 19.0378C72.6268 19.069 72.4573 19.2374 72.4601 19.2647C72.467 19.383 72.6779 19.3156 72.7131 19.4054C72.7268 19.4391 72.5318 19.5903 72.5481 19.6304C72.5645 19.6704 72.829 19.4804 72.7461 19.6246C72.6827 19.7342 72.2054 20.1968 72.1825 20.289C72.6818 19.8663 72.6963 19.9041 72.872 19.8441C72.906 19.8324 73.0704 19.6742 73.0955 19.661C73.2013 19.6043 73.0726 19.7444 73.1856 19.6801C73.2128 19.6647 73.3834 19.5204 73.4153 19.4997C73.6928 19.3182 73.3528 19.6944 73.2933 19.7596C73.0679 20.0078 73.3032 19.836 73.225 19.9464C73.1466 20.0564 72.9892 20.1234 72.9537 20.2045C72.8801 20.3722 72.9747 20.4289 73.0194 20.4985C73.0383 20.5254 73.2531 20.3174 73.2612 20.3168C73.3632 20.3212 73.1626 20.5763 73.6447 20.2271C72.4904 21.2416 73.7859 20.164 73.6112 20.4357C73.5969 20.4575 73.0413 20.9255 72.9405 20.9709C72.8399 21.0161 72.987 20.8376 72.8331 20.9123C72.7968 20.9297 72.2379 21.3219 72.2016 21.3427C71.9171 21.5045 72.7467 20.8044 72.7905 20.7639C73.2626 20.3252 72.6559 20.7427 72.606 20.762C72.3764 20.8493 72.4494 20.6988 72.2794 20.7542C72.1691 20.7895 71.6228 21.2448 71.6175 21.2047C71.5996 21.0721 72.3293 20.399 71.6041 20.8738C71.4494 20.975 70.8728 21.4965 71.2843 21.0372C71.3103 21.0084 71.6954 20.5985 71.4033 20.801C71.3665 20.8265 71.1944 20.9738 71.1761 20.9816C71.057 21.0316 71.1769 20.8943 71.0832 20.9176C70.9894 20.941 70.8578 20.9855 70.8839 20.8979C70.8994 20.8453 71.1946 20.5414 71.2636 20.4632C71.463 20.2386 71.0645 20.5235 71.3215 20.2695C71.5797 20.0142 72.0293 19.6936 72.1633 19.4904C71.7154 19.872 71.2536 20.2613 70.8021 20.6439C70.7227 20.5197 70.7727 20.286 70.6564 20.1903C70.6416 20.1788 70.4137 20.3991 70.3915 20.392C70.299 20.3613 70.4229 20.1593 70.298 20.1514C70.2005 20.1462 69.8975 20.307 69.7868 20.3072C70.2716 19.8379 70.0293 19.9057 70.0265 19.807C70.0253 19.7727 70.1638 19.658 70.1963 19.6056C70.3157 19.4106 69.8826 19.82 69.7982 19.8651C69.437 20.0567 70.4632 19.1844 70.3739 19.1297C70.3696 19.1267 69.7771 19.5372 69.7368 19.5587C69.4762 19.7013 69.9226 19.3913 69.9404 19.3299C69.9731 19.2177 70.0762 19.0735 69.8653 19.1484C69.8032 19.171 69.4234 19.4139 69.6627 19.16C69.6941 19.1267 69.8794 18.9785 69.8872 18.9661C70.0132 18.7546 69.4355 19.2258 69.2091 19.348C68.9827 19.4699 69.3342 19.0863 69.44 18.9812C69.7131 18.7087 69.5864 18.9014 69.6171 18.8793C69.9806 18.6161 69.8866 18.6228 69.8905 18.5674C70.4548 18.1027 70.3856 18.0868 69.8921 18.5117C69.8383 18.5582 69.9113 18.54 69.8905 18.5674C69.3107 18.9912 69.1977 18.9976 69.6764 18.5231C69.9009 18.3009 70.2061 18.0961 70.0404 18.1034C69.9654 18.1063 69.5825 18.4336 69.4501 18.4876C69.1474 18.61 69.4423 18.2257 69.3261 18.1971C69.2839 18.1867 69.0872 18.3825 69.0508 18.3811C68.9533 18.3776 69.0827 18.2071 68.9602 18.2217C68.9489 18.2233 68.729 18.4105 68.714 18.3971C68.596 18.2987 68.6638 18.0828 68.5739 17.9542C68.5309 17.893 68.3217 17.8781 68.301 17.7958C68.263 17.6534 68.5057 17.2732 68.3558 17.2385C68.259 17.2151 68.0336 17.3958 67.8543 17.4829C67.5065 17.6512 67.9992 17.1651 68.0779 17.0933C68.0804 17.0908 68.1736 17.1052 68.2749 16.9917C68.516 16.798 68.0795 17.0932 68.0779 17.0933C68.1283 17.0462 68.1082 16.9028 68.0482 16.9128C68.0154 16.9184 67.795 17.0803 67.7821 17.0802C67.7507 17.0796 67.7209 17.0778 67.6926 17.0749C67.4506 17.0517 67.3251 16.9446 67.3328 16.75C67.3356 16.7444 67.5924 16.5784 67.596 16.5673C67.6532 16.408 67.3067 16.5622 67.0749 16.6142C66.8434 16.6662 66.8692 16.57 67.282 16.242C67.1925 16.2259 67.3385 16.0247 67.4293 15.9059C67.5201 15.787 67.0163 16.1039 67.0039 16.1065C66.6108 16.1918 66.8542 15.9402 66.821 15.7895C66.8065 15.718 66.6608 15.6496 66.5663 15.6218C66.4908 15.6006 66.5901 15.4965 66.486 15.4986C66.4721 15.4988 66.2517 15.6462 66.2419 15.6498C65.9415 15.7677 66.5053 15.4472 66.5966 15.3751C66.9288 15.113 67.1042 14.971 66.8963 15.0119C66.8486 15.0213 66.031 15.4731 65.9676 15.4746C65.8867 15.4758 66.1785 15.3119 66.0866 15.3177C66.079 15.3181 65.9045 15.4281 65.898 15.4005C65.8654 15.2737 65.8953 15.0947 65.8099 14.9964C65.7989 14.9825 65.5329 15.1744 65.5124 15.1572C65.4162 15.0757 65.3582 14.9594 65.4274 14.7803C65.4454 14.7358 65.6495 14.6302 65.704 14.5892C66.034 14.3403 65.4976 14.6099 65.4832 14.6084C65.1279 14.5805 65.5036 14.1594 65.1728 14.115C65.1539 14.1131 64.5624 14.3758 65.0087 14.0523C65.0383 14.0307 65.4954 13.7005 65.1505 13.8742C65.129 13.8851 64.8959 14.0587 64.8986 14.0071C64.9012 13.9555 64.7009 13.9996 64.9402 13.7822C65.0156 13.7136 65.4686 13.3796 65.06 13.5698C65.0316 13.5832 64.1292 14.0476 64.7049 13.6522C64.7997 13.5872 65.4284 13.1998 65.0728 13.3453C65.004 13.3737 64.8764 13.4803 64.7718 13.5071C64.6109 13.5488 64.743 13.3872 64.4318 13.5102C64.3768 13.5321 63.9285 13.7608 64.231 13.5273C64.2783 13.4907 64.4927 13.3684 64.5057 13.3374C64.5687 13.1891 64.3781 13.1963 64.4725 13.0267C64.5055 12.9668 64.8509 12.7674 64.9225 12.681C64.9942 12.5947 65.0433 12.4807 64.8705 12.5484C64.6976 12.6162 64.1833 12.9909 64.1118 12.9734C63.8014 12.8976 63.9915 12.5053 63.9114 12.2838C63.8996 12.251 63.725 12.399 63.6941 12.3599C63.579 12.2151 63.2295 12.0753 63.5411 11.6748C63.7899 11.3528 64.1234 11.3196 64.1986 11.1503C64.2338 11.0685 63.5954 11.4432 63.57 11.4473C63.3136 11.4907 63.5398 11.2428 63.4012 11.2193C63.3726 11.2146 63.1383 11.4019 63.1167 11.3962C63.0409 11.3782 63.1153 11.2515 63.0633 11.2202C63.0394 11.2065 62.8553 11.3421 62.8566 11.3134C62.8575 11.2461 62.9083 11.1516 63.0515 10.9836C63.0645 10.9683 63.3152 10.8299 63.3 10.7905C63.2749 10.7273 63.398 10.5366 63.1767 10.6034C63.1103 10.6237 62.6877 10.9308 62.951 10.6796C63.006 10.6271 63.5197 10.2669 63.0493 10.5419C62.9706 10.5868 62.3279 10.947 62.6797 10.6303C62.7723 10.5469 63.1656 10.2156 63.0847 10.2421C63.0722 10.2469 62.856 10.4263 62.8209 10.4251C62.7591 10.4212 62.7227 10.3976 62.6857 10.3742L62.8308 10.5513C62.7914 10.5287 62.7516 10.5064 62.6916 10.503C62.658 10.5015 62.4644 10.7206 62.4214 10.7123C62.3028 10.6895 62.2793 10.552 62.2858 10.423C62.2887 10.375 62.4836 10.2322 62.5015 10.2129C62.7927 9.89986 62.3478 10.2644 62.3139 10.2768C62.1084 10.3481 62.2672 10.1207 62.163 10.1115C62.1348 10.1085 61.9408 10.3026 61.9198 10.3158C61.7131 10.4429 62.101 10.1384 62.1231 10.0817C62.1857 9.92151 62.1141 9.87481 62.0342 9.83838C62.005 9.82569 61.7906 10.0624 61.7671 10.0486C61.6231 9.97041 61.5428 9.83608 61.572 9.60725C61.5779 9.56378 61.7713 9.41282 61.8088 9.37095C62.0713 9.07842 61.6362 9.3924 61.5895 9.41651C61.3762 9.52657 61.5206 9.36364 61.4544 9.35079C61.1273 9.28957 61.0132 8.95186 60.9083 8.70657C60.7727 8.39016 60.7704 8.04444 60.5152 7.85823C60.4993 7.84634 60.2741 8.08216 60.2574 8.07478C60.049 7.9656 59.9969 7.72321 59.7767 7.62567C59.7592 7.61749 59.5517 7.84729 59.5162 7.84131C59.4418 7.83063 59.4037 7.7655 59.4334 7.65328C59.4478 7.59925 59.6678 7.44673 59.6783 7.39604C59.7032 7.27759 59.6688 7.20911 59.5854 7.19273C59.5494 7.18625 59.3503 7.43507 59.3215 7.40984C59.1141 7.2358 58.8998 7.08906 59.0089 6.61193C59.0165 6.57928 59.4686 6.12407 59.3529 6.18106C59.2223 6.30208 59.0712 6.44704 58.933 6.57774C58.5927 6.37078 58.4884 5.9433 58.2448 5.64564C58.2341 5.63278 58.0115 5.8912 57.9897 5.86761C57.8645 5.7328 57.6794 5.67921 57.7862 5.30752C57.797 5.2715 58.2274 4.85638 58.1261 4.88276C58.1071 4.88706 57.9918 4.88435 57.8856 4.96167C57.8697 4.97353 57.6826 5.181 57.6586 5.16854C57.5205 5.09019 57.4558 4.936 57.4666 4.70713C57.4695 4.67053 57.6962 4.47672 57.7 4.44882C57.7212 4.24811 57.4684 4.31672 57.5707 4.03956C57.6426 3.85602 58.0175 3.5041 58.3413 3.11359C58.3888 3.06033 58.3547 3.01119 58.5609 2.80133C59.0752 2.2695 59.6568 1.70539 60.2027 1.13633C60.3148 1.00836 60.1715 1.1239 60.467 0.838896C60.4843 0.817472 60.6066 0.746613 60.7142 0.657082C60.7876 0.594182 60.9859 0.369635 61.0838 0.293046C61.1801 0.214963 61.0183 0.407465 61.1415 0.325385C61.2637 0.239806 61.4905 -0.0144403 61.5636 0.000638008ZM67.8355 15.3744C68.0512 15.1813 67.166 15.7402 67.4041 15.6475C67.4167 15.6423 67.825 15.3839 67.8355 15.3744ZM71.3722 19.7719C71.6838 19.4261 71.1421 19.8374 70.8989 20.1015C70.656 20.3654 71.2778 19.8769 71.3722 19.7719ZM72.0275 20.0176C72.259 19.7283 71.1252 20.6866 71.4007 20.5469C71.4164 20.5391 72.014 20.0344 72.0275 20.0176ZM58.5858 3.15101C58.5949 3.14044 58.5784 3.10537 58.5684 3.11482C58.3223 3.33926 58.3551 3.4088 58.5858 3.15101ZM72.6997 20.2407C72.8391 20.0945 72.6222 20.1972 72.4489 20.3789C72.3094 20.525 72.5261 20.4223 72.6997 20.2407ZM67.5213 12.7655C67.5342 12.7567 67.5323 12.727 67.4577 12.7739C67.2173 12.9252 67.3046 12.9139 67.5213 12.7655ZM73.368 21.0207C73.3173 20.8692 74.2066 20.0196 74.2069 20.2392C74.2066 20.2786 73.8619 20.4347 73.8005 20.5345C73.6883 20.7157 74.3169 20.2687 74.0416 20.5846C73.9907 20.6418 73.3686 21.0308 73.3665 21.0216C73.367 21.0213 73.3675 21.021 73.368 21.0207ZM68.8797 14.6735C68.8909 14.6652 68.8823 14.6276 68.8703 14.6342C68.5797 14.7967 68.597 14.8731 68.8797 14.6735ZM67.2542 11.1206C67.278 11.103 67.2556 11.0166 67.2312 11.0289C66.7495 11.2843 66.7928 11.4589 67.2542 11.1206ZM70.8802 16.2313C71.1711 16.062 71.2294 16.0741 70.9131 16.3518C70.9077 16.3077 70.887 16.2748 70.8802 16.2313Z" fill="#735A47"/>
</svg>
