<svg width="28" height="30" viewBox="0 0 92 98" fill="none" xmlns="http://www.w3.org/2000/svg">
<path d="M41.7392 85.4253C23.9762 86.302 10.8705 47.8004 6.53809 28.4401H31.9912C57.4443 28.4401 78.0234 45.974 82.8974 55.8368C87.7714 65.6997 63.943 84.3295 41.7392 85.4253Z" fill="#C9B8AA"/>
<path d="M42.438 59.2842C42.1352 59.2198 41.7972 59.1488 41.4355 59.0776C41.7072 59.1439 41.9617 59.0551 41.9401 59.0404C41.9344 59.0217 41.7618 59.0973 41.603 59.2205C41.5193 59.2677 41.4235 59.3438 41.3213 59.4699C41.1896 59.6467 41.0674 59.4685 40.9633 59.6276C40.7577 59.9689 40.7477 60.4517 40.6104 60.9944C40.5644 61.1791 40.292 60.9168 40.2511 61.1175C40.1277 61.753 40.129 62.4399 40.1691 63.1523C40.181 63.3716 40.2338 63.58 40.3527 63.8598C40.7767 64.9113 42.47 66.1541 44.2377 66.9347C44.747 67.2997 46.8137 66.9532 48.5107 66.2925C50.2865 65.6409 52.0989 64.7734 53.9284 63.8755C54.5387 63.5779 55.1013 63.2263 55.6056 62.8142C56.9373 61.785 58.1513 59.9835 58.6119 57.9204C58.6635 57.7018 58.7039 57.4859 58.7334 57.2711C58.7653 57.0264 58.4842 57.1248 58.4718 57.0753C58.2642 56.3218 58.7405 56.6346 58.8602 56.161C59.3228 54.279 58.9095 51.9886 58.1165 50.1683C58.0891 50.104 58.0624 50.0517 58.0367 50.0094C57.7504 49.5567 57.6043 50.2899 57.5648 49.4991C57.56 49.4384 57.8944 49.524 57.8321 49.3039C57.6957 48.8013 57.2016 47.9514 57.0123 47.6003C56.6523 46.9177 56.5766 46.8112 56.1525 46.2167C55.5712 45.4098 54.8655 44.4221 54.0134 43.7596C53.8323 43.6205 53.8741 44.0272 53.572 43.8313C53.3713 43.7013 52.9854 43.3919 52.6761 43.1453C52.5566 43.0458 52.4478 42.9593 52.3854 42.8978C52.1961 42.7158 52.3906 42.5735 52.3733 42.5063C52.1995 41.9052 51.0013 42.1683 50.8926 42.1802C48.5396 41.9802 46.1348 42.09 43.598 42.6667C43.2536 42.7485 42.908 42.8384 42.5576 42.9355C41.0004 43.3645 39.4899 44.0264 38.1695 44.7013C36.2567 45.6825 34.6725 46.6649 33.1482 48.155C32.9888 48.3126 33.4059 48.3675 33.2146 48.5592C31.1882 50.6022 29.4777 52.9609 27.8076 55.4332C27.6399 55.6818 27.5789 55.2027 27.3959 55.444C26.2719 56.911 24.465 59.3563 25.1631 60.8884C24.5979 62.0064 23.9427 63.3879 23.2623 64.3348C23.2595 64.3384 23.2567 64.342 23.2539 64.3456C22.881 64.8542 22.7796 64.1783 22.6687 64.971C22.6512 65.1497 22.9755 65.0037 22.935 65.2576C22.7703 66.3102 22.7038 67.554 23.0501 68.6515C23.121 68.8737 23.3536 68.7641 23.4095 68.8187C23.8564 69.2583 23.5398 70.2869 23.5723 70.5076C23.7715 72.1041 24.4226 73.1537 25.1543 74.4768C25.328 74.7852 25.4094 74.2578 25.5869 74.5462C26.5029 76.0336 27.5302 77.5475 28.4977 79.008C28.7134 79.3337 28.2687 79.23 28.361 79.395C28.7771 80.1214 29.3068 79.9197 29.7295 80.5913C29.8202 80.7326 29.5756 80.8206 29.5753 80.8611C29.5734 81.4983 30.2958 81.4144 30.3866 81.4954C31.5552 82.5156 31.8064 83.6565 32.9603 84.6369C33.098 84.7517 33.0164 84.2527 33.3895 84.587C33.8335 84.9826 34.2844 85.3776 34.7372 85.7661C36.6789 87.4639 39.2145 88.421 41.8422 88.7447C42.3413 88.8056 41.9748 89.0198 42.004 89.0498C42.5112 89.5156 42.8655 88.9149 43.0262 88.8907C44.3047 88.7139 45.5992 89.053 46.3664 88.2097C51.8938 87.5177 57.0248 84.8906 62.4275 83.1036C62.4963 83.0796 62.502 83.4004 62.6391 83.3514C64.2822 82.7637 63.7873 82.4902 64.5807 81.4923C64.7825 81.2403 65.8639 81.4633 65.9574 81.4722C66.2931 81.5107 66.2188 82.0324 66.3201 82.0221C66.4657 82.0049 66.5631 81.9525 66.6296 81.8754C66.9418 81.5068 66.549 80.6178 67.2452 80.213C67.2736 80.1991 67.2952 80.4948 67.3813 80.4745C67.6514 80.411 67.8168 80.1832 68.0812 80.1187C68.6798 79.971 69.2945 80.4076 69.7734 79.5037C69.8276 79.3865 69.1895 78.8723 69.8796 78.319C70.1668 78.1079 71.2634 76.9775 71.5821 76.6625C71.9113 76.3595 71.9143 76.7615 71.9433 76.7454C72.9897 76.0268 72.8071 76.4689 73.6034 76.2797C74.3991 76.0658 73.2966 75.4904 73.3293 75.2078C73.3649 74.9266 74.0961 74.3336 74.298 74.1881C74.5011 74.0483 74.4968 74.3764 74.6504 74.2335C75.652 73.2666 74.4203 73.4235 74.465 72.9539C74.5437 71.8589 75.697 71.5655 76.1654 70.724C76.2892 70.4996 76.0166 70.608 76.088 70.3927C76.3672 69.5417 76.8308 69.1353 76.9223 68.0823C76.9395 67.9075 76.6763 66.9657 77.2099 66.5749C77.2869 66.5189 77.443 66.7911 77.6006 66.437C77.8379 65.909 78.1517 64.9164 78.2173 64.2957C78.266 63.8385 77.7854 64.2628 78.025 63.7321C78.1307 63.4953 78.2421 64.0038 78.4225 63.5527C78.6058 63.1028 78.8277 61.8988 78.8941 61.4368C78.9629 60.9774 78.6412 61.1825 78.6287 61.1423C78.5593 60.9038 78.5548 60.0061 78.5637 59.9306C79.0542 56.048 79.6473 52.3734 79.1008 48.5527C79.0565 48.2588 78.781 48.4885 78.7712 48.4441C78.533 47.4724 79.3514 48.0966 79.5613 47.4691C79.5686 47.4458 79.5751 47.4209 79.5806 47.3941C78.9922 47.5828 79.0565 47.1487 78.8384 46.4694C78.7298 46.1424 78.5431 46.3798 78.5127 46.3544C78.053 45.9649 78.3926 45.5209 78.4539 45.4C78.6828 44.9722 78.1696 44.7631 78.3018 44.4698C78.427 44.1675 78.9523 44.5451 78.6753 43.8904C78.3988 43.7987 78.0796 44.4862 77.7903 44.0544C76.8052 42.4256 74.8186 39.4172 73.5889 38.3403C72.4272 37.2493 71.979 36.976 71.286 36.3363C71.1051 36.1717 70.9507 36.0437 70.8234 35.9482C70.0713 35.3976 70.1323 35.849 69.318 35.4964C68.3584 35.1039 69.3226 34.4982 69.3159 34.2286C69.3052 33.9596 69.042 34.0667 68.9453 33.8662C68.8471 33.6653 69.2747 33.7434 68.917 33.4777C68.5569 33.2042 67.2954 32.9764 67.0543 33.1207C66.5396 33.4152 66.7831 34.1059 65.8487 33.4504C65.7945 33.4127 66.1027 33.2575 65.8886 33.1256C64.1711 32.0824 62.2048 31.3428 60.3282 30.5805C60.0693 30.4751 60.3953 30.2571 60.2447 30.1925C58.6696 29.5315 59.1101 30.1947 58.076 30.5037C58.4656 29.8276 58.0973 29.2413 56.8324 28.9375C56.079 28.7598 56.1348 29.1123 55.5976 29.232C55.4359 29.268 54.9498 28.9341 54.8217 29.0666C54.4011 29.4996 54.7917 30.1514 53.5493 29.6795C53.495 29.6583 53.7263 29.4198 53.5347 29.3662C52.2912 29.0236 52.0456 29.5187 50.6693 29.3641C49.5929 29.2431 47.7168 28.6632 46.4867 28.4722C46.6116 27.631 45.4118 27.6923 44.8788 28.2278C44.0778 28.1216 43.2061 28.0738 42.4348 27.9271C42.169 27.8769 42.3658 27.6469 42.3342 27.6176C41.8488 27.1586 41.4512 27.6988 41.2761 27.7075C39.3739 27.778 37.8587 27.2525 36.0316 27.5788C35.9664 27.5907 35.832 28.1738 35.3713 27.7198C35.3415 27.6886 35.9512 27.4501 35.103 27.3875C34.2576 27.3248 32.6596 26.9391 31.4732 27.1683C31.1815 27.223 30.4413 27.6747 29.8769 27.2808C29.8007 27.2273 29.8919 27.0613 29.7827 26.9633C29.4299 26.651 29.2119 27.2399 28.8063 26.7196C28.4014 26.1993 27.5308 25.7913 26.3213 26.1016C26.2831 26.1105 25.9848 26.5735 25.6139 26.5538C25.1983 26.5317 24.6664 26.4648 24.1793 26.419C23.9619 26.3985 23.735 26.3802 23.5458 26.3726C23.2468 26.3605 23.4242 26.6623 23.372 26.6652C21.3429 26.7289 19.9278 26.3537 17.7845 26.0951C17.3904 26.0467 16.2321 26.3704 15.4875 26.0106C14.6673 25.6189 15.6172 24.221 13.645 24.4702C12.8394 24.5744 11.8117 26.3578 10.4216 25.4145C9.14198 25.5341 7.90821 25.5262 6.66635 25.6974C5.95521 25.8045 5.23962 25.9623 4.57682 26.3664C3.90873 26.7452 3.39221 27.5744 3.47388 28.3675C3.47621 28.5182 4.00051 28.8676 4.04495 29.1147C4.10763 29.5035 3.95166 29.7926 4.03266 30.0873C4.14383 30.486 4.30179 30.8568 4.47175 31.2161C4.85688 31.9499 5.27164 32.6461 5.59306 33.4176C5.7733 33.8506 5.48196 33.8006 5.69402 34.317C5.90479 34.8328 6.35138 35.0466 6.50162 35.8054C6.61363 36.3794 6.21856 37.1583 6.42772 37.8847C7.045 37.6673 7.22845 38.1531 7.72469 38.9532C7.82021 39.1068 7.96357 38.8467 8.01975 38.9152C8.25337 39.1933 8.19085 39.558 8.42552 39.817C8.4823 39.8803 8.69263 39.8049 8.75089 39.8525C9.25513 40.2544 9.09791 41.285 9.06791 41.4602C8.95944 42.1354 9.32623 42.2994 9.35595 42.7756C9.38454 43.2503 9.00316 42.6599 9.10555 43.19C9.19004 43.6297 9.31993 44.1073 9.46676 44.5915L9.47132 44.6039C9.72397 45.3188 10.032 46.0367 10.2891 46.6611C10.4614 47.0751 10.6167 46.6769 10.6477 46.7334C11.0787 47.556 11.1658 48.5439 11.9165 48.7732C10.7721 49.9823 12.2774 49.2244 12.5382 50.5567C12.5581 50.6615 11.9505 51.0816 11.6885 50.7589C11.4268 50.4364 11.3856 49.7879 11.0081 49.3453C10.9194 49.2421 9.99051 48.8202 9.9117 48.7418C9.29078 48.1235 10.2437 47.5874 10.2816 47.5253C10.6813 46.8281 9.64791 46.2612 9.50773 46.0519C9.2326 45.6462 9.03723 45.239 8.86665 44.8412L8.85199 44.8012C8.65238 44.2718 8.48661 43.7657 8.22225 43.3004C7.92031 42.7674 7.23058 42.9513 7.09185 42.5018C6.62646 41.011 7.35798 40.1398 6.01974 39.0764C5.73223 38.8491 5.12882 39.4273 5.27589 38.1539C5.28609 38.0749 5.48619 37.0839 4.97147 36.772C4.90684 36.7331 4.69869 36.8223 4.65016 36.7558C4.32878 36.3089 4.35438 35.9089 4.042 35.4065C3.72958 34.9044 3.32712 34.3152 3.12078 33.6762C2.99642 33.2911 3.16252 32.6451 3.17401 32.4254C3.18673 32.2202 3.12015 32.048 3.03093 31.8917L3.00534 31.8343C2.83167 31.4978 2.5613 31.1965 2.69914 30.8699C2.91544 30.3914 3.65824 30.8812 3.58487 29.9098C3.01177 30.0477 2.40679 30.1313 1.8174 30.2199C1.66481 29.6352 1.53458 28.9531 1.62084 28.1133C1.69205 27.2827 2.1307 26.2922 2.77082 25.6792C4.07508 24.4647 5.30362 24.3096 6.36951 24.0785C6.52337 24.0503 6.68122 24.0238 6.8389 23.9991C7.11543 23.9565 6.78556 23.682 7.08872 23.6298C8.36441 23.4258 9.40674 23.6275 10.6191 23.5333C11.5556 23.4621 12.5852 23.1554 13.5516 23.1118C14.1121 23.8075 15.5337 23.6535 16.55 23.7813C16.9058 23.8253 16.87 24.0033 17.1196 24.0784C18.0593 24.3582 17.6521 23.735 17.9203 23.6592C19.0692 23.3369 19.0707 24.6884 20.3865 24.7453C20.4552 24.7489 21.3504 24.0893 21.4702 24.0519C22.2232 23.8077 21.576 24.3093 22.0348 24.391C22.8166 24.5291 23.3761 24.7181 24.2422 24.5952C24.3012 24.587 24.3617 24.5774 24.424 24.5664C24.7113 24.514 25.4357 24.0905 25.9851 24.4547C26.0578 24.5024 26.009 24.7382 26.0683 24.7541C27.1474 25.021 27.202 24.2767 27.8298 24.0446C28.4647 23.8126 29.4035 24.3593 29.5965 24.5145C30.0974 24.9158 29.197 24.6649 29.1691 24.7017C28.8291 25.1387 29.5304 25.085 30.0693 25.1419C30.1199 25.8751 30.8681 25.8581 30.621 25.1979C30.5925 25.1257 30.1747 25.179 30.0693 25.1419C30.558 24.4414 31.3992 24.3795 32.2772 25.0852C32.6903 25.4164 32.2761 25.7649 33.5733 25.6858C34.1627 25.651 33.9579 25.138 34.4852 25.0246C35.6854 24.7658 37.2088 25.316 38.4368 25.3187C38.8831 25.3196 38.467 25.0175 38.7731 25.0089C39.5883 24.9858 40.2837 25.2411 41.1052 25.197C41.1796 25.1927 41.0216 24.8914 41.2746 24.907C43.1957 25.022 44.8505 25.359 46.8525 25.5938C47.8179 25.7047 49.5726 25.7735 50.5717 25.9586C52.3073 26.2685 54.3626 27.0677 55.8514 27.288C56.8284 27.4342 56.6795 27.1087 57.1369 27.0114C58.0305 26.8229 59.2741 27.8538 59.4316 28.0099C59.4368 28.0137 58.593 27.8597 58.9958 28.1198C59.1711 28.4859 59.4215 28.0086 59.4316 28.0099C59.5383 28.1036 61.1585 28.6416 61.4949 28.6977C61.6791 28.7244 61.6639 28.4329 61.7587 28.452C64.0219 28.918 66.2597 29.7154 68.3391 30.9324C68.3741 30.9566 68.1775 31.1991 68.2607 31.2526C69.4146 32.011 70.364 32.1459 71.4633 32.6103C71.9826 32.8333 72.4164 33.0979 72.7478 33.4022C73.09 33.7212 73.3244 34.0926 73.4274 34.5261C74.1296 34.9867 74.9277 35.9549 75.355 36.5394C75.7814 37.12 76.2615 36.7663 76.3174 36.8018C78.0104 37.9495 78.5826 39.1093 79.6834 40.9748C80.2222 41.8574 81.1649 43.7301 81.518 44.8324C81.8167 45.6944 81.7904 46.2619 82.0015 47.0661C82.0293 47.1769 82.2755 47.0259 82.2905 47.059C82.2949 47.0678 82.2992 47.0765 82.3033 47.085C82.7048 47.8557 82.0197 47.5436 81.9283 47.7289C81.5856 48.418 81.4066 48.8132 81.6787 49.8461C81.742 50.0917 82.7132 50.7429 82.7835 51.2087C82.872 51.794 82.5319 51.5774 82.6253 52.1922C82.6325 52.2437 82.8398 52.2347 82.8343 52.6117C82.8103 54.3735 82.6086 56.2752 82.457 58.0876C82.4352 58.3358 82.7919 58.0481 82.7648 58.4094C82.6373 60.1001 82.3496 61.9491 81.8692 63.5447C81.7497 63.9372 81.5764 63.64 81.4921 63.7129C80.9819 64.1563 81.3931 65.0295 81.3727 65.1598C80.9224 68.1955 79.679 70.267 78.554 73.2276C78.5012 73.385 78.4512 74.8924 77.6608 75.1495C77.6065 75.1716 76.832 75.3912 76.8786 76.0385C76.8805 76.0795 77.3279 75.9157 76.9516 76.4536C76.5787 76.9854 76.124 77.9811 75.3037 78.4979C75.0413 78.6667 74.202 78.8191 73.9539 79.7453C73.958 79.7995 73.7171 81.4968 72.8672 81.3119C72.7271 81.2784 72.31 80.686 71.7743 81.6343C71.6677 81.8166 72.0543 81.7151 71.7093 82.127C71.1737 82.7615 70.1894 83.2216 69.4861 84.0168C69.3696 84.1559 68.945 84.9768 68.2156 84.9097C68.1275 84.9012 68.1414 84.7145 68.0074 84.6901C67.9743 84.6813 67.9319 84.684 67.876 84.7047C66.6526 85.1557 65.4942 85.8955 64.2224 86.301C63.7704 86.4454 63.82 85.9831 63.3317 86.0914C62.8461 86.1989 61.9039 86.5142 61.5133 86.8866C61.1166 87.2619 61.8895 87.615 61.2008 87.9739C58.2009 89.5268 54.9141 90.4327 51.5565 91.3381C51.056 91.4702 51.5364 91.5748 50.7935 91.7802C48.13 92.5956 42.9441 93.5065 40.229 92.5452C38.1439 91.8323 40.8643 91.9733 39.2905 91.5479C38.5587 91.3381 37.5327 91.8051 37.3253 91.7611C35.3873 91.3773 34.2706 90.4048 32.815 89.4391C32.5145 89.2329 32.6138 89.69 32.3571 89.5061C32.1802 89.3784 32.0082 89.2389 31.8412 89.091C31.2883 88.6003 30.7828 88.0298 30.2646 87.5664C29.9733 87.3059 29.8671 87.5205 29.6182 87.2557C29.0276 86.6276 28.5558 86.0123 28.137 85.2581C28.0993 85.1896 28.6573 85.3664 28.231 84.8992C27.5404 84.1412 26.859 83.0569 25.9419 82.2845C25.6699 82.0552 25.2509 82.3739 25.0612 81.5528C25.0224 81.3791 25.6399 81.1594 24.675 80.7899C24.5141 80.7347 23.0279 79.9511 23.0027 79.0591C22.9949 78.8269 23.1486 78.1322 22.8528 77.8158C22.8107 77.7734 22.6989 78.1217 22.4851 77.8347C21.7345 76.8132 21.102 75.6298 20.4533 74.449C20.28 74.1316 20.243 74.7468 19.9915 74.2602C19.3008 72.9286 18.726 71.0547 18.5446 69.4504C18.4798 68.8637 18.7853 69.2276 18.8035 69.1801C19.1161 68.4463 18.5185 68.1151 18.4662 67.8684C18.1747 66.393 18.5429 65.1842 18.8853 63.7471C18.9888 63.3467 18.6413 63.5437 18.6425 63.4573C18.7038 62.5421 18.9494 63.3246 19.1942 62.8336C19.2295 62.7664 19.2654 62.699 19.3018 62.6315C19.8273 61.7379 20.2611 60.6837 20.6599 59.7136C20.8139 59.3385 20.337 59.6241 20.4793 59.2881C21.3163 57.2977 22.345 55.2427 23.5687 53.4276C23.7999 53.0865 23.8856 53.4323 23.9763 53.3856C24.6022 53.0713 24.5863 52.0629 24.6511 51.863C24.9343 50.9645 25.3132 50.7798 25.7352 50.0854C27.7511 46.6571 31.5594 42.9898 35.084 41.1587C37.2734 39.963 39.3853 39.2525 41.4772 38.7727C43.5809 38.3104 45.6778 37.87 48.2627 37.7185C48.5838 37.704 48.2472 37.3889 48.5292 37.3738C50.63 37.287 53.1901 37.5601 55.4919 39.1951C56.7177 40.0782 57.8168 41.0876 58.8296 42.1875C59.0297 42.4082 58.9817 41.878 59.3126 42.2323C59.9929 42.9583 60.7187 44.0009 61.1457 44.9123C61.3532 45.3547 60.7954 44.931 61.004 45.3697C61.4593 46.3409 61.9249 47.3741 62.3482 48.3888C62.3695 48.4396 62.3909 48.4904 62.4122 48.5412C62.5944 48.979 62.6472 48.1954 62.8605 48.7798C64.003 51.8683 64.5358 55.6597 63.4158 59.1592C63.1355 60.0453 62.7763 60.9491 62.2967 61.8336C62.1403 62.117 61.4555 62.0938 61.2543 62.7304C61.3867 62.8595 61.5715 62.9579 61.7274 63.0693C60.5621 65.3449 58.4652 67.2918 56.2443 68.3703C53.1074 69.8381 50.2375 71.5779 45.7047 72.1705C45.3806 72.1927 45.9765 72.495 45.3303 72.5327C44.4001 72.5691 43.3024 72.5021 42.1296 72.0242C40.108 71.1604 37.9901 70.1013 36.3261 67.6884C36.1238 67.3523 36.6861 67.1977 36.0397 66.2931C35.8894 66.1683 35.158 64.5185 35.0247 64.0104C34.9981 63.943 34.7615 64.3447 34.6801 63.7086C34.6728 63.6381 34.6665 63.5673 34.6613 63.4961C34.5335 61.2065 34.4378 58.1882 36.7105 55.4396C37.0906 55.0255 36.9365 55.6699 37.2064 55.3901C37.2964 55.2997 37.3883 55.2112 37.4834 55.1238C38.5776 54.142 40.2997 52.8855 42.6193 53.3471C43.2729 53.4944 43.9164 53.6921 44.5163 53.9789C45.709 54.5811 45.0729 54.9093 45.4894 55.642C45.5416 55.7289 46.2785 56.1699 46.1362 56.4585C45.7417 57.0857 45.0622 57.5951 44.6953 58.3014C44.6506 58.3684 44.7368 58.4488 44.6163 58.3628C44.5617 58.3258 44.4551 58.1943 44.4047 58.1861C44.3458 58.1664 44.3799 58.3828 44.4076 58.563C44.418 58.5998 44.4812 58.7077 44.4088 58.7196C44.3478 58.7425 44.2132 58.7445 44.142 58.7864C44.0432 58.8435 43.9987 59.1569 43.8387 59.2138C43.6804 59.273 43.6315 58.9745 43.3131 59.0112C42.9912 59.0546 43.0174 59.4127 42.438 59.2842ZM77.132 39.2706C77.326 39.954 78.2108 39.3853 77.5512 38.9759C77.5181 38.9571 77.1208 39.2356 77.132 39.2706ZM4.73326 25.4035C5.78601 25.4552 6.20118 24.7224 5.462 24.5334C4.65084 24.3891 4.37011 25.4219 4.73326 25.4035ZM4.85698 34.0236C4.8074 33.0203 3.39551 33.5016 4.0748 34.2835C4.11371 34.3292 4.85982 34.082 4.85698 34.0236ZM42.6261 54.8648C42.6316 54.8786 43.1353 55.0116 43.1501 55.0029C43.5053 54.7458 42.4818 54.4743 42.6261 54.8648ZM8.2766 41.5199C8.36518 41.175 7.85428 40.4668 7.74677 40.894C7.66083 41.2371 8.1666 41.9469 8.2766 41.5199ZM76.6439 70.9052C76.6262 70.9079 76.4679 71.23 76.5508 71.2595C76.8207 71.3543 76.9502 70.8602 76.6439 70.9052ZM13.7211 54.5075C12.9071 52.5937 13.5041 50.9413 14.3146 53.0547C14.4619 53.4377 13.5926 52.4141 13.7083 52.9343C13.921 53.8859 14.8849 54.1413 14.9151 55.1984C14.9198 55.39 13.7651 54.6179 13.718 54.5049C13.719 54.5057 13.7201 54.5066 13.7211 54.5075ZM76.3954 40.3534C76.3936 40.3706 76.6881 40.7669 76.7046 40.7687C77.1367 40.7817 76.5333 39.9674 76.3954 40.3534ZM61.3522 83.9132C61.3138 83.8995 60.2652 84.3407 60.241 84.3799C59.917 85.1212 62.0515 84.2255 61.3522 83.9132ZM46.4699 28.4475C45.8996 28.7182 45.2634 28.6895 44.8812 28.2285C45.4084 28.3049 45.9407 28.3659 46.4699 28.4475Z" fill="#735A47"/>
</svg>
