<svg width="54" height="107" viewBox="0 0 54 107" fill="none" xmlns="http://www.w3.org/2000/svg">
<path d="M34.1222 69.8176C33.709 68.9827 33.2988 67.7335 33.0353 66.7563C32.9551 66.4573 33.1866 66.5296 33.1363 66.3142C33.0388 65.8957 32.7982 65.56 32.7164 65.1471C32.6886 65.0063 33.0276 65.0529 32.9919 64.9072C32.8015 64.1264 32.4248 63.4364 32.167 62.6786C31.7996 61.6034 31.4176 60.5411 31.0191 59.4718C30.0235 56.7954 28.9446 54.1244 27.8633 51.4214C27.3628 50.1718 26.9506 48.5706 26.2856 47.3478C26.2077 47.2053 26.0104 47.3974 25.9786 47.3778C25.486 47.066 26.0274 47.0036 25.963 46.6854C25.7103 45.4321 25.1701 44.145 24.5933 43.0813C24.3477 42.6301 24.0856 43.3066 24.1409 42.7183C24.1443 42.6776 24.4474 42.6865 24.4175 42.5459C24.349 42.2271 24.0599 41.6915 23.9807 41.4577C23.8287 41.0047 23.7943 40.9336 23.6153 40.5189C23.3733 39.9523 23.2032 39.2275 22.8798 38.6465C22.8102 38.5232 22.6283 38.8071 22.494 38.6206C22.3598 38.4339 22.1417 37.8789 22.1213 37.6682C22.101 37.4575 22.3375 37.447 22.3695 37.394C22.6424 36.9541 21.8238 36.5616 21.7747 36.4862C20.8956 35.1064 20.6457 33.7005 20.0347 32.3117C19.5697 31.2567 18.9732 30.1743 18.5462 29.1627C18.0394 27.9591 17.7368 26.8893 17.201 25.7302C17.1452 25.6087 16.9055 25.8845 16.8368 25.7364C16.1042 24.1578 15.4465 22.5619 14.9611 20.8883C14.9118 20.7181 15.2679 20.81 15.2345 20.6332C15.0271 19.5601 14.8886 17.8031 13.4757 17.7155C13.2403 17.048 12.9368 16.2166 12.9145 15.5211C12.9 15.0733 13.3491 15.3183 13.025 14.9058C12.9526 14.8133 12.7568 15.058 12.6675 14.9114C12.6333 14.8551 12.6004 14.7979 12.5686 14.7401C12.239 14.1335 12.0193 13.4615 11.6443 12.9118C11.5607 12.7913 11.3481 12.9245 11.2912 12.9047C10.8198 12.7199 11.1429 11.9503 11.1366 11.8234C11.0537 10.7935 10.6761 10.22 10.3355 9.36752C10.2598 9.17696 10.0431 9.52686 9.95945 9.34853C9.51981 8.39589 9.14395 7.37448 8.92201 6.33478C8.87407 6.10398 9.21358 6.20859 9.20475 6.09431C9.16602 5.59598 8.62584 5.67534 8.5812 5.17071C8.57268 5.06771 8.82117 5.04702 8.8409 5.02143C9.15435 4.63172 8.51292 4.55348 8.48083 4.48942C8.2591 4.04465 8.26491 3.61221 8.31546 3.16354C8.39049 2.69538 8.38221 2.29577 8.63646 1.47438C8.67411 1.3777 8.57579 1.40172 8.49439 1.38808C8.42051 1.37396 8.32646 1.31474 8.53337 0.983688C8.87531 0.4605 9.45881 0.200388 9.82542 0.114568C10.2117 0.0195015 10.5068 0.00901475 10.7803 0.00211941C12.3851 -0.0246315 13.983 0.204243 15.4527 0.565382C15.7467 0.638098 15.5063 0.842046 15.5219 0.872501C15.773 1.34983 16.0454 0.784553 16.1477 0.775023C16.9351 0.713235 17.581 1.3134 18.2046 0.691856C21.4094 1.43759 24.6485 1.67847 27.6839 2.90261C27.7227 2.9175 27.5958 3.19181 27.6733 3.22028C28.6075 3.56595 28.5059 3.08258 29.2474 2.65541C29.4329 2.54802 29.7966 3.30085 29.8312 3.35741C29.9555 3.56552 29.7119 3.96388 29.7583 4.00834C30.1459 4.36166 30.3367 2.92989 30.9242 3.03748C30.9422 3.04323 30.817 3.29025 30.8616 3.32528C31.0001 3.43497 31.1715 3.359 31.3049 3.47614C31.6099 3.7464 31.6095 4.459 32.2072 4.15086C32.2829 4.11039 32.3245 3.2871 32.8419 3.41716C33.0484 3.47026 33.9757 3.61504 34.2265 3.70997C34.4769 3.80539 34.2558 4.03592 34.2723 4.05026C34.9155 4.51001 34.6267 4.60862 34.8966 5.1755C35.1685 5.74009 35.264 4.51282 35.4285 4.40031C35.593 4.28839 36.062 4.65235 36.174 4.77031C36.2856 4.88849 36.1023 5.03016 36.2066 5.10327C36.9003 5.58155 36.6245 4.55016 36.8981 4.39392C37.5404 4.02206 37.8612 4.98541 38.3835 5.14466C38.5244 5.18752 38.434 4.96663 38.5645 4.9642C39.079 4.95644 39.3513 5.27671 39.9577 5.08533C39.9882 5.07572 40.0592 5.02273 40.15 4.96638C40.3576 4.84005 40.659 4.69436 40.8374 4.99192C40.8746 5.05389 40.7271 5.26678 40.9425 5.33975C41.258 5.44849 41.8424 5.55548 42.2094 5.52818C42.4808 5.50867 42.223 5.09455 42.5523 5.26006C42.6952 5.33516 42.3837 5.50635 42.6513 5.63011C42.9158 5.74445 43.6378 5.91824 43.9077 6.07424C44.175 6.21454 44.1798 5.89481 44.2096 5.88846C44.4143 5.84963 45.0542 6.26385 45.0783 6.33574C46.2599 8.19925 45.7144 9.65343 45.6869 11.1142C45.6295 11.8467 45.599 12.5713 45.6381 13.2998C45.6468 13.4707 45.9477 13.3627 45.9522 13.3888C46.0661 13.9745 45.2807 13.4998 45.0067 13.9001C45.6142 13.8546 45.4998 14.0865 45.5574 14.5137C45.5856 14.7174 45.8227 14.6118 45.8463 14.6309C46.1964 14.9396 45.7312 15.1374 45.6358 15.1888C45.2849 15.3787 45.6894 15.6021 45.4546 15.7302C45.2216 15.8581 44.888 15.5438 44.883 15.9403C45.0974 16.0565 45.6715 15.7759 45.7562 16.0789C46.0782 17.2037 45.5719 19.35 45.4951 20.2618C45.4187 21.1865 45.4482 21.4788 45.351 22.0036C45.1746 22.9479 45.6074 22.6271 45.777 23.235C45.946 23.847 44.9226 23.512 44.6968 23.59C44.4711 23.6659 44.6963 23.7673 44.5699 23.8673C44.4435 23.9669 44.3014 23.7348 44.2456 23.9784C44.1899 24.2234 44.5578 24.9005 44.7864 24.9996C45.271 25.2089 45.8016 24.9228 45.591 25.5785C45.5786 25.616 45.3119 25.4807 45.2781 25.6251C45.0181 26.7641 44.9481 27.9478 44.703 29.0778C44.669 29.2317 44.3738 29.077 44.3505 29.1663C44.1074 30.0873 44.6345 29.7917 45.1722 30.3468C44.4248 30.1856 43.9477 30.456 43.9018 31.1717C43.8739 31.6005 44.2074 31.5455 44.423 31.8349C44.4883 31.9172 44.2432 32.2199 44.3946 32.2848C44.8892 32.501 45.4738 32.2459 45.2016 32.9815C45.1888 33.0136 44.9184 32.892 44.8945 33.004C44.7382 33.7317 45.2638 33.822 45.2736 34.6383C45.2816 35.2738 44.8833 36.324 44.7766 37.0409C43.9312 36.9641 44.0752 37.6395 44.6382 37.9477C44.5794 38.3972 44.5716 38.9107 44.4553 39.3389C44.4154 39.4872 44.1786 39.3681 44.1506 39.3849C43.7115 39.6412 44.2628 39.8809 44.2768 39.9801C44.401 41.0896 43.8953 41.8989 44.219 42.9613C44.2308 42.9982 44.8124 43.1128 44.3583 43.3389C44.327 43.3538 44.0917 42.997 44.0258 43.4669C43.9571 43.9663 43.557 44.7994 43.7574 45.5131C43.8061 45.6822 44.2395 46.1398 43.8334 46.4192C43.7783 46.4563 43.6152 46.3918 43.515 46.4431C43.1955 46.6098 43.7752 46.7937 43.2457 46.9778C42.7152 47.1705 42.2877 47.5914 42.5561 48.3171C42.5638 48.3396 43.0148 48.5534 42.9831 48.7615C42.9327 49.0892 42.7783 49.5566 42.7388 49.9094C42.7203 50.077 43.0244 50.005 43.0262 50.0347C43.0541 51.1705 42.6909 51.9581 42.4215 53.1367C42.3696 53.3671 42.6854 54.0268 42.3115 54.4304C41.9042 54.8573 40.545 54.168 40.7364 55.2997C40.8136 55.7473 42.5468 56.5508 41.5015 57.2036C41.529 58.7481 40.8468 60.0919 41.0488 61.6694C41.0538 61.7066 41.1957 61.7969 41.3249 61.8938C41.4353 61.986 41.5349 62.0862 41.5237 62.1613C41.4874 62.4001 41.2359 62.5076 41.2017 62.6754C41.0514 63.3837 41.1764 64.0621 41.0619 64.7483C41.0188 65.0086 40.7852 64.8882 40.7337 65.1981C40.6823 65.5083 40.9789 65.7561 40.7715 66.1597C40.6137 66.4643 39.9162 66.7025 39.7874 67.1171C40.4348 67.2131 40.3856 67.5024 40.494 68.0408C40.5151 68.1442 40.7542 68.0651 40.7758 68.1155C40.8691 68.321 40.6602 68.4755 40.7652 68.6724C40.7903 68.7202 41.0119 68.7491 41.045 68.7897C41.3346 69.1358 40.7758 69.5815 40.6787 69.6588C40.3283 69.938 40.5542 70.1237 40.442 70.3467C40.436 70.3588 40.429 70.371 40.4209 70.3833C40.2617 70.6243 40.1427 70.2235 40.0299 70.5131C39.7962 71.1141 39.746 71.915 39.6711 72.5439C39.6426 72.795 39.9569 72.6539 39.9597 72.6905C39.9818 73.2168 39.6146 73.7118 40.1783 74.0566C38.6148 74.2701 40.2961 74.3838 39.9211 75.0964C39.8909 75.1525 39.1606 75.1605 39.0753 74.9256C38.9901 74.6903 39.2481 74.3705 39.1126 74.0424C39.0808 73.9653 38.4446 73.4746 38.4093 73.4124C38.1335 72.9258 39.2205 72.9698 39.2821 72.9521C39.9494 72.7455 39.2735 72.1542 39.2377 72.0117C39.0727 71.3627 39.2829 70.849 39.1776 70.3087C39.17 70.2686 39.1542 70.2315 39.1323 70.1969C38.9608 69.9275 38.4138 69.8098 38.4608 69.5734C38.6371 68.6886 39.6596 68.499 38.9078 67.5583C38.7476 67.3568 37.9544 67.4402 38.6397 66.8723C38.6829 66.8367 39.2963 66.4282 38.9791 66.1103C38.9391 66.0703 38.7142 66.0438 38.7009 65.996C38.6162 65.6758 38.8202 65.4949 38.7749 65.1524C38.7296 64.8103 38.6499 64.3969 38.7711 64.0292C38.8439 63.8066 39.297 63.5663 39.4124 63.4682C39.7439 63.1948 39.2963 62.8117 39.6755 62.662C40.0566 62.5103 40.5621 62.9471 40.8501 62.4667C40.2672 62.3844 39.6714 62.2766 39.0861 62.1838C39.1077 62.014 39.1331 61.843 39.1601 61.6766L39.1552 61.733C39.285 60.7338 39.5319 59.8022 39.6325 58.8459C39.6467 58.7064 39.3145 58.8083 39.3219 58.6567C39.356 58.0075 39.6533 57.4981 39.6537 56.8355C39.6523 56.3265 39.3982 55.7194 39.3845 55.1986C40.0966 54.9632 39.9743 54.1705 40.1114 53.6096C40.1583 53.4195 40.3348 53.4559 40.4115 53.3246C40.6969 52.8238 40.0741 52.9929 40.0006 52.8346C39.6861 52.1598 41.0271 52.2942 41.0894 51.5438C41.0929 51.5067 40.4397 50.9487 40.4036 50.8767C40.1663 50.4236 40.6601 50.8393 40.7454 50.583C40.9015 50.1104 41.1091 49.8247 40.9683 49.229C40.9272 49.0473 40.526 48.6279 40.9066 48.3491C40.9564 48.3128 41.1895 48.3629 41.2072 48.3311C41.5074 47.7469 40.7683 47.6442 40.5551 47.2787C40.3422 46.9124 40.9125 46.4286 41.072 46.3321C41.4846 46.0847 41.2112 46.5717 41.2468 46.5913C41.672 46.8266 41.64 46.409 41.708 46.1273C42.4395 46.1635 42.4396 45.745 41.7765 45.8265C41.704 45.8363 41.7475 46.0724 41.708 46.1273C41.0222 45.7945 40.9785 45.3348 41.6981 44.8854C42.035 44.6772 42.3767 44.9438 42.3149 44.2154C42.2871 43.8829 41.7736 43.96 41.6655 43.6563C41.42 42.95 41.9647 42.171 41.9536 41.4655C41.9485 41.2217 41.653 41.4324 41.64 41.2648C41.6047 40.8192 41.845 40.443 41.7782 39.9771C41.7718 39.9348 41.4759 40.0117 41.4842 39.8692C41.5385 38.8284 41.798 37.8966 41.8846 36.8063C41.928 36.261 41.8366 35.3089 41.9062 34.7547C42.0277 33.7702 42.5184 32.6617 42.4675 31.8059C42.4337 31.2766 42.1388 31.374 41.9558 31.1359C41.6011 30.6776 42.3266 29.9243 42.4379 29.8209C42.4416 29.8183 42.4837 30.2894 42.6453 30.0482C42.9615 29.9201 42.439 29.8262 42.4379 29.8209C42.5108 29.7422 42.6241 28.8496 42.5784 28.66C42.5534 28.5593 42.2776 28.6007 42.2697 28.5485C42.0898 27.2844 42.0764 26.0876 42.2585 24.8142C42.2649 24.7929 42.569 24.8383 42.5803 24.788C42.7462 24.0834 42.3909 23.6051 42.1922 22.9951C41.9938 22.3778 42.0847 21.9181 42.6216 21.5865C42.5714 21.1385 42.8251 20.4975 42.9779 20.1239C43.1307 19.7509 42.5375 19.6766 42.5267 19.6455C42.1813 18.6315 42.5387 18.0532 42.6199 16.9764C42.6592 16.4809 42.5967 15.4899 42.5436 14.9365C42.5006 14.5036 42.6458 14.2302 42.5645 13.8404C42.5536 13.7873 42.2876 13.8354 42.2777 13.8191C41.9694 13.3766 42.6129 13.5987 42.7304 13.5108C43.1573 13.1907 43.3853 12.9919 43.1974 12.4194C43.1544 12.2872 42.2283 11.8878 42.1776 11.6454C42.1134 11.3301 42.4459 11.4542 42.37 11.1223C42.3665 11.1064 42.3005 11.1003 42.2451 11.0623C42.2013 11.034 42.1642 10.987 42.1691 10.9046C42.2205 10.0697 42.3036 9.09567 42.1727 8.6381C42.1578 8.5835 41.8544 8.72055 41.8309 8.66089C41.774 8.50859 41.7698 8.68784 42.0573 8.94281C42.3564 9.1862 42.4976 9.11429 42.2988 8.99589C42.2075 8.93606 42.3165 8.72562 42.3072 8.65401C42.2223 8.21414 41.7866 8.758 41.7345 8.7637C41.1047 8.81779 40.4201 8.71881 39.7394 8.58053C38.9543 8.42006 38.1821 8.22634 37.2606 8.23978C37.1693 8.24284 36.3786 8.77797 36.1491 8.1875C36.1328 8.14814 35.9109 7.54649 35.5831 7.88527C35.5626 7.90643 35.7094 8.222 35.3814 8.14171C35.0539 8.06152 34.4877 8.16773 34.0843 7.77916C33.956 7.65661 33.7094 7.0475 33.2078 7.4162C33.1756 7.44267 32.3426 8.32627 32.2262 7.5973C32.2077 7.47738 32.3745 6.75743 31.8012 7.04072C31.6913 7.0958 31.8389 7.28925 31.5651 7.34512C31.1444 7.4314 30.6619 7.1434 30.1216 7.37862C30.0273 7.42057 29.579 7.84768 29.3631 7.4206C29.3292 7.35369 29.4594 7.12716 29.3134 7.07194C28.6204 6.80833 27.8424 6.8288 27.1504 6.52313C26.9052 6.41533 27.1109 6.04889 26.8644 5.89306C26.6194 5.73754 26.099 5.53325 25.7877 5.65901C25.4753 5.78465 25.6609 6.46691 25.2328 6.43663C23.3791 6.30645 21.6644 5.59957 19.892 5.23535C19.6279 5.18129 19.8083 5.44295 19.4178 5.38025C17.9773 5.14396 15.5112 4.99421 14.3617 4.40014C13.4282 3.91864 14.6891 3.74649 13.9505 3.51679C13.5933 3.40768 13.147 4.11465 13.0625 4.13214C12.2181 4.31013 11.6727 3.96265 10.9528 4.06623C10.8127 4.08786 10.9451 4.37031 10.8414 4.40021C10.8395 4.40103 10.8376 4.40166 10.8355 4.40208C10.7156 4.42397 10.6527 4.4402 10.9227 4.3461C11.0595 4.29271 11.3006 4.19339 11.5863 3.96497C11.8696 3.74322 12.1252 3.401 12.2545 3.13285C12.3652 2.90633 12.4334 2.84917 12.5074 2.79887C12.578 2.75177 12.6482 2.68172 12.6524 2.58051C12.657 2.34261 12.6024 2.3674 12.5582 2.43127C12.5104 2.50026 12.4553 2.63596 12.3852 2.80758C12.3729 2.84079 12.052 2.71646 12.0962 2.95195C12.1738 3.34882 12.1595 4.00785 12.5593 4.48736C12.6822 4.63846 13.1703 4.45508 12.9617 4.93669C12.9182 5.03627 12.2966 5.16701 12.9575 5.38739C13.0685 5.42951 14.0202 5.87135 13.7184 6.38719C13.6376 6.5206 13.2578 6.95524 13.4141 7.12793C13.4369 7.15019 13.6538 6.93728 13.7456 7.09244C14.0707 7.65559 14.3041 8.302 14.6375 8.87417C14.729 9.03141 14.8935 8.67127 15.0218 8.91008C15.3678 9.54932 15.657 10.4236 15.8558 11.1227C15.9268 11.3763 15.6347 11.3044 15.6181 11.3321C15.3466 11.7813 15.949 11.7286 16.021 11.8119C16.3574 12.2068 16.3967 12.6129 16.5415 13.0339C16.582 13.1533 16.6313 13.2725 16.7 13.3906C16.7815 13.532 16.9878 13.3181 17.023 13.3381C17.3753 13.5528 16.824 13.5167 16.8589 13.735C16.9614 14.3616 17.2362 14.9427 17.513 15.4945C17.6122 15.6904 17.8059 15.338 17.8917 15.5156C18.4129 16.5826 18.8719 17.716 19.1719 18.8443C19.2287 19.0589 18.9493 19.03 18.9163 19.0942C18.6841 19.5405 19.352 19.7384 19.4414 19.8163C19.8445 20.1608 19.7249 20.4279 19.9279 20.7921C20.9372 22.6034 21.8282 24.9963 22.5304 26.8183C23.4464 29.1911 24.0267 31.0909 25.0576 33.2858C25.1228 33.4254 25.3582 33.1522 25.4183 33.2709C26.1804 34.8096 26.7431 36.4047 27.5217 37.9408C27.5849 38.0669 27.7856 37.7568 27.8966 37.9549C28.1256 38.3588 28.3486 38.9074 28.447 39.3756C28.4956 39.604 28.1298 39.4299 28.1836 39.6576C28.3073 40.1853 28.5215 40.7265 28.7877 41.2088C28.9018 41.4141 29.0486 40.9641 29.1743 41.2408C30.0395 43.1296 30.911 44.9759 31.3815 47.0624C31.4139 47.2059 30.8751 47.574 31.1124 47.8084C31.2847 47.7581 31.4759 47.6727 31.6541 47.6055C32.9674 50.3404 33.9616 53.1594 35.1474 55.9657C35.1968 56.0825 35.4209 55.7461 35.5179 55.9711C35.7027 56.3994 35.9097 56.8517 36.0914 57.2682C36.479 58.157 36.8127 59.0108 37.0002 60.0154C37.0271 60.1615 36.4452 60.3217 36.7024 60.6906C36.7498 60.759 37.0718 61.3069 37.2614 61.4201C37.2884 61.4334 37.4981 61.2143 37.5883 61.4042C38.1049 62.5035 38.544 63.7 38.8551 64.8933C38.9026 65.0807 38.55 65.0064 38.5814 65.1411C38.8211 66.1332 39.4375 67.0386 39.5366 68.0824C39.6005 68.795 39.031 68.7295 38.6649 69.2362C38.6134 69.2947 38.7298 69.7734 38.4391 69.8741C37.7147 70.0241 36.896 70.0532 36.1325 70.2579C36.0538 70.2772 36.0411 70.2944 36.0159 70.0816C36.008 69.9825 35.9899 69.9875 35.9447 69.9937C35.9013 70.0076 35.8411 69.8954 35.7266 70.087C35.7071 70.1145 35.6833 70.346 35.6353 70.3567C35.5864 70.3879 35.5019 70.3343 35.4288 70.3338C35.3263 70.3264 35.0575 70.4723 34.9185 70.4375C34.7803 70.4062 34.9847 70.2231 34.7863 70.0963C34.5861 69.9727 34.2973 70.1699 34.1222 69.8176ZM43.6578 18.4722C43.9534 18.1352 42.9084 18.0548 43.1481 18.4348C43.161 18.4532 43.6433 18.4895 43.6578 18.4722ZM40.3015 60.0836C40.8136 59.6795 40.1788 59.2926 39.7851 59.5687C39.393 59.8393 40.1458 60.2121 40.3015 60.0836ZM40.1323 64.7804C40.557 64.2995 39.0928 64.0415 39.3234 64.6369C39.3363 64.6713 40.1076 64.8084 40.1323 64.7804ZM37.9755 67.7633C37.9652 67.7746 38.0567 68.0475 38.0705 68.0456C38.4361 68.0686 38.2532 67.5231 37.9755 67.7633ZM39.9342 69.4489C40.1528 69.3087 39.9791 68.8084 39.7068 68.9829C39.4877 69.1231 39.6619 69.6247 39.9342 69.4489ZM38.331 5.65313C38.3276 5.637 38.13 5.5965 38.1222 5.68439C38.098 5.96778 38.3871 5.92525 38.331 5.65313ZM39.1602 77.3378C39.3181 76.1765 40.6031 75.5812 40.3525 76.8355C40.3073 77.0628 40.0068 76.3064 39.8708 76.5888C39.6228 77.106 40.3588 77.5282 39.9001 78.0383C39.8162 78.1305 39.1484 77.4038 39.1587 77.3356C39.1592 77.3363 39.1597 77.3371 39.1602 77.3378ZM44.9204 18.3092C44.9344 18.3028 44.9554 18.0246 44.9418 18.0173C44.6139 17.8573 44.5715 18.4176 44.9204 18.3092ZM26.9006 3.0442C26.8906 3.01228 26.2628 2.86387 26.2375 2.8867C25.805 3.35717 27.0738 3.65874 26.9006 3.0442ZM44.7532 37.0503C45.0639 37.3793 45.0757 37.7422 44.6387 37.9464C44.6839 37.6528 44.71 37.3524 44.7532 37.0503Z" fill="#735A47"/>
<path d="M39.5336 97.6113C39.6052 97.5577 39.6633 97.7718 39.6772 97.9768C39.682 98.0413 39.5315 98.1526 39.5304 98.2045C39.5287 98.3057 39.642 98.2903 39.6342 98.4031C39.6315 98.4417 39.4032 98.6293 39.4055 98.6653C39.419 98.8603 39.575 98.9054 39.6466 99.0571C39.9779 99.7559 40.4812 100.33 41.0118 100.908C41.0258 100.931 41.0402 100.953 41.0555 100.975C41.1191 101.077 41.154 101.398 41.347 101.343C41.3684 101.336 41.4449 101.09 41.4551 101.071C41.6022 100.777 41.4194 101.265 41.4327 101.342C41.4841 101.646 41.6891 101.712 41.8622 101.628C41.9364 101.592 41.9122 101.075 41.9535 101.367C41.957 101.387 41.9183 101.659 41.9359 101.689C41.9768 101.758 42.0687 101.713 42.1048 101.735C42.1752 101.78 42.1882 101.777 42.2574 101.779C42.3509 101.783 42.4792 101.912 42.5823 101.839C42.6037 101.823 42.5456 101.547 42.575 101.495C42.6036 101.445 42.6962 101.457 42.7371 101.518C42.778 101.578 42.7975 101.799 42.8107 101.848C42.9268 102.263 42.9506 101.658 42.9581 101.642C43.1189 101.422 43.3203 101.518 43.5319 101.543C43.5973 101.553 43.6638 101.554 43.7241 101.534C43.9088 101.472 44.0616 101.291 44.2361 101.228C44.4442 101.154 44.6879 101.198 44.8701 101.061C44.8892 101.047 44.6981 100.776 44.72 100.759C44.9523 100.576 45.2039 100.446 45.5803 100.432C45.6185 100.43 45.7679 100.682 45.8178 100.693C46.1125 100.765 46.7669 100.947 45.9758 99.9548C46.1012 99.9035 46.2426 99.8325 46.5087 99.92C46.6809 99.9752 46.8619 100.245 46.8285 100.082C46.821 100.045 46.5975 99.8802 46.6009 99.8405C46.6145 99.6746 46.7769 99.6226 46.7477 99.431C46.7411 99.3918 46.5431 99.2426 46.5128 99.2091C46.2659 98.9394 46.7968 99.2291 46.8467 99.2349C47.2098 99.291 47.1856 99.1045 47.2818 98.9737C47.3045 98.9429 47.0021 98.7969 47.0132 98.7617C47.0573 98.6308 47.1329 98.5195 47.2556 98.4341C47.3002 98.4034 47.3514 98.3759 47.4097 98.352C47.4589 98.3323 47.6894 98.5017 47.7258 98.4988C47.8849 98.4813 47.4209 98.2132 47.5614 98.1933C47.5906 98.1885 47.802 98.3082 47.8272 98.3174C48.2241 98.4605 47.7157 98.1514 47.7092 98.135C47.6208 97.9101 48.2273 98.0736 48.2166 97.8799C48.2143 97.8571 47.915 97.7753 47.9255 97.7198C47.9928 97.3505 48.2014 97.0234 48.5457 96.7343C48.5988 96.6891 48.8077 96.7955 48.836 96.8003C49.2797 96.8679 48.7201 96.6598 48.7036 96.636C48.5898 96.4489 49.1101 96.4338 48.447 96.1618C48.8396 95.597 48.543 94.9515 49.2042 94.377C49.2119 94.3692 49.5043 94.3965 49.5184 94.3806C49.6901 94.1874 49.2327 94.2063 48.6765 94.0869C48.5368 94.0599 49.2087 93.9643 49.2577 93.9524C49.4388 93.9171 49.8757 93.9414 49.9106 93.9298C50.1846 93.8254 48.7432 93.8839 48.738 93.7844C48.7402 93.7808 49.0061 93.7812 49.032 93.7707C49.1133 93.7373 49.0062 93.7154 49.0955 93.6818C49.3022 93.6075 49.9984 93.512 49.5812 93.4459C49.5271 93.4395 48.7158 93.543 48.7436 93.4543C48.7559 93.4173 48.7187 93.2746 48.7618 93.2255C48.8056 93.1757 49.0692 93.1481 49.0799 93.1435C49.3945 92.9499 49.545 92.9615 50.0271 92.7613C50.1764 92.6963 50.1628 92.6823 50.0706 92.6976C49.8674 92.7302 49.2821 92.8991 49.187 92.9089C49.05 92.925 49.2989 92.7592 49.3835 92.6999C49.4696 92.6435 49.6378 92.616 49.6833 92.5751C49.9716 92.2922 49.0924 92.7349 48.8983 92.7735C48.4497 92.8962 49.2472 92.4558 49.2651 92.3106C49.272 92.2758 49.1065 92.4021 49.0791 92.3948C48.9784 92.3742 49.1709 92.1564 48.913 92.2554C48.8648 92.2647 48.4424 92.6127 48.6975 92.3025C48.7324 92.2559 48.9016 92.1034 48.9102 92.0424C48.9243 91.9511 48.8695 91.8452 48.7774 91.876C48.7114 91.8999 48.5461 92.2377 48.5716 92.1165C48.5807 92.0613 48.7317 91.8974 48.7337 91.8061C48.7348 91.7131 48.6148 91.6628 48.5675 91.6521C48.5199 91.6404 48.4366 91.9129 48.4253 91.9288C48.3637 92.0212 48.2533 92.1263 48.2485 92.1247C47.9834 92.0655 47.6156 91.5624 47.1921 91.758C47.1604 91.7729 47.2096 92.0685 47.205 92.0738C47.1115 92.2088 47.1188 91.4095 47.0039 91.1544C47.0837 91.7557 47.0234 91.6515 46.9509 91.7284C46.9164 91.766 46.9702 91.9956 46.9698 92.0199C46.969 92.0712 46.9665 92.1061 46.9626 92.1279L47.1082 92.095C47.1017 92.2302 46.9653 91.9058 46.9315 91.8318C46.7868 91.514 46.87 91.9176 46.772 91.7059C46.6734 91.4962 46.6303 91.1515 46.5497 91.1826C46.5955 91.3961 46.8318 91.9155 46.8015 92.0223C46.6927 92.4232 46.1402 92.1522 45.9428 92.1824C45.7496 92.2098 45.7087 92.2708 45.5761 92.2417C45.3357 92.1905 45.5698 92.5481 45.5374 92.7729C45.5063 92.9978 45.1342 92.0299 45.0264 91.8343C44.9181 91.6391 44.9943 91.856 44.9228 91.7541C44.8511 91.6525 44.8339 91.4939 44.765 91.4749C44.6951 91.4562 44.7278 91.8781 44.8118 92.0961C44.9883 92.5583 45.2674 92.9983 45.0695 92.8917C45.0578 92.8853 44.962 92.6292 44.9232 92.6174C44.6177 92.5325 44.3892 92.6352 44.0883 92.5876C44.0465 92.5808 43.9282 92.3003 43.902 92.2935C43.6273 92.2232 43.9374 92.6358 44.1209 93.1833C43.7722 92.5132 43.4912 92.1405 43.3493 92.2173C43.2645 92.2631 43.4449 92.5397 43.5109 92.7706C43.5311 92.8399 43.3587 92.6789 43.4278 92.8184C43.6545 93.2736 43.9973 93.7294 43.751 93.6142C43.7397 93.6085 43.614 93.3602 43.5853 93.358C43.3978 93.3436 43.6613 93.8041 43.5615 93.9432C43.4839 94.0518 43.1202 93.9033 42.969 93.9423C42.4973 93.2364 42.4858 93.4792 42.7728 93.9925C42.6809 94.0268 42.6165 94.1125 42.4945 94.1002C42.4528 94.0961 42.3268 93.8841 42.3081 93.8647C42.0147 93.5624 42.3125 94.0498 42.3093 94.0797C42.2573 94.3854 41.8508 94.1508 41.9378 94.6162C41.9409 94.633 42.2925 95.1065 41.9843 94.8006C41.963 94.7796 41.8543 94.5242 41.7621 94.5697C41.6706 94.6145 41.3223 94.4872 41.3852 94.7883C41.3998 94.8611 41.6373 95.2851 41.3474 95.0394C41.3081 95.0061 41.2081 94.8693 41.138 94.8052C40.9133 94.6018 41.2762 95.0752 40.9129 94.7188C40.5495 94.3626 40.2198 94.144 40.334 94.506C40.3369 94.5169 40.6181 94.898 40.5792 94.9217C40.5302 94.9511 40.4326 94.9534 40.3656 94.9784C40.348 94.9866 40.3327 94.9966 40.3218 95.009C40.2979 95.0364 40.5265 95.2218 40.526 95.23C40.481 95.5164 40.1751 95.4632 39.9164 95.584C39.8677 95.6067 40.08 95.9713 39.7811 95.8339C39.4524 95.6853 38.4279 94.6667 38.5294 95.0773C38.5674 95.245 39.8959 96.5041 39.0582 96.0327C39.0306 96.4362 38.4596 96.3767 38.5202 96.8463C38.5227 96.8673 38.8983 97.2154 38.8718 97.2385C38.8316 97.2724 38.6249 97.1504 38.5901 97.1702C38.4389 97.2501 38.5162 97.4865 38.4023 97.5864C38.3592 97.6249 38.1733 97.462 38.1216 97.5085C38.0704 97.5549 38.3048 97.7836 38.1242 97.7648C37.9874 97.7493 37.4103 97.4149 37.2926 97.4453C37.8199 97.8327 37.7717 97.876 37.8458 98.0684C37.8605 98.1055 38.0587 98.2199 38.0751 98.2443C38.1464 98.3462 37.9709 98.267 38.0518 98.3734C38.0711 98.3991 38.2525 98.5296 38.2786 98.5578C38.5076 98.8031 38.0362 98.5987 37.9537 98.5638C37.6409 98.4303 37.8586 98.6257 37.7199 98.5952C37.5811 98.5649 37.4953 98.4029 37.393 98.4101C37.181 98.4257 37.1111 98.5886 37.0247 98.6951C36.9913 98.7386 37.2577 98.8778 37.2586 98.8879C37.257 99.0231 36.9308 98.9375 37.3855 99.3249C36.0747 98.5203 37.4701 99.4648 37.1263 99.4232C37.0987 99.4195 36.489 99.0243 36.4284 98.9238C36.368 98.8232 36.5977 98.8896 36.4989 98.7397C36.4756 98.7046 35.9674 98.2423 35.9409 98.2081C35.7326 97.9425 36.6337 98.5481 36.6856 98.5778C37.2482 98.8954 36.7098 98.3851 36.6854 98.3314C36.5731 98.0864 36.7647 98.0791 36.6956 97.8897C36.6513 97.7667 36.0751 97.3501 36.1277 97.3136C36.3024 97.1919 37.1471 97.7159 36.5585 97.0618C36.4333 96.922 35.7807 96.4981 36.3604 96.7397C36.397 96.7548 36.9118 96.9975 36.6628 96.7391C36.6314 96.7065 36.4486 96.5728 36.4394 96.5533C36.381 96.4248 36.5541 96.494 36.5293 96.3822C36.5044 96.2705 36.4562 96.1194 36.5694 96.0963C36.6378 96.0816 37.0153 96.2817 37.1125 96.3243C37.3916 96.4485 37.0484 96.0935 37.3615 96.2772C37.6757 96.4625 38.0631 96.8615 38.3164 96.9154C37.8512 96.5551 37.3771 96.1807 36.9112 95.8157C37.0824 95.626 37.3866 95.5453 37.526 95.329C37.5428 95.3018 37.2752 95.1299 37.2872 95.0953C37.3394 94.9496 37.5944 94.9931 37.6209 94.8195C37.6405 94.6842 37.4663 94.3699 37.4831 94.2191C38.0471 94.5947 37.9908 94.3084 38.1263 94.2466C38.1734 94.2249 38.3068 94.3456 38.3727 94.3593C38.6179 94.409 38.1331 94.0593 38.086 93.9711C37.8881 93.592 38.9015 94.479 38.9906 94.3313C38.9952 94.3243 38.5429 93.7553 38.5215 93.7127C38.3772 93.4396 38.7163 93.87 38.7981 93.8599C38.9272 93.8446 39.0788 93.8876 39.0785 93.7427L39.1909 93.6353C39.1926 93.6132 39.191 93.5863 39.1857 93.5535C39.173 93.4819 38.9503 93.0827 39.2323 93.2968C39.2692 93.3248 39.4197 93.5084 39.4346 93.5139C39.692 93.5985 39.2115 93.0286 39.1121 92.782C39.0128 92.5354 39.4425 92.8473 39.5562 92.9459C39.8524 93.1989 39.6214 93.1048 39.6427 93.1362C39.897 93.5076 39.9171 93.3903 39.9942 93.376C40.4668 93.9337 40.5111 93.8406 40.0723 93.3588C40.0241 93.3064 40.026 93.393 39.9942 93.376C39.5837 92.7847 39.6146 92.6406 40.1267 93.0889C40.3663 93.2994 40.5553 93.617 40.5998 93.4103C40.6205 93.3167 40.2856 92.9398 40.2536 92.7903C40.1831 92.4472 40.6306 92.6954 40.712 92.5419C40.7421 92.4858 40.5316 92.2992 40.5469 92.2529C40.5881 92.1287 40.7859 92.2397 40.8099 92.0912C40.812 92.0774 40.6228 91.8583 40.648 91.8354C40.8359 91.6578 41.1255 91.6802 41.3486 91.5355C41.4565 91.4651 41.563 91.2045 41.6946 91.1585C41.9227 91.0758 42.3834 91.2854 42.5004 91.0983C42.578 90.9769 42.4085 90.7421 42.3587 90.5436C42.2643 90.1575 42.772 90.6549 42.8441 90.7359C42.8463 90.7386 42.7823 90.8525 42.9066 90.9526C43.0871 91.2051 42.8434 90.7378 42.8441 90.7359C42.8921 90.787 43.1184 90.7374 43.1314 90.6683C43.1383 90.6303 42.9972 90.3958 43.0035 90.3805C43.1553 90.0216 43.4056 89.8172 43.7426 89.7991C43.7499 89.8018 43.8733 90.0816 43.8887 90.0845C44.1065 90.1321 44.0525 89.7458 44.1006 89.4814C44.1484 89.2174 44.2926 89.2368 44.5762 89.687C44.6536 89.5826 44.8898 89.7371 45.025 89.8351C45.16 89.9331 44.9557 89.3742 44.9592 89.3602C45.0622 88.9166 45.3248 89.1828 45.5888 89.1467C45.7154 89.1301 45.9233 88.9701 46.0341 88.8672C46.0524 88.8499 46.0714 88.8413 46.0907 88.8373L46.4772 88.7498C46.5668 88.7447 46.6442 88.8075 46.7326 88.7265C46.7479 88.7128 46.7015 88.4514 46.7055 88.4406C46.8155 88.1099 46.8134 88.7618 46.8533 88.874C46.9974 89.2829 47.0651 89.5009 47.223 89.2939C47.2554 89.2465 47.3439 88.3093 47.435 88.2534C47.5472 88.1829 47.5061 88.5173 47.6226 88.437C47.6328 88.4305 47.6325 88.2239 47.7079 88.2345C48.0596 88.2818 48.4487 88.4377 48.8666 88.5092C48.9245 88.5201 48.9207 88.1836 49.0096 88.1955C49.4269 88.2507 49.928 88.4407 50.2752 88.8049C50.3592 88.8949 50.1837 89.06 50.1723 89.1314C50.0904 89.5552 50.5726 89.1559 50.6172 89.173C51.5379 89.4645 51.6085 90.389 52.1827 90.9374C52.2126 90.9561 52.9502 91.0147 52.4936 91.3617C52.4658 91.3904 51.986 91.706 52.3849 91.684C52.4102 91.684 52.6561 91.507 52.6764 91.6591C52.6866 91.7429 52.7727 91.8318 52.796 91.9472C52.8121 92.029 52.7923 92.1234 52.6769 92.2293C52.5935 92.3132 52.0696 92.5383 52.5357 92.6029C52.5673 92.5965 53.6077 92.6895 52.9268 92.8698C52.8146 92.8992 52.082 92.9808 52.4769 93.0981C52.5533 93.1217 52.7107 93.0456 52.8221 93.1188C52.9938 93.2344 52.8103 93.4173 53.1467 93.5545C53.2063 93.5778 53.7127 93.6771 53.335 93.7837C53.2758 93.7998 53.0287 93.7796 53.0024 93.828C52.8756 94.0529 53.0379 94.282 52.859 94.491C52.796 94.5636 52.3995 94.5086 52.2893 94.5781C52.1791 94.649 52.0676 94.7843 52.2431 94.8751C52.4185 94.9668 53.0588 94.931 53.0993 95.0565C53.2724 95.613 52.8258 96.0731 52.6741 96.5464C52.6512 96.6175 52.8864 96.603 52.868 96.712C52.8053 97.1108 52.8242 97.8614 52.2543 98.0486C51.802 98.1916 51.6266 97.7764 51.4141 97.9214C51.3134 97.988 51.9778 98.3268 51.9912 98.3591C52.1345 98.666 51.7681 98.7119 51.7822 98.9494C51.7848 98.9991 52.0793 99.0684 52.0782 99.1101C52.0762 99.2549 51.8983 99.3342 51.8693 99.4619C51.8569 99.5196 52.0704 99.6018 52.0323 99.6444C51.9435 99.7467 51.8072 99.8128 51.5602 99.8329C51.5379 99.8343 51.3135 99.6444 51.2642 99.7231C51.1839 99.8527 50.9138 99.9194 51.0246 100.175C51.0583 100.251 51.5164 100.503 51.1444 100.431C51.0663 100.416 50.5342 100.083 50.9426 100.462C50.9668 100.485 51.0506 100.572 51.1249 100.668C51.2577 100.839 51.358 101.044 51.0629 100.948C50.9412 100.909 50.4661 100.702 50.5019 100.797C50.5082 100.811 50.7642 100.931 50.7591 100.99C50.7366 101.197 50.6021 101.345 50.5618 101.555C50.5512 101.611 50.8339 101.715 50.8095 101.795C50.742 102.017 50.5146 102.195 50.31 102.303C50.234 102.343 50.0815 102.149 50.0574 102.137C49.6713 101.937 50.0823 102.341 50.0878 102.387C50.119 102.662 49.8196 102.594 49.7567 102.769C49.7384 102.818 49.9634 102.978 49.9749 103.001C50.0817 103.238 49.7711 102.849 49.6885 102.858C49.4564 102.882 49.3389 103.034 49.2369 103.183C49.1994 103.238 49.474 103.414 49.4369 103.461C49.2206 103.747 48.917 103.975 48.5394 104.053C48.4679 104.068 48.3468 103.851 48.3015 103.816C47.9889 103.566 48.2154 104.064 48.2194 104.125C48.2466 104.396 48.0719 104.256 47.9947 104.361C47.6144 104.887 46.8619 105.166 46.2914 105.334C45.7354 105.503 45.232 105.532 44.7216 105.633C44.5559 105.665 44.3897 105.705 44.2142 105.763C44.1705 105.777 44.2904 106.083 44.2527 106.099C43.7541 106.295 43.2024 106.255 42.6312 106.381C42.5832 106.391 42.6702 106.695 42.5916 106.721C42.4307 106.776 42.2146 106.763 42.0453 106.662C41.9638 106.613 42.0777 106.35 41.9979 106.306C41.8121 106.203 41.6168 106.17 41.4146 106.199C41.3278 106.212 41.4254 106.54 41.3119 106.531C40.5428 106.484 39.6541 106.306 39.0646 105.56C39.0232 105.508 39.271 104.915 39.1166 104.972C39.0249 105.125 38.926 105.31 38.8322 105.475C38.4832 105.323 38.1597 105.111 37.8732 104.864C37.5155 104.536 37.2171 104.145 36.8575 103.806C36.8356 103.786 36.654 104.078 36.6104 104.039C36.3564 103.814 36.0406 103.661 36.005 103.17C36.0014 103.122 36.419 102.694 36.2839 102.692C36.2586 102.691 36.0916 102.644 35.9728 102.71C35.9552 102.721 35.785 102.944 35.7415 102.914C35.4945 102.738 35.3091 102.467 35.2079 102.113C35.1927 102.056 35.446 101.891 35.4376 101.85C35.3741 101.552 35.009 101.489 35.0024 101.035C34.9957 100.719 35.4667 100.491 35.8207 100.109C35.8738 100.065 35.7823 99.8722 36.0452 99.7263C36.7361 99.4604 37.4651 99.1071 38.1903 98.7966C38.2682 98.7754 38.3182 98.8324 38.4073 99.1404C38.4596 99.322 38.463 99.6199 38.4951 99.6744C38.5254 99.752 38.6562 99.4326 38.6871 99.0646C38.6975 99.0125 38.6506 98.7014 38.6564 98.5973C38.6583 98.4683 38.6919 98.3933 38.7439 98.3432C38.8134 98.2716 39.0979 98.1647 39.1729 98.0498C39.2455 97.9325 39.018 98.0447 39.1258 97.9464C39.2361 97.8487 39.5076 97.6435 39.5336 97.6113ZM45.6228 90.28C45.7963 90.5207 45.4494 89.533 45.4509 89.7992C45.4514 89.8133 45.6141 90.2683 45.6228 90.28ZM38.0074 96.0348C38.4316 96.2423 37.9427 95.7663 37.6182 95.6016C37.2935 95.4379 37.8782 95.9726 38.0074 96.0348ZM37.6464 97.0626C38.0072 97.1877 36.8296 96.2837 36.9943 96.5649C37.0035 96.581 37.6254 97.0555 37.6464 97.0626ZM36.2124 100.397C36.2218 100.386 36.1884 100.324 36.1759 100.331C35.8918 100.508 35.967 100.643 36.2124 100.397ZM37.3463 98.0998C37.5306 98.1871 37.4015 97.9689 37.1726 97.8599C36.9882 97.7724 37.1167 97.9916 37.3463 98.0998ZM49.6999 92.0421C49.6876 92.0517 49.6984 92.0974 49.7742 92.0525C50.0185 91.9071 49.9116 91.8851 49.6999 92.0421ZM36.3862 99.5218C36.5745 99.3416 37.6743 99.9047 37.408 100.052C37.3596 100.079 37.1431 99.7452 37.0164 99.7355C36.7843 99.7194 37.3818 100.211 36.9735 100.079C36.8987 100.055 36.3731 99.5307 36.385 99.5205C36.3854 99.521 36.3858 99.5214 36.3862 99.5218ZM46.0992 91.4445C46.1054 91.457 46.1661 91.4488 46.1627 91.4355C46.0807 91.1117 45.9558 91.1288 46.0992 91.4445ZM49.4822 94.5401C49.4528 94.5413 49.4161 94.6694 49.4426 94.676C49.9793 94.7914 50.0566 94.5137 49.4822 94.5401ZM42.9544 93.9248C43.0897 94.2369 43.0532 94.3096 42.7732 93.9927C42.8374 93.9755 42.8911 93.9428 42.9544 93.9248Z" fill="#735A47"/>
</svg>
