<svg width="25" height="26" viewBox="0 0 83 86" fill="none" xmlns="http://www.w3.org/2000/svg">
<path d="M21.4103 55.0581C16.7466 58.0562 10.8615 65.4681 8.50191 68.7993C6.8363 75.0453 27.6563 75.4617 31.4039 75.4617C35.1515 75.4617 42.6468 82.9569 46.8108 82.5405C50.9748 82.1241 48.8928 68.7993 48.4764 64.6353C48.06 60.4713 39.7319 50.4777 36.8171 49.6449C33.9023 48.8121 27.2399 51.3105 21.4103 55.0581Z" fill="#C9B8AA"/>
<ellipse cx="11.4365" cy="34.6193" rx="7.07881" ry="10.8264" transform="rotate(-17.5464 11.4365 34.6193)" fill="#C9B8AA"/>
<ellipse cx="33.486" cy="15.5" rx="7.91161" ry="11.6592" fill="#C9B8AA"/>
<ellipse cx="57.0244" cy="24.1046" rx="7.91161" ry="12.0756" transform="rotate(32.1891 57.0244 24.1046)" fill="#C9B8AA"/>
<ellipse cx="69.9504" cy="47.5038" rx="6.60561" ry="11.2428" transform="rotate(42.6051 69.9504 47.5038)" fill="#C9B8AA"/>
<path d="M9.12512 25.9811C9.10022 26.3078 8.86802 26.6616 8.63947 26.9095C8.56842 26.9868 8.40945 26.8794 8.35227 26.931C8.23975 27.0348 8.28688 27.1777 8.16329 27.2747C8.1217 27.3059 7.8605 27.1609 7.82317 27.1961C7.61916 27.3943 7.61721 27.6398 7.48005 27.8638C6.8069 28.96 6.37432 30.1246 5.98112 31.3305C5.85167 31.7268 5.49405 32.1772 5.53873 32.6219C5.54423 32.6735 5.80361 32.6862 5.82303 32.699C6.12035 32.8971 5.61437 32.7648 5.53062 32.8505C5.30837 33.0788 5.19784 33.3486 5.16716 33.617C5.15233 33.7467 5.15692 33.8742 5.17669 33.9952C5.20351 34.1524 5.72905 34.051 5.42735 34.1758C5.40694 34.1848 5.13824 34.1184 5.10496 34.1582C5.02976 34.2491 5.06275 34.4355 5.03565 34.5069C4.98161 34.6477 4.98269 34.6729 4.9712 34.8081C4.95351 34.9892 4.80768 35.2112 4.86542 35.41C4.87854 35.4532 5.16045 35.4031 5.20686 35.4713C5.25299 35.5395 5.22764 35.7136 5.16174 35.7721C5.0956 35.8308 4.87488 35.8069 4.82431 35.8176C4.39723 35.9113 4.99234 36.1134 5.00787 36.1362C5.26951 36.6053 4.96336 37.0283 5.01871 37.4796C5.06121 37.8175 5.23008 38.1591 5.27928 38.4739C5.33688 38.8493 5.26921 39.2047 5.40083 39.5584C5.4144 39.5955 5.71776 39.4574 5.73473 39.5015C5.91536 39.969 6.05036 40.4404 6.04926 40.9984C6.04901 41.0546 5.75654 41.109 5.74077 41.1728C5.64547 41.5566 5.37587 42.3063 6.58597 41.8942C6.64102 42.1081 6.722 42.3628 6.59916 42.6616C6.52035 42.8543 6.18343 42.9012 6.38061 42.9741C6.42474 42.9905 6.64082 42.8117 6.68859 42.8462C6.88818 42.989 6.93958 43.2494 7.17956 43.3665C7.22876 43.3897 7.43325 43.2491 7.47799 43.2367C7.84213 43.1388 7.43085 43.6074 7.41657 43.666C7.39202 43.7618 7.38433 43.8424 7.38871 43.9124C7.38287 44.1233 7.53192 44.201 7.63458 44.3362C7.66555 44.3767 7.88439 44.1192 7.92137 44.1479C8.10755 44.2951 8.24323 44.4656 8.33385 44.7217C8.35441 44.7797 8.14477 44.9764 8.14714 45.0166C8.16807 45.1958 8.49524 44.7707 8.5164 44.9229C8.52225 44.9548 8.38099 45.1526 8.37014 45.1773C8.20764 45.5701 8.57253 45.0969 8.59029 45.092C8.85385 45.0375 8.71165 45.6563 8.97298 45.6677C9.00239 45.6674 9.05961 45.36 9.13264 45.3751C9.61599 45.4714 10.1183 45.6605 10.6601 45.96C10.744 46.006 10.6601 46.2297 10.6626 46.2586C10.7163 46.71 10.8296 46.1214 10.8587 46.1012C11.095 45.9574 11.3003 46.4648 11.4775 45.7596C12.243 45.9712 13.0451 45.7212 13.8909 45.8899C14.0124 45.9412 14.1414 46.0085 14.3282 46.0844C14.3394 46.0879 14.4281 46.3681 14.4523 46.3731C14.7551 46.4229 14.5331 46.013 14.3309 45.4855C14.2688 45.3604 14.7373 45.8522 14.7846 45.8775C14.9287 45.9959 15.1612 46.3676 15.1946 46.3863C15.4854 46.5077 14.5431 45.4152 14.627 45.3369C14.6319 45.3356 14.8012 45.541 14.828 45.552C14.9126 45.586 14.8651 45.4845 14.957 45.5211C15.1671 45.6075 15.7243 46.0392 15.5201 45.6478C15.4912 45.5991 14.8464 45.0973 14.9552 45.021C15.0015 44.9905 15.1306 44.784 15.2142 44.7495C15.2973 44.7184 15.493 44.9016 15.5051 44.9038C15.9106 44.9145 15.9922 45.0557 16.4959 45.2198C17.0015 45.3744 15.9226 44.7886 15.825 44.6835C15.7274 44.5798 16.056 44.5787 16.1632 44.589C16.2706 44.6 16.3951 44.723 16.4623 44.717C16.9052 44.666 15.9693 44.3443 15.8301 44.1887C15.4927 43.8322 16.3723 44.0987 16.5257 43.9738C16.5665 43.941 16.3618 43.8917 16.3606 43.8465C16.3574 43.669 16.6573 43.6888 16.4862 43.4177C16.4588 43.3724 16.0032 43.0377 16.4118 43.0928C16.4708 43.1006 16.6685 43.2185 16.7409 43.1711C16.8493 43.1013 16.9622 42.9381 16.9286 42.8062C16.9038 42.7088 16.52 42.6734 16.664 42.6142C16.7283 42.5876 16.9058 42.7418 17.0096 42.685C17.1136 42.6282 17.1772 42.4118 17.197 42.3279C17.2167 42.2442 16.9329 42.1996 16.917 42.187C16.8264 42.1131 16.7467 41.9169 16.7513 41.9035C16.9394 41.2091 17.5851 40.6911 17.6369 39.9532C17.6416 39.8948 17.3441 39.8472 17.3419 39.8374C17.2771 39.6141 17.9958 39.9862 18.289 39.932C17.7021 39.7785 17.8295 39.7344 17.8057 39.5818C17.7935 39.5088 17.5582 39.4761 17.537 39.4634C17.2238 39.266 17.6847 39.3337 17.7802 39.3434C18.1311 39.381 17.7603 39.1931 17.9948 39.219C18.2274 39.2453 18.5236 39.4412 18.5575 39.3171C18.3616 39.2164 17.79 39.1437 17.7331 39.0175C17.6931 38.9287 17.683 38.8373 17.6939 38.747C17.7119 38.4648 18.0659 38.0958 18.1135 37.8688C18.173 37.602 18.1288 37.5129 18.2032 37.3498C18.3321 37.0497 17.9159 37.1763 17.7113 37.0208C17.504 36.8663 18.5419 36.8487 18.7611 36.8009C18.9796 36.7499 18.7487 36.7436 18.8665 36.6957C18.9841 36.6471 19.1432 36.7077 19.1794 36.6182C19.2157 36.5251 18.7923 36.3501 18.5577 36.3582C18.061 36.3723 17.5639 36.541 17.7129 36.3197C17.7217 36.3065 17.9965 36.3 18.0165 36.2514C18.1651 35.8638 18.0981 35.4865 18.1899 35.0835C18.2028 35.0275 18.5079 34.9996 18.5186 34.9658C18.6295 34.6127 18.1614 34.8465 17.5705 34.8306C18.3096 34.6726 18.7331 34.4633 18.6714 34.2263C18.6349 34.0862 18.3243 34.2002 18.0755 34.1761C18.0006 34.169 18.1895 34.0085 18.0356 34.035C17.5323 34.1216 17.0155 34.3729 17.1634 34.0803C17.1707 34.0671 17.446 34.0188 17.4515 33.979C17.4881 33.7224 16.9729 33.8514 16.8357 33.6323C16.728 33.4602 16.9245 33.024 16.9003 32.7897C17.7061 32.5224 17.4511 32.3767 16.8691 32.4847C16.8436 32.3371 16.7591 32.1952 16.7879 32.0331C16.7975 31.9772 17.0402 31.9264 17.0631 31.9117C17.4241 31.6824 16.8651 31.8098 16.8335 31.7873C16.5124 31.5307 16.8224 31.1171 16.3118 30.9447C16.2935 30.9387 15.7324 31.121 16.107 30.8908C16.1329 30.8753 16.4228 30.888 16.3889 30.733C16.379 30.6879 16.3885 30.6231 16.3988 30.5511C16.4303 30.3907 16.4524 30.1765 16.2158 30.13C16.134 30.1103 15.6582 30.2268 15.9452 29.9711C15.984 29.9358 16.1398 29.8686 16.2135 29.807C16.4458 29.6062 15.91 29.869 16.3122 29.5527C16.7145 29.2369 16.9385 28.8706 16.5156 28.8696C16.5025 28.8685 16.0828 29.0911 16.0503 29.0321C15.9979 28.936 15.9834 28.7515 15.909 28.6616C15.8733 28.6188 15.6647 28.8282 15.6546 28.8239C15.3046 28.6474 15.3356 28.2874 15.1435 27.9189C15.1078 27.85 14.6785 27.9819 14.8038 27.6604C14.9378 27.3059 16.0682 26.3964 15.5574 26.3774C15.3504 26.368 13.961 27.5673 14.4213 26.7017C13.8928 26.5289 13.876 25.8599 13.2782 25.7664C13.2511 25.7617 12.8544 26.0899 12.8196 26.0486C12.769 25.9868 12.8972 25.7809 12.8669 25.7317C12.7779 25.5805 12.6026 25.5384 12.4549 25.4611L12.4758 25.4771C12.4138 25.4595 12.356 25.4383 12.3054 25.4011C12.2385 25.3536 12.3755 25.1458 12.2832 25.0874C12.1856 25.0292 12.0094 25.3071 11.9326 25.1173C11.8775 24.9743 11.924 24.2985 11.7523 24.1875C11.6255 24.8299 11.524 24.795 11.3341 24.9502C11.2986 24.9806 11.3123 25.2105 11.295 25.2366C11.2287 25.3485 11.1871 25.1569 11.1255 25.2823C11.1109 25.3125 11.1026 25.5357 11.0914 25.5731C11.0092 25.8741 10.8876 25.4701 10.836 25.3396C10.8322 25.3289 10.8291 25.32 10.8268 25.3134C10.7086 24.9856 10.6751 25.2795 10.5865 25.1565C10.4913 25.0348 10.6 24.8588 10.4906 24.7907C10.256 24.6506 9.97787 24.7452 9.76919 24.7898C9.68542 24.8089 9.81836 25.0824 9.8081 25.0919C9.66404 25.208 9.4037 24.9554 9.48929 25.5508C8.91772 24.1203 9.43603 25.7227 9.11382 25.5049C9.08783 25.4873 8.83412 24.8061 8.87403 24.6806C8.91222 24.5558 9.09443 24.7354 9.14607 24.5453C9.15734 24.5007 9.10356 23.8055 9.11407 23.7596C9.18845 23.4018 9.50757 24.4408 9.53015 24.4962C9.7895 25.0913 9.77558 24.3385 9.81973 24.2766C9.99813 23.9966 10.2403 24.1085 10.4367 23.9216C10.566 23.8012 10.5348 23.0911 10.6645 23.1057C10.6976 23.1097 10.7288 23.1198 10.758 23.1344C11.1209 23.3107 11.1808 24.0876 11.6283 23.3398C11.738 23.1709 11.7647 22.3819 12.0201 23.0486C12.0444 23.0916 12.1541 23.6868 12.3877 23.3897C12.4185 23.3524 12.4832 23.1353 12.5142 23.1249C12.7239 23.0615 12.7773 23.2722 12.9886 23.2675C13.2011 23.2635 13.4837 23.2613 13.6389 23.4447C13.6586 23.4679 13.6707 23.5068 13.6769 23.5546L13.9992 23.8016C13.9513 23.9448 13.8093 24.1931 13.7746 24.2717C13.6454 24.5578 14.0568 24.2734 13.8582 24.5804C13.6593 24.8896 13.1955 25.2103 13.1597 25.4954C13.5625 25.0664 13.9816 24.6313 14.3892 24.2022C14.6414 24.462 14.7801 24.8454 15.0738 25.0796C15.1105 25.1082 15.2895 24.8431 15.3345 24.8677C15.5249 24.9745 15.5081 25.2658 15.7339 25.3542C15.9084 25.4207 16.2812 25.3125 16.4772 25.3846C16.093 25.9494 16.4516 25.9806 16.5565 26.1756C16.5928 26.2431 16.4607 26.3652 16.4545 26.4431C16.435 26.7354 16.8003 26.2572 16.9064 26.2326C17.3644 26.1355 16.3936 27.0682 16.5969 27.2458C16.6062 27.2539 17.2682 26.9208 17.321 26.9142C17.6529 26.8548 17.1488 27.0972 17.1749 27.2106C17.222 27.4189 17.1672 27.6237 17.471 27.6769C17.5594 27.6904 18.0217 27.5637 17.816 27.875C17.7889 27.9153 17.5882 28.0424 17.5846 28.0616C17.5321 28.3959 18.1563 27.9914 18.4565 27.9938C18.7582 27.9991 18.4393 28.4792 18.3297 28.5894C18.0534 28.8836 18.1402 28.5849 18.1034 28.5977C17.676 28.7531 17.8244 28.8559 17.8487 28.9834C17.2121 29.3425 17.321 29.4592 17.8755 29.1139C17.9357 29.0751 17.8308 29.0206 17.8487 28.9834C18.5317 28.7394 18.7241 28.9157 18.1992 29.388C17.9508 29.6063 17.5807 29.6632 17.8103 29.8762C17.8987 29.9611 18.2465 29.8082 18.4517 29.8086C18.4841 29.8063 18.5125 29.8074 18.5352 29.8135C18.9043 29.9135 18.5596 30.3415 18.706 30.5306C18.7592 30.5994 18.9914 30.4305 19.0367 30.4744C19.1577 30.5905 19.0077 30.7852 19.1581 30.8925C19.1721 30.9022 19.4327 30.7741 19.452 30.8174C19.6035 31.1451 19.5326 31.502 19.65 31.8639C19.7069 32.0383 19.9625 32.303 19.9913 32.4968C20.0443 32.8343 19.7654 33.3535 19.9433 33.602C20.0588 33.7667 20.3244 33.6474 20.5362 33.6735C20.9478 33.7275 20.3636 34.1851 20.2702 34.2474C20.2672 34.2493 20.1587 34.105 20.0384 34.2291C19.7531 34.3574 20.2684 34.2457 20.2702 34.2474C20.2111 34.2889 20.2294 34.6288 20.298 34.6814C20.3357 34.7096 20.5969 34.6264 20.6116 34.6426C20.9555 35.0316 21.1223 35.4991 21.0687 36.02C21.0645 36.0296 20.76 36.0603 20.7539 36.0819C20.6589 36.3815 21.0507 36.5211 21.2935 36.7618C21.5356 37.0014 21.4699 37.2352 20.9478 37.3987C21.0185 37.595 20.7797 37.8848 20.6282 38.038C20.4774 38.1899 21.0667 38.2656 21.0773 38.2828C21.4025 38.8172 21.0149 39.0926 20.8105 39.6094C20.7949 39.6477 20.7796 39.6926 20.7643 39.7423C20.7207 39.8899 20.7164 40.1422 20.7271 40.2981C20.7391 40.4397 20.5807 40.4829 20.6307 40.6283C20.6373 40.6481 20.8963 40.7066 20.9046 40.7145C21.1686 40.94 20.5665 40.6917 20.4471 40.6873C20.0128 40.6729 19.7794 40.6724 19.9166 40.9082C19.9477 40.9632 20.8079 41.345 20.8378 41.4371C20.8749 41.5564 20.5651 41.4248 20.612 41.5526C20.6157 41.5634 20.8142 41.6195 20.7864 41.6817C20.6592 41.9738 20.4446 42.2727 20.363 42.6043C20.3511 42.6493 20.6813 42.6896 20.6691 42.7566C20.6113 43.0716 20.4891 43.4086 20.2391 43.6635C20.1766 43.7259 19.9764 43.6039 19.9065 43.5979C19.4839 43.5609 19.9982 43.8994 20 43.9279C20.0645 44.5939 19.3929 44.8298 19.3506 45.5349C19.351 45.5713 19.8021 46.1136 19.2486 45.9874C19.211 45.9807 18.6549 45.8334 18.9418 46.1122C18.9593 46.1304 19.2542 46.1934 19.1598 46.3067C19.0651 46.4205 19.1143 46.7267 18.7303 46.7433C18.6076 46.7513 18.0611 46.5694 18.3204 46.9839C18.3469 47.0029 18.9735 47.8707 18.3338 47.5561C18.2285 47.5035 17.6615 47.0351 17.8002 47.4665C17.8248 47.5523 18.0124 47.5839 18.0038 47.7555C17.9872 48.0225 17.6498 48.102 17.6641 48.5409C17.6711 48.6154 17.8231 49.1574 17.4239 48.9913C17.3626 48.9643 17.2513 48.7375 17.1559 48.7789C16.7126 48.9658 16.3304 49.4006 15.7439 49.4561C15.5406 49.4722 15.4878 49.0662 15.2793 49.027C15.068 48.9897 14.7083 48.9749 14.5468 49.1819C14.3791 49.3902 14.6985 49.9908 14.3668 50.0805C14.2772 50.1031 14.1865 50.1211 14.0951 50.1348C13.5538 50.3031 12.9374 50.0064 12.2985 49.9679C12.1968 49.9616 12.2857 50.1875 12.134 50.194C11.5901 50.2253 10.5013 50.3993 9.99058 49.8415C9.60192 49.4012 10.1842 49.1808 9.88181 48.9815C9.74375 48.8867 9.45091 49.5858 9.40328 49.6008C8.96247 49.7613 8.74861 49.3762 8.35895 49.3679C8.27665 49.3654 8.26725 49.6748 8.19622 49.6686C7.94978 49.6488 7.74895 49.438 7.52069 49.374C7.41752 49.3455 7.34947 49.5645 7.26238 49.5092C7.05407 49.3786 6.89432 49.1971 6.78602 48.899C6.77739 48.8724 7.03117 48.6844 6.88493 48.5956C6.64472 48.4498 6.47075 48.0982 6.0853 48.0911C5.97145 48.0899 5.65303 48.5067 5.69968 48.0877C5.70954 47.9991 6.14514 47.5469 5.61872 47.8169C5.53761 47.8701 4.71691 48.1246 4.89264 47.6307C4.93913 47.5024 5.21419 47.0505 5.08097 47.0254C5.06077 47.0225 4.89878 47.2607 4.81259 47.2078C4.51417 47.0188 4.31429 46.7219 4.04586 46.4919C3.97375 46.4305 3.81453 46.7104 3.71283 46.61C3.64344 46.541 3.57901 46.4603 3.52041 46.372C3.40217 46.1978 3.32721 45.9677 3.28241 45.7644C3.2613 45.665 3.50096 45.5956 3.51958 45.5759C3.82464 45.259 3.29963 45.5014 3.25107 45.486C2.95804 45.3891 3.0976 45.0946 2.92583 44.9395C2.87879 44.8958 2.6628 45.0699 2.6355 45.0714C2.3647 45.0788 2.8392 44.9174 2.8468 44.8211C2.86958 44.5503 2.72985 44.3419 2.59102 44.1539C2.53976 44.0851 2.30323 44.3178 2.26009 44.2535C1.99874 43.8737 1.81189 43.4176 1.78889 42.9282C1.78536 42.8364 2.03124 42.788 2.07537 42.7494C2.38635 42.4849 1.82667 42.5289 1.76363 42.509C1.47738 42.4227 1.64965 42.2701 1.55198 42.1296C1.06366 41.4342 0.900884 40.3848 0.827201 39.6075C0.725464 38.5845 0.860436 37.7947 0.741618 36.8629C0.734638 36.8031 0.413135 36.8821 0.403004 36.8309C0.28718 36.1579 0.413576 35.4986 0.349682 34.8346C0.345112 34.7791 0.0331113 34.8448 0.0155694 34.7543C-0.0226543 34.5708 0.00837207 34.3426 0.120794 34.1656C0.174893 34.0813 0.429834 34.2186 0.478843 34.1349C0.593541 33.9418 0.635897 33.7234 0.608727 33.5133C0.596613 33.4232 0.268419 33.5223 0.277356 33.4068C0.286948 33.2704 0.297128 33.1334 0.310396 32.9959C0.369819 32.3697 0.488946 31.7546 0.935448 31.2022C0.972578 31.1562 1.61101 31.2309 1.51041 31.1023C1.33714 31.0607 1.13144 31.0217 0.945285 30.9822C1.05022 29.8943 1.51552 28.9069 1.83339 27.8912C1.84676 27.8483 1.49847 27.8321 1.52282 27.7483C1.66388 27.262 1.71481 26.7608 2.1917 26.3709C2.23857 26.3322 2.80086 26.5365 2.75931 26.3689C2.75097 26.3403 2.74443 26.1005 2.63868 26.0066C2.6225 25.9931 2.34456 25.9453 2.35913 25.8745C2.45009 25.4596 2.65404 25.0596 2.95425 24.7235C3.00306 24.6698 3.25932 24.8362 3.29642 24.7992C3.55795 24.5342 3.47174 24.1133 3.83709 23.9075C4.08145 23.7735 4.53515 24.0266 5.04744 24.1012C5.11942 24.1125 5.17609 23.995 5.45348 24.0932C6.15106 24.3401 6.88624 24.6858 7.63246 24.9419C7.79355 24.996 7.68113 24.777 8.03009 25.0141C8.05377 25.029 8.13657 25.1946 8.25684 25.2702C8.33966 25.3233 8.63242 25.3951 8.73299 25.4775C8.8337 25.5592 8.58151 25.517 8.69323 25.6312C8.80646 25.7466 9.13528 25.8389 9.12512 25.9811ZM19.9205 38.6893C19.6141 38.7773 20.6359 39.0065 20.4216 38.7873C20.41 38.7764 19.9356 38.6842 19.9205 38.6893ZM14.2469 25.4283C14.0459 25.8702 14.5788 25.4377 14.7422 25.1038C14.9049 24.7698 14.3075 25.2941 14.2469 25.4283ZM12.682 24.5612C12.6911 24.9777 13.4883 23.723 13.0744 23.8405C13.05 23.847 12.6795 24.5363 12.682 24.5612ZM5.00091 24.6362C5.0142 24.6402 5.06017 24.5553 5.04788 24.5488C4.75388 24.3855 4.66248 24.5546 5.00091 24.6362ZM10.8415 24.5486C10.9031 24.7468 11.0705 24.5158 10.9979 24.2658C10.9322 24.0639 10.7567 24.3012 10.8415 24.5486ZM16.9945 44.177C16.9796 44.1724 16.9396 44.2273 17.0205 44.2623C17.2813 44.375 17.2469 44.2553 16.9945 44.177ZM8.21612 25.2249C8.60284 25.1466 9.21639 26.2331 8.7846 26.2368C8.70576 26.238 8.80746 25.8144 8.6808 25.7417C8.4478 25.61 8.59727 26.3741 8.28942 26.0466C8.23349 25.9864 8.19137 25.2273 8.2162 25.2231C8.21617 25.2237 8.21614 25.2243 8.21612 25.2249ZM18.67 38.5382C18.6561 38.5382 18.6255 38.6239 18.6382 38.6292C18.9527 38.7503 19.018 38.5618 18.67 38.5382ZM14.2519 46.4089C14.2404 46.3834 14.0803 46.3878 14.0797 46.4134C14.0502 46.973 14.4883 46.944 14.2519 46.4089ZM16.9206 32.7791C16.5726 32.7938 16.4975 32.6962 16.8688 32.4852C16.8797 32.5851 16.9087 32.6799 16.9206 32.7791Z" fill="#735A47"/>
<path d="M31.2863 8.16888C31.2589 8.43973 31.0174 8.7652 30.7829 9.00513C30.7093 9.08174 30.5535 8.96935 30.495 9.01954C30.3801 9.12042 30.4234 9.26758 30.298 9.36445C30.2554 9.39687 29.9969 9.24638 29.9584 9.28326C29.7501 9.48479 29.7433 9.74341 29.605 9.97713C29.2355 10.6029 28.95 11.2649 28.7195 11.945C28.528 12.504 28.381 13.0824 28.2596 13.6774C28.1719 14.1023 27.8735 14.6246 27.9832 15.0844C27.9962 15.1376 28.2546 15.11 28.2757 15.1204C28.5991 15.2794 28.0791 15.2217 28.0093 15.3251C27.7343 15.7343 27.7266 16.2071 27.8542 16.5974C27.9094 16.7633 28.4077 16.5565 28.1339 16.7462C28.1154 16.7595 27.8389 16.7382 27.8135 16.787C27.7562 16.8981 27.8236 17.0942 27.8107 17.178C27.7842 17.3401 27.7899 17.366 27.8047 17.5156C27.8227 17.7194 27.7221 17.9822 27.8187 18.1914C27.8401 18.2356 28.1074 18.1297 28.1665 18.195C28.2253 18.2603 28.2353 18.4558 28.1825 18.5329C28.1295 18.61 27.9074 18.623 27.8599 18.644C27.4583 18.8215 28.0847 18.9359 28.1048 18.9592C28.458 19.428 28.2442 19.9475 28.392 20.4355C28.5044 20.8029 28.7418 21.153 28.856 21.4955C28.9912 21.9038 28.9949 22.3021 29.1977 22.6741C29.2187 22.7131 29.4955 22.526 29.5215 22.5725C29.6389 22.7826 29.7482 22.9941 29.843 23.2135C29.9402 23.4514 30.0171 23.691 30.0803 23.9735C30.0917 24.0234 29.8286 24.1594 29.8283 24.2222C29.8081 24.5916 29.8746 25.4286 30.7987 24.5409C30.9182 24.6988 31.0847 24.8744 31.1175 25.1915C31.1408 25.3964 30.8728 25.6049 31.0809 25.5704C31.1274 25.5625 31.2246 25.2995 31.2823 25.3046C31.5223 25.3248 31.7022 25.5158 31.9692 25.4806C32.0234 25.4727 32.1141 25.2417 32.1441 25.2062C32.3855 24.9192 32.3123 25.537 32.3368 25.5939C32.5025 26.0123 32.776 25.9784 33.06 26.0875C33.1265 26.1131 33.1581 25.7713 33.2254 25.7843C33.3369 25.8072 33.4483 25.8375 33.5583 25.8766C33.6858 25.9235 33.8009 25.995 33.9323 26.1086C33.9761 26.1464 33.9071 26.4249 33.9291 26.4575C34.0421 26.5974 34.0815 26.0622 34.1762 26.1764C34.1979 26.1995 34.1936 26.4425 34.1984 26.469C34.2885 26.8848 34.3182 26.2874 34.3277 26.2733C34.4998 26.077 34.7629 26.6557 34.9867 26.4972C35.01 26.4781 34.8601 26.2036 34.9271 26.1691C35.2528 25.9966 35.6125 25.8412 35.9869 25.7024C36.1044 25.6645 36.2373 25.6153 36.3781 25.5608C36.4626 25.5267 36.5901 25.7275 36.6138 25.7439C37.0059 25.9757 36.6061 25.5277 36.6052 25.4944C36.6228 25.2282 37.1645 25.3291 36.6676 24.797C37.4275 24.0962 37.4885 22.9194 38.4526 22.0844C38.4643 22.0733 38.7328 22.1939 38.7549 22.1712C39.0237 21.8956 38.5711 21.8088 38.1115 21.4227C37.9958 21.3265 38.6897 21.3666 38.7414 21.3662C38.9318 21.3672 39.33 21.555 39.3693 21.5474C39.6811 21.4776 38.297 21.0703 38.3573 20.8721C38.3616 20.8665 38.6075 20.9703 38.6379 20.9613C38.7332 20.9331 38.648 20.8504 38.751 20.8251C38.989 20.7677 39.6747 20.9218 39.3365 20.6237C39.2923 20.5857 38.4963 20.3933 38.5853 20.2228C38.6214 20.1564 38.6976 19.8312 38.7727 19.7559C38.8482 19.6801 39.086 19.8108 39.0987 19.8075C39.5015 19.654 39.616 19.784 40.1483 19.7917C40.6786 19.7985 39.4833 19.5199 39.364 19.4352C39.2451 19.3508 39.5705 19.2423 39.6789 19.222C39.7872 19.2025 39.9353 19.2995 40.0003 19.274C40.4262 19.1014 39.4396 19.0084 39.2727 18.8745C38.8768 18.5588 39.7981 18.6228 39.931 18.4535C39.9668 18.4081 39.7553 18.4007 39.7474 18.3511C39.7183 18.1564 40.0206 18.1125 39.8149 17.8494C39.7816 17.8062 39.2869 17.5188 39.7026 17.5021C39.7625 17.4999 39.9735 17.5938 40.0406 17.5284C40.1411 17.4317 40.2363 17.2354 40.19 17.0952C40.1555 16.9922 39.7678 17.0148 39.9064 16.926C39.9683 16.8865 40.1607 17.0282 40.2592 16.9497C40.3576 16.8718 40.4019 16.6249 40.4145 16.5309C40.4271 16.4366 40.1391 16.4274 40.1221 16.4158C40.0377 16.3564 39.9547 16.1928 39.9368 16.1406C39.934 16.1332 39.9327 16.1282 39.9331 16.1263C40.0567 15.3765 40.6307 14.7142 40.5484 13.9224C40.5422 13.8609 40.2409 13.8731 40.2369 13.8635C40.1309 13.6478 40.9075 13.8822 41.1854 13.758C40.5794 13.7271 40.6966 13.6495 40.6418 13.4983C40.6148 13.4253 40.3777 13.4458 40.3542 13.4375C40.0065 13.3077 40.4708 13.2692 40.5661 13.2566C40.9168 13.2108 40.5129 13.1082 40.7471 13.0755C40.9795 13.0416 41.3131 13.1737 41.3174 13.029C41.1031 12.9765 40.5307 13.0478 40.4451 12.9362C40.1231 12.5209 40.5874 11.7953 40.6318 11.467C40.6779 11.1435 40.6354 11.0399 40.7101 10.8497C40.8431 10.5052 40.4255 10.6411 40.2256 10.4413C40.0245 10.2422 41.0631 10.2966 41.2842 10.2563C41.5051 10.2154 41.2747 10.1925 41.395 10.1484C41.5152 10.104 41.6706 10.1798 41.7119 10.0868C41.7534 9.9927 41.3429 9.76806 41.1084 9.75408C40.6118 9.72195 40.1034 9.86352 40.2682 9.62473C40.2779 9.61082 40.5527 9.63282 40.5763 9.58039C40.7545 9.16251 40.7235 8.74288 40.8499 8.31476C40.8676 8.25567 41.1746 8.26241 41.1882 8.2271C41.3285 7.85477 40.8411 8.05183 40.2523 7.96793C41.0034 7.88317 41.4435 7.70205 41.3968 7.43425C41.3682 7.27358 41.0501 7.366 40.8022 7.31561C40.7275 7.30058 40.9249 7.14338 40.769 7.15774C40.2598 7.20657 39.7305 7.43018 39.8925 7.13744C39.9003 7.12414 40.1782 7.09212 40.1853 7.05072C40.2209 6.8467 39.9222 6.85706 39.7234 6.78063C39.6621 6.75762 39.6102 6.72681 39.5791 6.67917C39.4797 6.52634 39.6626 6.10771 39.607 5.88901C40.3697 5.51297 40.0746 5.37412 39.532 5.61264C39.4804 5.48119 39.3701 5.37958 39.351 5.22428C39.3441 5.1709 39.5554 5.0419 39.5726 5.02091C39.8349 4.68124 39.3495 4.99124 39.3157 4.98672C38.9469 4.89591 39.0059 4.38209 38.496 4.54456C38.4764 4.54989 38.1417 5.03459 38.3091 4.63086C38.3188 4.60199 38.5538 4.43265 38.4361 4.33444C38.326 4.23957 38.1945 3.81141 37.8753 3.97206C37.7958 4.00889 37.5013 4.4043 37.5381 4.01847C37.5428 3.96591 37.6178 3.81348 37.6311 3.71788C37.6686 3.41169 37.4315 3.95957 37.521 3.4545C37.6114 2.94977 37.5334 2.52305 37.1916 2.78886C37.1805 2.79628 36.9962 3.23487 36.9262 3.20811C36.8127 3.16429 36.6699 3.02667 36.5449 3.00033C36.4853 2.98792 36.456 3.28243 36.4445 3.28523C36.0177 3.35459 35.7907 3.04323 35.3798 2.84902C35.3045 2.81284 35.0037 3.16332 34.909 2.82372C34.8056 2.45178 35.2424 1.06927 34.8005 1.33395C34.6451 1.42798 34.1915 2.82205 34.0258 2.44043L34.0141 2.43914C33.9844 2.396 33.9539 2.32456 33.9216 2.2186C33.3735 2.45092 32.772 2.01491 32.2676 2.49094C32.2441 2.51239 32.3057 3.02429 32.255 3.03265C32.1756 3.04505 32.0575 2.83344 31.9934 2.83927C31.7222 2.8596 31.593 3.14428 31.3733 3.23443C31.2888 3.27073 31.1899 3.04213 31.0832 3.09254C30.9749 3.14611 31.0995 3.453 30.8868 3.4164C30.7273 3.38716 30.2079 2.95283 30.0178 3.01846C30.3054 3.34873 30.3594 3.48593 30.3588 3.61803C30.3572 3.68841 30.3475 3.7528 30.3471 3.83755C30.3473 3.88683 30.541 4.01262 30.5499 4.04369C30.5905 4.17305 30.4078 4.09345 30.4587 4.22763C30.4709 4.25997 30.6363 4.41014 30.6557 4.44496C30.8276 4.74559 30.3325 4.54626 30.2453 4.51272C29.9165 4.38275 30.0965 4.61804 29.9373 4.60091C29.7774 4.58453 29.7465 4.37193 29.6153 4.40092C29.3429 4.46199 29.1799 4.7026 29.0213 4.86673C28.959 4.93325 29.2236 5.08406 29.2199 5.09817C29.1517 5.28975 28.7885 5.22077 29.1617 5.69464C27.9297 4.76795 29.1973 5.87884 28.7869 5.87481C28.7539 5.87415 28.1974 5.40659 28.1724 5.2752C28.1467 5.14468 28.398 5.20475 28.3486 5.01057C28.3375 4.9645 27.9297 4.399 27.9126 4.35619C27.7781 4.02236 28.6061 4.72456 28.6564 4.75771C29.2035 5.11036 28.7772 4.48508 28.7715 4.41479C28.7453 4.09313 28.9867 4.04937 28.9876 3.79748C28.9895 3.63316 28.4643 3.1537 28.5466 3.09345C28.8242 2.88896 29.6309 3.47349 29.2231 2.64808C29.1795 2.55651 28.9954 2.38548 28.9121 2.27136L29.0018 2.18142C28.9336 2.06574 28.961 1.99616 29.2784 2.11182C29.3236 2.12258 29.8558 2.40233 29.7442 2.04304C29.7307 1.99716 29.5917 1.81826 29.5994 1.78836C29.6559 1.59089 29.8498 1.67349 29.9508 1.50285C30.0524 1.33196 30.1838 1.10281 30.4103 1.07095C30.5487 1.04968 30.8749 1.36216 30.966 1.43464C31.2255 1.64298 31.1974 1.12974 31.4163 1.43332C31.6225 1.74404 31.664 2.3125 31.9316 2.46693C31.7501 1.90714 31.5774 1.32803 31.4084 0.760671C31.9929 0.591108 32.5732 0.686226 33.0867 0.616916C33.151 0.607832 33.0585 0.297867 33.1291 0.28007C33.4309 0.207329 33.6892 0.426069 33.978 0.33817C33.9994 0.331656 34.021 0.322845 34.0429 0.312171L34.464 0.358901C34.6359 0.287724 34.8546 0.0440018 35.0291 2.38419e-07C35.009 0.682143 35.324 0.509063 35.5162 0.607717C35.5836 0.642039 35.5456 0.817884 35.5857 0.885145C35.7382 1.1348 35.759 0.533189 35.8299 0.451321C36.1373 0.103306 35.9025 1.42916 36.182 1.45143C36.1957 1.45272 36.5229 0.787262 36.5592 0.749441C36.7844 0.499422 36.5343 0.999505 36.6248 1.07332C36.7907 1.2089 36.8786 1.40442 37.1527 1.25577C37.2312 1.21101 37.5084 0.820188 37.55 1.19114C37.5551 1.23961 37.4819 1.46555 37.4918 1.48273C37.673 1.77501 37.8912 1.06347 38.1223 0.871174C38.3569 0.680086 38.4345 1.25358 38.4271 1.40969C38.4165 1.81503 38.2769 1.529 38.2572 1.56261C38.0317 1.95829 38.2193 1.94196 38.3278 2.02468C38.0842 2.71377 38.2552 2.7351 38.4417 2.10858C38.4612 2.03961 38.3402 2.06504 38.3278 2.02468C38.6893 1.39484 38.9596 1.40456 38.8927 2.11363C38.8571 2.44549 38.6078 2.72704 38.9461 2.75016C39.1009 2.76454 39.2922 2.29534 39.4831 2.24549C39.9324 2.14001 40.0421 2.78313 40.3423 2.94307C40.456 3.00442 40.5401 2.71398 40.6264 2.75138C40.8612 2.85662 40.8698 3.15307 41.11 3.25831C41.1325 3.26824 41.3078 3.03221 41.3637 3.08836C41.7948 3.52029 41.9353 4.0606 42.194 4.57527C42.3236 4.82592 42.6593 5.2168 42.7181 5.49714C42.7452 5.61977 42.748 5.75875 42.7392 5.9022C42.7043 6.26857 42.5798 6.64364 42.7058 6.87429C42.8155 7.07877 43.0876 6.97342 43.2998 7.03192C43.7121 7.15025 43.0958 7.59834 42.9969 7.6528C42.9938 7.65423 42.8959 7.48071 42.7663 7.60349C42.4712 7.71033 42.9952 7.65059 42.9969 7.6528C42.9351 7.69257 42.9257 8.07106 42.9892 8.13672C43.0245 8.17264 43.2924 8.11392 43.3056 8.13364C43.6149 8.60239 43.7327 9.10505 43.6383 9.61503C43.6334 9.62418 43.3274 9.63113 43.3196 9.65218C43.2023 9.94638 43.5844 10.1076 43.8158 10.3396C44.0466 10.5704 43.9767 10.7673 43.4544 10.9157C43.5239 11.0927 43.2934 11.3493 43.152 11.4928C43.0108 11.6362 43.6055 11.661 43.6172 11.6742C43.9895 12.0829 43.6429 12.3133 43.5725 12.7263C43.5382 12.9233 43.602 13.3213 43.6508 13.5417C43.6907 13.7172 43.5437 13.807 43.6189 13.9728C43.629 13.9951 43.8948 13.9965 43.9044 14.0039C44.2045 14.2099 43.5668 14.0663 43.4483 14.092C43.0173 14.1835 42.7872 14.24 42.9607 14.4797C43.0005 14.5342 43.9106 14.7898 43.953 14.8939C44.0066 15.0275 43.6805 14.9402 43.7445 15.081C43.7496 15.0931 43.9546 15.1169 43.935 15.197C43.8462 15.5714 43.6643 15.9656 43.6109 16.3679C43.6027 16.4232 43.9376 16.4121 43.9307 16.4939C43.9176 16.6505 43.8915 16.8186 43.8492 16.9792C43.7954 17.1782 43.7117 17.3687 43.5824 17.5377C43.5273 17.608 43.3144 17.5093 43.2443 17.5117C42.8194 17.5271 43.3703 17.8041 43.3759 17.8312C43.5246 18.4803 42.8932 18.8059 42.9964 19.4651C43.0035 19.5 43.5621 19.9096 43.0003 19.8879C42.9628 19.8871 42.3899 19.8578 42.7371 20.0517C42.7588 20.0639 43.0573 20.0661 42.9972 20.1808C42.9371 20.2956 43.0732 20.5391 42.7204 20.6259C42.6091 20.6538 42.0348 20.6289 42.4227 20.9047C42.4504 20.922 43.3555 21.4417 42.6591 21.3392C42.5445 21.3221 41.8389 21.1048 42.1486 21.3975C42.2087 21.4539 42.3859 21.434 42.4571 21.558C42.567 21.7479 42.3195 21.8872 42.579 22.1633C42.6255 22.2105 43.0619 22.4969 42.6643 22.4931C42.6021 22.4923 42.3771 22.3862 42.3328 22.4351C42.1215 22.6653 42.1839 23.0039 41.9262 23.2274C41.8356 23.3059 41.4769 23.1241 41.3405 23.1904C41.2038 23.2579 41.036 23.4207 41.1668 23.5913C41.2978 23.7617 41.9372 23.8653 41.9231 24.0473C41.8571 24.8438 41.2044 25.4295 40.7588 26.1462C40.6915 26.2533 40.9437 26.2664 40.854 26.4378C40.5613 27.0385 39.9068 28.3533 38.9155 28.5767C38.1715 28.7179 38.5821 27.9684 38.1236 28.1561C38.0633 28.1792 38.0414 28.2504 38.0371 28.3446C38.0383 28.5806 38.155 28.9759 38.1321 29.0125C37.8306 29.5087 37.3499 29.4031 36.9813 29.6876C36.9022 29.7469 37.1139 29.9791 37.0426 30.0273C36.7953 30.1959 36.4556 30.1827 36.1918 30.291C36.0722 30.3403 36.1608 30.5523 36.0371 30.5695C35.743 30.6108 35.4581 30.5748 35.1432 30.4079C35.1163 30.3923 35.2366 30.0857 35.0309 30.1069C34.6911 30.141 34.2771 29.9588 33.8753 30.1595C33.7579 30.2192 33.7088 30.7433 33.4723 30.358C33.4216 30.2756 33.572 29.6665 33.2025 30.1613C33.1581 30.2511 32.4469 30.8582 32.3091 30.3189C32.2882 30.229 32.2752 29.9707 32.2322 29.8085C32.2273 29.7264 32.2112 29.6729 32.1729 29.6899C32.1574 29.6983 32.1125 29.9794 32.0344 29.9817C31.7599 29.9848 31.5066 29.8637 31.21 29.8456C31.1301 29.8411 31.1343 30.1533 31.0172 30.1372C30.6941 30.0931 30.3341 29.8652 30.0652 29.6414C29.9663 29.5585 30.1455 29.3761 30.148 29.3485C30.1995 28.9033 29.8778 29.3857 29.8174 29.3936C29.4519 29.4381 29.3623 29.0852 29.0719 29.0001C28.9911 28.975 28.9035 29.2411 28.8769 29.2539C28.6037 29.3699 28.9669 29.0131 28.9013 28.9106C28.7201 28.6222 28.4248 28.4524 28.145 28.2864C28.0418 28.2254 27.9584 28.5606 27.8659 28.5008C27.312 28.1496 26.7979 27.6198 26.5126 26.998C26.4598 26.8812 26.6988 26.7864 26.7259 26.7314C26.9234 26.3566 26.356 26.4875 26.277 26.464C25.9313 26.3794 26.0506 26.1671 25.8919 25.9904C25.7607 25.8436 25.6386 25.6804 25.5273 25.5053C25.0871 24.8506 24.8283 24.006 24.6485 23.3421C24.3643 22.2958 24.3462 21.4465 24.0486 20.4876C24.0302 20.4262 23.7289 20.5652 23.7088 20.5126C23.4643 19.8258 23.4586 19.1038 23.2674 18.4026C23.2523 18.3446 22.9581 18.4718 22.9236 18.379C22.8506 18.1888 22.8372 17.9355 22.9146 17.7265C22.9518 17.6249 23.2285 17.7268 23.2607 17.6261C23.3366 17.3922 23.3381 17.1531 23.2727 16.9269C23.2442 16.8303 22.9396 17.0007 22.9272 16.8722C22.8376 15.9992 22.7764 15.1141 23.2293 14.2549C23.2605 14.1955 23.9035 14.1792 23.7883 14.0483C23.6112 14.0278 23.4022 14.0153 23.2126 13.9992C23.1936 12.941 23.4724 11.9142 23.7548 10.9046C23.8111 10.7043 23.8666 10.5055 23.9193 10.3056C23.9325 10.2553 23.581 10.2656 23.6051 10.1672C23.7437 9.60208 23.8027 9.02056 24.2977 8.55078C24.3466 8.50377 24.9096 8.70582 24.8731 8.51786C24.8659 8.48462 24.867 8.21699 24.765 8.11207C24.7493 8.09726 24.4691 8.0564 24.4875 7.97365C24.5989 7.49622 24.8339 7.02731 25.174 6.62905C25.2294 6.56522 25.4747 6.75292 25.5163 6.70912C25.8088 6.39879 25.7728 5.90643 26.1965 5.6475C26.4823 5.47603 26.8977 5.79674 27.4109 5.90326C27.4819 5.92032 27.572 5.77691 27.8331 5.91408C28.4859 6.26223 29.1656 6.70677 29.8668 7.06817C30.0209 7.13977 29.8987 6.98671 30.2327 7.22831C30.2566 7.24131 30.3423 7.36719 30.4551 7.4523C30.5338 7.50952 30.8094 7.62818 30.9061 7.70898C31.0042 7.7872 30.7658 7.7021 30.8716 7.81487C30.9793 7.92837 31.2962 8.05396 31.2863 8.16888ZM42.5141 12.1278C42.225 12.2503 43.2708 12.3005 43.0242 12.1492C43.0111 12.1418 42.5282 12.1214 42.5141 12.1278ZM32.6761 1.48582C32.9282 1.91464 32.9779 1.22811 32.7943 0.890298C32.5959 0.555984 32.5918 1.35746 32.6761 1.48582ZM30.8611 2.46941C31.2269 2.67844 30.569 1.34631 30.462 1.75245C30.4554 1.77601 30.8387 2.45818 30.8611 2.46941ZM27.2747 6.51856C27.2875 6.52356 27.3455 6.429 27.3338 6.4217C27.0563 6.2289 26.9397 6.41994 27.2747 6.51856ZM29.7029 3.97301C29.8923 4.06201 29.8354 3.77784 29.599 3.66759C29.4088 3.57886 29.4659 3.86376 29.7029 3.97301ZM40.4288 18.5688C40.4132 18.5671 40.3823 18.6346 40.4683 18.6541C40.7454 18.7166 40.6916 18.5984 40.4288 18.5688ZM27.8151 6.1091C28.1394 5.84207 29.2213 6.47484 28.8027 6.72608C28.7274 6.77091 28.6384 6.32738 28.4845 6.33128C28.2051 6.33724 28.6797 6.95758 28.2413 6.8217C28.1623 6.79563 27.795 6.12222 27.8143 6.10739C27.8146 6.10796 27.8148 6.10853 27.8151 6.1091ZM41.2552 12.1687C41.2413 12.1709 41.2253 12.2708 41.2389 12.2736C41.5694 12.3389 41.6021 12.1351 41.2552 12.1687ZM38.635 22.4271C38.6057 22.4224 38.5019 22.6259 38.5243 22.6427C38.9919 22.9463 39.2079 22.5233 38.635 22.4271ZM39.6257 5.8757C39.2862 5.94633 39.2109 5.89346 39.5319 5.61322C39.56 5.70238 39.6023 5.78504 39.6257 5.8757Z" fill="#735A47"/>
<path d="M53.3152 20.2525C53.2806 20.6381 53.0346 21.0404 52.7925 21.3219C52.717 21.4102 52.5607 21.296 52.5004 21.355C52.3839 21.4669 52.4222 21.6302 52.2941 21.733C52.2505 21.7677 51.9937 21.613 51.9542 21.6518C51.7391 21.8672 51.7235 22.1322 51.5708 22.3724C50.8217 23.5451 50.2683 24.7563 49.6897 25.9977C49.4992 26.4068 49.0675 26.8347 49.0273 27.3103C49.0229 27.3658 49.2773 27.4193 49.294 27.4359C49.5498 27.693 49.0747 27.4734 48.975 27.551C48.8945 27.6138 48.8234 27.6815 48.7611 27.7526C48.5797 27.8421 48.5267 28.1293 48.5822 28.3868C48.6123 28.5273 49.1348 28.4366 48.8369 28.5467C48.8167 28.5549 48.5465 28.4977 48.5143 28.5339C48.4415 28.6171 48.4809 28.795 48.4568 28.8665C48.4085 29.0056 48.4108 29.0295 48.4055 29.1662C48.3962 29.352 48.2616 29.5822 48.3286 29.7908C48.3437 29.8351 48.623 29.77 48.6726 29.8388C48.7218 29.9074 48.7042 30.0959 48.6407 30.1619C48.577 30.2283 48.3554 30.2101 48.3053 30.2235C47.8823 30.3356 48.4838 30.5334 48.4999 30.5603C48.6416 30.8218 48.6302 31.0735 48.5908 31.3265C48.5421 31.3922 48.4778 31.4713 48.5115 31.5478C48.5642 31.6659 48.7698 31.7568 48.9351 31.9281C49.1309 32.1346 49.2982 32.4418 49.6372 32.6304C49.6728 32.6505 49.8119 32.3474 49.8551 32.3709C49.9411 32.4176 50.0284 32.4671 50.1166 32.5204C50.3659 32.6682 50.6127 32.839 50.9009 33.1082C50.9369 33.1417 50.8042 33.4058 50.838 33.4565C51.0279 33.7636 51.5091 34.4155 51.8046 33.1712C51.9915 33.2394 52.2258 33.3014 52.4116 33.557C52.5324 33.7213 52.4123 34.0372 52.5673 33.9018C52.602 33.8714 52.5543 33.5954 52.6051 33.5707C52.8153 33.4668 53.0562 33.5445 53.259 33.3843C53.3001 33.3511 53.267 33.1051 53.2752 33.0597C53.3404 32.6917 53.5663 33.2684 53.6116 33.3066C53.9379 33.5946 54.1416 33.4354 54.4145 33.3962C54.4783 33.387 54.3461 33.0723 54.4044 33.0518C54.7062 32.9497 55.0312 32.9102 55.3738 32.9802C55.4504 32.9964 55.4533 33.2873 55.4936 33.3091C55.673 33.4007 55.5752 32.8731 55.7424 32.9496C55.7776 32.965 55.8221 33.2042 55.8342 33.2286C56.0256 33.6112 55.9485 33.018 55.9659 32.9997C56.1901 32.7537 56.5364 33.2979 56.7814 33.132C56.81 33.1117 56.649 32.8398 56.7342 32.8007C56.7539 32.7915 56.7737 32.7826 56.7936 32.7738C57.2337 32.5638 57.7073 32.4195 58.2771 32.3019C58.3683 32.2825 58.4551 32.5045 58.4757 32.5247C58.8147 32.8276 58.5078 32.3124 58.5146 32.2789C58.5863 32.0203 59.0833 32.2486 58.7164 31.622C59.5834 31.1525 59.8563 30.1264 60.9307 29.596C60.9439 29.5886 61.1808 29.7632 61.2062 29.7474C61.5155 29.5574 61.094 29.3719 60.718 28.9123C60.6229 28.7981 61.2851 28.9966 61.3356 29.0072C61.5196 29.0516 61.8717 29.3149 61.911 29.317C62.2256 29.3226 60.9572 28.6352 61.0489 28.4686C61.054 28.4645 61.2742 28.615 61.3052 28.6136C61.4023 28.6091 61.3339 28.5143 61.438 28.5143C61.6778 28.5158 62.3166 28.8087 62.0398 28.4597C62.0034 28.4151 61.2645 28.0625 61.3788 27.9274C61.4254 27.8738 61.5529 27.5943 61.6389 27.5407C61.725 27.4873 61.934 27.6587 61.947 27.6584C62.3643 27.6039 62.4536 27.7481 62.9697 27.8697C63.4846 27.9886 62.369 27.4768 62.2673 27.3733C62.166 27.2701 62.5006 27.24 62.6094 27.2446C62.7182 27.2495 62.8458 27.3707 62.9134 27.3608C63.3572 27.2919 62.4127 26.9969 62.273 26.8379C61.9409 26.4638 62.8272 26.7174 62.9853 26.5902C63.0278 26.5561 62.8233 26.5044 62.8241 26.4568C62.8296 26.2704 63.1309 26.2955 62.977 26.0083C62.952 25.9613 62.5213 25.5891 62.929 25.6633C62.9877 25.6743 63.1764 25.8067 63.2533 25.761C63.3684 25.6931 63.4962 25.5336 63.4769 25.394C63.4624 25.2912 63.0812 25.2262 63.2325 25.1748C63.3 25.1522 63.4608 25.3255 63.5709 25.2754C63.6808 25.2256 63.7706 25.0078 63.8008 24.9248C63.831 24.8411 63.5535 24.7659 63.5392 24.7515C63.4584 24.6655 63.4071 24.4518 63.4138 24.4382C63.5326 24.1498 63.7282 23.9021 63.93 23.667C64.1979 23.3782 64.4595 23.0436 64.4751 22.6271C64.4774 22.5724 64.1794 22.5297 64.1768 22.5206C64.0998 22.3189 64.8341 22.6545 65.1251 22.5858C64.5312 22.4614 64.657 22.4124 64.6197 22.27C64.601 22.2016 64.3641 22.187 64.3418 22.1763C64.0107 22.0176 64.4735 22.048 64.5695 22.0472C64.9219 22.0489 64.5302 21.9101 64.7655 21.9074C64.9995 21.9012 65.3195 22.0587 65.3366 21.9242C65.1276 21.8552 64.5529 21.8597 64.4763 21.753C64.1897 21.3669 64.6747 20.7625 64.7183 20.4591C64.7652 20.1679 64.7203 20.0739 64.7916 19.901C64.9167 19.5821 64.5025 19.7217 64.2967 19.5515C64.0892 19.3852 65.1278 19.3797 65.3471 19.332C65.566 19.2825 65.335 19.2736 65.4531 19.2256C65.5711 19.1769 65.7298 19.241 65.7666 19.1497C65.8036 19.0558 65.382 18.8716 65.1471 18.8749C64.65 18.8808 64.1511 19.0456 64.3024 18.8208C64.3113 18.8075 64.5864 18.8057 64.6068 18.7563C64.7594 18.3617 64.6965 17.9788 64.7816 17.5695C64.7936 17.5126 65.0984 17.4811 65.1085 17.4465C65.2101 17.0818 64.7463 17.3253 64.1572 17.3348C64.8896 17.1502 65.307 16.9227 65.2244 16.6707C65.1759 16.5257 64.8728 16.6589 64.6229 16.6562C64.5486 16.6577 64.7192 16.4758 64.5684 16.518C64.0785 16.6636 63.5926 16.9619 63.7178 16.6949C63.7237 16.6825 63.9856 16.5867 63.9875 16.5521C63.9916 16.4409 63.882 16.4392 63.7594 16.4671C63.6462 16.5049 63.4765 16.535 63.5141 16.6471C63.5065 16.6461 63.4993 16.6444 63.4925 16.6419C63.384 16.6037 63.3719 16.1954 63.216 16.0553C63.6284 15.3115 63.319 15.3732 63.0185 15.883C62.9095 15.8088 62.7659 15.7899 62.6665 15.6722C62.6315 15.6317 62.7358 15.4073 62.7386 15.3802C62.7736 14.9537 62.5443 15.4802 62.5117 15.494C62.1481 15.6159 61.9579 15.1391 61.575 15.5086C61.5606 15.5219 61.4631 16.1033 61.4387 15.6657C61.4364 15.6355 61.5777 15.3833 61.43 15.3433C61.287 15.3034 61.0183 14.9598 60.7834 15.2205C60.7259 15.2829 60.5784 15.7545 60.4886 15.3773C60.4763 15.3261 60.4976 15.1576 60.4801 15.0628C60.422 14.7609 60.3714 15.3558 60.3034 14.848C60.2354 14.3403 60.0558 13.9583 59.826 14.3111C59.8184 14.3214 59.7717 14.7945 59.702 14.7887C59.5897 14.7789 59.4242 14.6865 59.3059 14.6955C59.2493 14.6999 59.3004 14.9911 59.2909 14.9969C58.9265 15.181 58.645 14.9412 58.2256 14.8728C58.1468 14.8599 57.9871 15.2818 57.8031 14.9878C57.5979 14.667 57.5662 13.2153 57.2275 13.6128C57.0848 13.7739 57.2082 15.6044 56.7821 14.7206C56.3189 15.0456 55.7352 14.6806 55.3103 15.1439C55.2908 15.1646 55.3572 15.6754 55.3054 15.683C55.2279 15.6934 55.1161 15.4779 55.0564 15.4794C54.806 15.4794 54.6551 15.7431 54.4305 15.7907C54.3467 15.809 54.2877 15.5679 54.182 15.5931C54.1253 15.607 54.1145 15.7079 54.0894 15.7834C54.094 15.8487 54.0734 15.9046 53.9762 15.8895C53.8172 15.864 53.3161 15.4159 53.1527 15.4493C53.5617 15.96 53.4756 16.0123 53.4504 16.2575C53.4459 16.3048 53.6192 16.457 53.6246 16.4883C53.6504 16.6195 53.4837 16.5129 53.5194 16.6499C53.5279 16.6829 53.6716 16.854 53.6868 16.8905C53.8229 17.2061 53.3713 16.9323 53.2909 16.8866C52.988 16.71 53.1412 16.9628 52.9908 16.9223C52.8392 16.8831 52.8252 16.6748 52.6963 16.6847C52.4949 16.7012 52.3434 16.8303 52.2138 16.9596C52.1707 17.0026 52.1304 17.0451 52.0904 17.0842C52.0274 17.148 52.2884 17.3053 52.2844 17.3191C52.2251 17.4938 51.858 17.4431 52.2742 17.8782C50.9706 17.0581 52.3284 18.0484 51.9533 18.0629C51.9235 18.0638 51.2894 17.7071 51.2472 17.5746C51.2068 17.4401 51.4682 17.4592 51.4074 17.2635C51.3896 17.2208 50.9651 16.6591 50.9535 16.6093C50.8399 16.2413 51.676 16.9386 51.725 16.9723C52.2698 17.3262 51.8565 16.6972 51.8616 16.6203C51.8616 16.6179 51.8616 16.6156 51.8616 16.6133C51.8654 16.2888 52.1111 16.2634 52.1387 16.016C52.1583 15.8539 51.6954 15.3142 51.786 15.2632C52.0885 15.0943 52.8057 15.7881 52.4863 14.9359C52.4187 14.7541 51.8777 14.1922 52.4426 14.52C52.4785 14.5404 52.9605 14.8693 52.813 14.5343C52.7944 14.492 52.6522 14.3157 52.6526 14.291C52.6569 14.1771 52.7404 14.1902 52.8018 14.1612L53.3183 13.8598C53.3523 13.8535 53.3851 13.8384 53.4142 13.7993C53.5118 13.6685 53.624 13.49 53.7957 13.5118C53.9025 13.5233 54.1421 13.8885 54.2138 13.9738C54.4171 14.2204 54.3923 13.7173 54.5662 14.0412C54.7382 14.3677 54.7691 14.9325 55.0061 15.1061C54.8459 14.5398 54.691 13.9559 54.5364 13.3845C54.9569 13.2834 55.4031 13.3674 55.8045 13.2522C55.854 13.2374 55.7344 12.9398 55.7866 12.9158C56.0105 12.8158 56.2552 12.9967 56.4793 12.864C56.6507 12.7606 56.8025 12.3949 56.9897 12.2804C57.2152 12.9264 57.4672 12.6587 57.6893 12.6933C57.7661 12.7051 57.783 12.8842 57.8422 12.9362C58.064 13.1286 57.904 12.5484 57.9486 12.449C58.1459 12.0256 58.3036 13.3629 58.5662 13.3063C58.5788 13.3037 58.6993 12.5738 58.7229 12.5275C58.8617 12.2252 58.7673 12.7747 58.8695 12.8208C59.0567 12.9056 59.1865 13.0698 59.3894 12.8512C59.4473 12.7865 59.5868 12.334 59.717 12.6777C59.734 12.7227 59.7297 12.9602 59.7427 12.9738C59.9754 13.2017 59.9745 12.457 60.1143 12.2045C60.2568 11.9522 60.4657 12.4717 60.5016 12.6215C60.6009 13.0084 60.4123 12.7829 60.4052 12.8207C60.3262 13.2673 60.4753 13.193 60.5876 13.2351C60.5781 13.9661 60.7292 13.9288 60.7037 13.2762C60.7003 13.2048 60.6091 13.2693 60.5876 13.2351C60.7121 12.5218 60.9135 12.4387 61.0653 13.1217C61.1339 13.4422 61.0208 13.7991 61.2981 13.6893C61.4268 13.6411 61.4294 13.1354 61.5589 13.0113C61.8589 12.7289 62.1446 13.2456 62.4282 13.2276C62.5335 13.2214 62.4902 12.9315 62.5657 12.9185C62.7733 12.8854 62.89 13.1254 63.111 13.0761C63.1317 13.0715 63.1637 12.781 63.2276 12.795C63.7152 12.8994 64.0785 13.2236 64.5892 13.4994C64.8352 13.6272 65.3815 13.7939 65.6253 14.0536C65.6867 14.1168 65.7439 14.1899 65.7965 14.2696C66.2391 14.8149 66.2057 15.0796 66.2659 15.3374C66.3046 15.5842 66.3303 15.7793 66.4293 15.9109C66.5759 16.1089 66.8275 15.963 67.0477 15.9932C67.4804 16.0688 66.9304 16.6049 66.8378 16.6682C66.835 16.6698 66.7156 16.5096 66.6028 16.6483C66.3235 16.7909 66.8358 16.666 66.8378 16.6682C66.7825 16.7169 66.8172 17.0924 66.8872 17.1523C66.9259 17.1832 67.186 17.0964 67.2013 17.1142C67.5595 17.5478 67.7228 18.0481 67.6625 18.5709C67.6582 18.5805 67.3533 18.607 67.3469 18.6288C67.2485 18.93 67.6381 19.0707 67.8796 19.3011C68.1202 19.5292 68.0559 19.7432 67.5366 19.9037C67.6099 20.085 67.3809 20.3515 67.2384 20.4979C67.0961 20.6427 67.69 20.6759 67.7016 20.6902C68.0662 21.1283 67.7101 21.3695 67.6092 21.8042C67.5609 22.012 67.583 22.4466 67.5989 22.695C67.6136 22.8917 67.4528 22.9734 67.4985 23.1649C67.5044 23.191 67.7677 23.23 67.7758 23.2395C68.0343 23.5146 67.4296 23.2604 67.3077 23.2711C66.863 23.3077 66.6287 23.3207 66.7471 23.6087C66.7755 23.6711 67.6089 24.1247 67.6202 24.2559C67.6351 24.4201 67.3404 24.2528 67.3623 24.4246C67.3638 24.4393 67.5579 24.5101 67.5138 24.5978C67.409 24.8084 67.272 25.0178 67.1327 25.2284C67.0413 25.3456 66.9535 25.476 66.8993 25.6139C66.883 25.6529 67.2018 25.7441 67.1834 25.8026C67.0952 26.0797 66.9502 26.3641 66.689 26.5654C66.6237 26.6147 66.4345 26.4779 66.3661 26.4637C65.952 26.3791 66.4386 26.7523 66.4394 26.7778C66.4748 27.3889 65.8078 27.5463 65.7967 28.1736C65.7976 28.2073 66.2722 28.7026 65.7289 28.5638C65.6925 28.555 65.1397 28.4069 65.4446 28.6597C65.4636 28.6756 65.7537 28.7411 65.6757 28.8341C65.598 28.927 65.6873 29.1842 65.3293 29.1891C65.2161 29.1915 64.6612 29.047 64.9903 29.3866C65.0147 29.4079 65.8031 30.0871 65.1428 29.844C65.0342 29.8037 64.3869 29.449 64.6358 29.789C64.6841 29.8548 64.8602 29.874 64.9069 30.0058C64.9787 30.209 64.7131 30.2853 64.9132 30.6033C64.9494 30.6585 65.3199 31.0238 64.9336 30.9341C64.8732 30.9198 64.6747 30.7701 64.6222 30.8068C64.3725 30.9789 64.3669 31.314 64.0718 31.4683C63.9678 31.5227 63.6558 31.2696 63.5109 31.3004C63.366 31.3312 63.1693 31.4485 63.262 31.6389C63.3541 31.8304 63.952 32.0779 63.9003 32.2478C63.6679 32.9941 62.9019 33.3967 62.3274 33.9496C62.2408 34.0324 62.4765 34.1123 62.3576 34.2469C61.9437 34.7398 61.1201 35.7367 60.3043 35.6798C59.6791 35.6255 60.0311 35.0469 59.6433 35.1091C59.465 35.1334 59.6711 35.8665 59.6392 35.9109C59.363 36.3357 58.931 36.1782 58.5977 36.4203C58.5265 36.4707 58.7142 36.7186 58.6501 36.7591C58.4825 36.8668 58.2658 36.8689 58.0734 36.9039C58.031 36.9096 57.9903 36.919 57.953 36.9364C57.8814 36.9704 57.9614 37.185 57.8865 37.1891C57.7081 37.2012 57.532 37.1523 57.3111 36.9917C57.2912 36.977 57.3134 36.6755 57.1883 36.6995C56.9849 36.7394 56.6864 36.6001 56.5078 36.8691C56.4552 36.9497 56.5751 37.4585 56.3398 37.1438C56.2903 37.078 56.1881 36.458 56.1368 37.0263C56.1308 37.1205 55.9837 37.9024 55.7356 37.4717C55.6704 37.3585 55.4712 36.8751 55.4021 36.9707C55.3928 36.9856 55.4933 37.252 55.4267 37.2927C55.1909 37.4313 54.9152 37.4484 54.6592 37.575C54.5904 37.6094 54.7413 37.8808 54.6354 37.923C54.3439 38.0396 53.9459 38.011 53.6324 37.9448C53.5162 37.92 53.5759 37.6739 53.5654 37.6485C53.404 37.2341 53.3693 37.8119 53.3257 37.8483C53.0598 38.0653 52.8348 37.803 52.5762 37.8765C52.5039 37.8959 52.5564 38.1696 52.542 38.1941C52.3885 38.4331 52.5026 37.941 52.4077 37.8864C52.1422 37.7313 51.8462 37.742 51.5644 37.7548C51.4605 37.7598 51.5513 38.086 51.4563 38.0864C50.892 38.094 50.272 37.9636 49.7384 37.6386C49.6385 37.5768 49.7717 37.3593 49.7641 37.2994C49.7233 36.8836 49.3528 37.3255 49.2799 37.3542C48.9646 37.4924 48.942 37.2526 48.7171 37.2049C48.325 37.1204 47.9099 36.9469 47.5166 36.7053C47.0519 36.4224 46.5273 35.9877 46.0463 35.5006C45.1991 34.661 44.3651 33.2617 44.2717 31.6152C44.2656 31.5284 44.2568 31.4413 44.2448 31.3513C44.2379 31.2971 43.9164 31.3723 43.9063 31.3257C43.7907 30.7186 43.887 30.0972 43.7905 29.4199C43.7832 29.3634 43.4748 29.4459 43.4529 29.3543C43.4058 29.1669 43.4262 28.9202 43.5322 28.7212C43.5834 28.6242 43.8429 28.7658 43.8891 28.6695C43.9974 28.4458 44.0346 28.1997 44.0109 27.9384C44.0006 27.8252 43.6691 27.9624 43.6809 27.8146C43.7209 27.3378 43.7745 26.8107 44.0244 26.1408C44.1728 25.7935 44.3775 25.465 44.7075 25.1762C44.7502 25.1391 45.37 25.3094 45.2881 25.1705C45.1226 25.1045 44.9248 25.036 44.7463 24.9701C44.9896 23.9612 45.5401 23.0781 45.9182 22.125C45.9341 22.0849 45.5889 22.0407 45.6182 21.9619C45.7864 21.5075 45.8568 21.0336 46.3416 20.6834C46.3893 20.6484 46.9436 20.8737 46.9069 20.7085C46.8993 20.6809 46.899 20.446 46.7952 20.3511C46.7793 20.3374 46.5035 20.2798 46.5191 20.2122C46.6163 19.8162 46.819 19.4395 47.1137 19.1187C47.1618 19.067 47.4189 19.2313 47.4555 19.1954C47.7137 18.939 47.6153 18.538 47.9648 18.3452C48.1966 18.2242 48.6622 18.4517 49.1749 18.5096C49.2484 18.5144 49.2909 18.4143 49.5739 18.4932C50.2906 18.678 51.0478 18.9749 51.8129 19.1678C51.9701 19.2495 51.8975 18.7875 52.233 19.1398C52.2498 19.1894 52.3236 19.4196 52.4472 19.4889C52.5305 19.5451 52.8319 19.5839 52.9313 19.6786C53.0284 19.7798 52.7747 19.7493 52.8832 19.8824C52.9959 20.0079 53.331 20.0798 53.3152 20.2525ZM66.5866 21.1281C66.2929 21.2382 67.3354 21.3364 67.0956 21.1692C67.0828 21.161 66.6011 21.1221 66.5866 21.1281ZM55.5871 14.1396C55.8488 14.5513 55.8044 13.8654 55.6101 13.5443C55.412 13.2248 55.5055 14.0155 55.5871 14.1396ZM54.0698 14.944C54.3658 15.224 53.909 13.8111 53.8033 14.168C53.797 14.1884 54.0522 14.928 54.0698 14.944ZM49.1526 19.0292C49.1657 19.0339 49.2096 18.9478 49.1972 18.9416C48.8987 18.7871 48.8128 18.9545 49.1526 19.0292ZM52.8197 16.2839C52.9937 16.3984 52.9664 16.1168 52.7506 15.9728C52.5757 15.8578 52.6013 16.1428 52.8197 16.2839ZM63.4501 26.8025C63.4352 26.7976 63.3937 26.853 63.4741 26.8892C63.7331 27.0058 63.7008 26.8859 63.4501 26.8025ZM51.0964 18.5006C51.3297 18.1195 52.5063 18.5372 52.2184 18.7972C52.1649 18.8502 51.933 18.49 51.7942 18.5223C51.5336 18.5976 52.194 19.0086 51.7482 19.008C51.6643 19.0125 51.0786 18.5243 51.0952 18.4993C51.0956 18.4997 51.096 18.5002 51.0964 18.5006ZM65.3273 21.1163C65.3134 21.1178 65.2934 21.2098 65.3068 21.2131C65.6341 21.2917 65.6753 21.0995 65.3273 21.1163ZM61.0448 29.9526C61.0174 29.9413 60.8798 30.1032 60.8986 30.1234C61.291 30.5172 61.5789 30.1784 61.0448 29.9526ZM63.224 16.0339C62.996 16.2913 62.9114 16.2949 63.0187 15.8835C63.0859 15.9373 63.1627 15.978 63.224 16.0339Z" fill="#735A47"/>
<path d="M64.9951 43.9378C64.9178 44.2505 64.6383 44.5453 64.3753 44.746C64.2933 44.809 64.1538 44.6775 64.0893 44.7183C63.9645 44.7962 63.9865 44.9468 63.8509 45.018C63.8049 45.0418 63.5708 44.8563 63.5283 44.8848C63.2984 45.0398 63.2559 45.2829 63.0874 45.4758C62.2545 46.431 61.6473 47.5004 61.0641 48.6177C60.8923 48.9469 60.5328 49.2863 60.4364 49.6739C60.4274 49.7131 60.4223 49.7526 60.4218 49.7925C60.4217 49.8368 60.6745 49.8942 60.6922 49.9084C60.9649 50.1217 60.4819 49.9232 60.3912 49.9819C60.0344 50.2109 59.9255 50.5846 59.9799 50.9074C60.004 51.0443 60.5295 50.9832 60.2276 51.0731C60.2071 51.0799 59.9396 51.012 59.906 51.0449C59.83 51.1198 59.8634 51.2835 59.8374 51.3454C59.7856 51.4661 59.7872 51.4889 59.7797 51.6058C59.7675 51.7665 59.6327 51.9617 59.7044 52.1356C59.7205 52.1713 59.9981 52.1086 60.0491 52.1614C60.0997 52.2156 60.0882 52.361 60.0283 52.4191C59.9679 52.4761 59.7464 52.4799 59.6971 52.4946C59.2813 52.6242 59.8945 52.7307 59.9124 52.7451C60.2232 53.0973 59.9875 53.5049 60.1294 53.8578C60.2329 54.1147 60.4816 54.3259 60.5439 54.423C60.5492 54.4319 60.5521 54.4389 60.5525 54.4437C60.6744 54.6341 60.7583 54.8752 60.9934 55.0006C61.0195 55.0146 61.1707 54.7192 61.2005 54.734C61.5157 54.8887 61.8493 55.07 62.225 55.4092C62.2632 55.4435 62.1262 55.706 62.1613 55.7574C62.2916 55.9447 62.4857 56.2659 62.72 56.2157C62.8627 56.1818 63.0086 55.9881 63.1299 55.5036C63.2883 55.5748 63.4729 55.6371 63.6296 55.8894C63.7337 56.0512 63.6409 56.3699 63.7705 56.2305C63.799 56.1991 63.7486 55.9247 63.7893 55.8985C63.9561 55.7887 64.1571 55.8532 64.3022 55.6786C64.3308 55.6425 64.2714 55.4017 64.2715 55.3561C64.2668 54.9887 64.5281 55.5387 64.5764 55.5703C64.895 55.8185 65.0482 55.6304 65.2743 55.5479C65.3284 55.528 65.1407 55.2451 65.1862 55.2156C65.42 55.0677 65.6932 54.9677 66.0219 54.9602C66.0954 54.9591 66.1757 55.2376 66.2182 55.2496C66.4081 55.2966 66.1759 54.813 66.3488 54.8484C66.3853 54.855 66.4911 55.074 66.5088 55.0946C66.7895 55.4165 66.5583 54.865 66.5684 54.844C66.7067 54.5559 67.1784 54.9928 67.3617 54.7736C67.3827 54.7472 67.158 54.526 67.2266 54.4678C67.6835 54.0772 68.2625 53.7824 68.903 53.6307C69.0012 53.6075 69.0799 53.8344 69.1011 53.8543C69.4369 54.1611 69.1445 53.6383 69.1567 53.6022C69.2666 53.3259 69.7388 53.6011 69.4627 52.9256C70.3201 52.5697 70.8889 51.8071 71.8251 51.5406C71.9589 51.5052 72.0994 51.48 72.2524 51.4653C72.2669 51.4632 72.4294 51.7085 72.458 51.7032C72.8034 51.6401 72.4749 51.3179 72.2706 50.7645C72.2175 50.627 72.7661 51.0444 72.8099 51.0717C72.9662 51.1773 73.21 51.5428 73.2457 51.5585C73.5362 51.6734 72.574 50.5985 72.7074 50.4799C72.7133 50.4779 72.8717 50.6924 72.9008 50.702C72.9918 50.7319 72.9568 50.6216 73.0528 50.658C73.2729 50.7439 73.781 51.2297 73.6269 50.8149C73.606 50.7617 73.0225 50.1878 73.1655 50.1047C73.2237 50.072 73.4168 49.8624 73.5104 49.842C73.6043 49.8222 73.7539 50.0461 73.7659 50.0502C74.17 50.1357 74.2154 50.2958 74.6684 50.5696C75.1226 50.8384 74.2091 50.0185 74.1403 49.892C74.0719 49.7657 74.3934 49.8419 74.4951 49.8785C74.5965 49.9158 74.686 50.0664 74.7525 50.0775C75.192 50.1429 74.3714 49.5909 74.278 49.4033C74.0509 48.9649 74.8287 49.4561 75.0094 49.3798C75.0577 49.3597 74.8746 49.2555 74.886 49.2117C74.9318 49.0411 75.2149 49.1435 75.1263 48.8369C75.1125 48.7862 74.7717 48.3349 75.1465 48.5059C75.2006 48.5305 75.3566 48.6996 75.439 48.6757C75.5627 48.6399 75.7153 48.5191 75.7204 48.3836C75.7238 48.284 75.3668 48.1395 75.5208 48.1252C75.5895 48.1187 75.7165 48.3159 75.8314 48.2922C75.946 48.2691 76.0671 48.0813 76.1084 48.0079C76.1501 47.9339 75.8904 47.8112 75.8786 47.7947C75.8121 47.6989 75.7876 47.4919 75.7953 47.4808C76.1551 46.8847 76.9043 46.5662 77.1057 45.8744C77.1216 45.8207 76.8422 45.7086 76.8419 45.6989C76.8209 45.4766 77.4475 45.9868 77.745 45.9965C77.2027 45.7244 77.3367 45.708 77.3401 45.5603C77.3416 45.4884 77.1178 45.4091 77.0993 45.3926C76.8282 45.1428 77.2655 45.3007 77.357 45.3291C77.693 45.4347 77.3618 45.1838 77.587 45.2528C77.8111 45.32 78.0683 45.5651 78.1237 45.448C77.947 45.317 77.3995 45.1413 77.3614 45.0141C77.3054 44.8269 77.376 44.6531 77.4927 44.4945C77.6518 44.2988 77.9094 44.0946 77.9794 43.947C78.0925 43.7088 78.0662 43.6164 78.1698 43.478C78.3515 43.2193 77.919 43.2629 77.7436 43.087C77.5639 42.9161 78.5908 43.061 78.8149 43.0511C79.0387 43.037 78.8119 42.9927 78.9357 42.9643C79.0595 42.9342 79.2072 43.0203 79.2569 42.9358C79.3077 42.8468 78.9129 42.609 78.6789 42.5891C78.1844 42.5403 77.6703 42.6387 77.8459 42.4535C77.8562 42.4422 78.1298 42.4661 78.1554 42.4229C78.3253 42.1194 78.3198 41.7978 78.3869 41.466C78.398 41.4256 78.4089 41.3847 78.4194 41.3404C78.4306 41.291 78.7311 41.2348 78.7387 41.1995C78.7855 40.8004 78.3463 41.111 77.8293 41.347C78.4668 40.9483 78.8049 40.5899 78.5848 40.3583C78.4579 40.2333 78.2585 40.5016 78.0427 40.6241C77.9812 40.6638 78.0369 40.4227 77.9315 40.5386C77.5948 40.9229 77.3389 41.431 77.3215 41.1527C77.3201 41.1393 77.4871 40.916 77.4708 40.8864C77.3523 40.6904 77.0826 41.1489 76.8774 41.1252C76.7175 41.1069 76.5402 40.6942 76.3483 40.5767C76.6217 39.7726 76.3506 39.8893 76.1005 40.4255C75.9723 40.3613 75.8145 40.3501 75.7018 40.2345C75.6628 40.195 75.7593 39.9668 75.7606 39.9396C75.7811 39.5128 75.5672 40.0447 75.5316 40.0582C75.3604 40.1111 75.2343 40.0458 75.1083 39.9839C74.9519 39.9065 74.8037 39.8394 74.5791 40.0312C74.5642 40.0436 74.4243 40.6163 74.4339 40.1785C74.434 40.1483 74.5904 39.9066 74.4504 39.8565C74.3138 39.8069 74.0853 39.4446 73.8371 39.6866C73.7757 39.7443 73.6006 40.204 73.5442 39.8216C73.5365 39.7696 73.5698 39.6031 73.5605 39.5074C73.5273 39.2023 73.4349 39.7919 73.4081 39.281C73.3812 38.7702 73.2269 38.3761 72.981 38.7155C72.9727 38.7254 72.9015 39.1952 72.8354 39.1859C72.7305 39.1705 72.5721 39.071 72.459 39.0762C72.4049 39.0788 72.4452 39.3715 72.436 39.377C72.087 39.5501 71.827 39.3067 71.4203 39.2487C71.3427 39.2379 71.2142 39.664 71.023 39.3802C70.8036 39.0727 70.6718 37.6241 70.347 38.0518C70.2016 38.229 70.5266 40.0317 70.0112 39.2016C69.6071 39.5749 68.9883 39.3057 68.6614 39.824C68.6467 39.847 68.7968 40.3393 68.747 40.355C68.6721 40.3776 68.5332 40.1797 68.475 40.1899C68.2337 40.2252 68.1289 40.5034 67.9105 40.5722C67.8276 40.5987 67.7506 40.3626 67.6518 40.3937C67.5551 40.4238 67.6263 40.7485 67.4356 40.6613C67.2887 40.5952 66.9397 40.0227 66.8036 39.9924C66.8669 40.1604 66.9066 40.2836 66.9283 40.3787L66.8941 40.3935C66.9685 40.6415 66.9033 40.704 66.8545 40.8731C66.842 40.918 66.9814 41.1014 66.9814 41.1328C66.986 41.2641 66.845 41.127 66.8591 41.2665C66.8625 41.3 66.9744 41.4934 66.9841 41.5314C67.0734 41.8598 66.6832 41.5104 66.6108 41.4529C66.3431 41.2289 66.4572 41.5014 66.3174 41.4367C66.1761 41.3733 66.19 41.1679 66.0641 41.1561C65.8251 41.1351 65.6391 41.285 65.477 41.3966C65.461 41.4076 65.4455 41.418 65.43 41.428C65.3613 41.474 65.5812 41.6833 65.5754 41.6955C65.4814 41.8564 65.1596 41.6975 65.4261 42.2366C64.4437 41.0497 65.429 42.4183 65.0483 42.306C65.0177 42.2966 64.5928 41.7071 64.5906 41.5797C64.5877 41.4529 64.8046 41.5789 64.7891 41.3862C64.7862 41.3406 64.498 40.71 64.4883 40.6661C64.4156 40.3215 65.0693 41.1883 65.1101 41.2324C65.3773 41.5126 65.3814 41.3794 65.3443 41.2109C65.319 41.0969 65.2748 40.9666 65.2781 40.9392C65.316 40.6278 65.5531 40.6499 65.6132 40.4113C65.6537 40.2563 65.2781 39.6526 65.3761 39.6157C65.7152 39.4881 66.2905 40.2981 66.1792 39.3826C66.1639 39.206 65.8212 38.6615 66.1393 38.844L66.3156 38.7677C66.338 38.7976 66.3671 38.8389 66.4045 38.8934C66.4224 38.9281 66.7459 39.4005 66.677 39.0447C66.6678 39.0001 66.5775 38.7924 66.5807 38.7703C66.6024 38.6265 66.7279 38.7679 66.777 38.6501C66.8271 38.5317 66.8785 38.3647 67.0196 38.3821C67.1034 38.3928 67.3744 38.7307 67.451 38.8084C67.6712 39.0327 67.5614 38.544 67.7756 38.8412C67.9904 39.1401 68.113 39.6908 68.3658 39.8299C68.1196 39.2954 67.8746 38.7431 67.6317 38.2034C67.9953 38.0547 68.4465 38.061 68.836 37.8833C68.8841 37.8607 68.7198 37.5849 68.7698 37.5527C68.986 37.4171 69.2675 37.5576 69.4883 37.3946C69.6603 37.2669 69.7913 36.8819 69.9924 36.7455C70.2869 37.3655 70.5401 37.0748 70.7859 37.0948C70.8707 37.1015 70.8967 37.2797 70.9612 37.3285C71.2041 37.5097 71.0167 36.9372 71.0633 36.8354C71.2788 36.4021 71.4647 37.7356 71.7371 37.6765C71.7482 37.6738 71.8827 36.9434 71.9113 36.8972C72.068 36.5957 71.9557 37.1446 72.0633 37.1918C72.2598 37.2793 72.391 37.4467 72.6106 37.2362C72.6739 37.1738 72.843 36.7281 72.9607 37.0786C72.9759 37.1245 72.9586 37.3613 72.9712 37.3756C73.1986 37.6165 73.2383 36.8734 73.401 36.6308C73.5672 36.3888 73.7413 36.9226 73.7657 37.0746C73.8367 37.468 73.6641 37.2289 73.6544 37.2662C73.5435 37.7059 73.697 37.6425 73.8053 37.6931C73.7402 38.4212 73.8907 38.3954 73.9175 37.7429C73.9201 37.6715 73.8238 37.7287 73.8053 37.6931C73.9852 36.9914 74.1901 36.9242 74.2821 37.6165C74.3232 37.9412 74.1833 38.2882 74.4587 38.1994C74.5851 38.1605 74.6299 37.657 74.764 37.5425C75.0701 37.2816 75.2905 37.8118 75.5472 37.8012C75.6435 37.7981 75.624 37.5087 75.6933 37.4977C75.7175 37.4938 75.7402 37.4946 75.7619 37.4988C75.8872 37.5217 75.9642 37.6911 76.1179 37.6373C76.1341 37.6314 76.176 37.3439 76.2239 37.353C76.5897 37.4179 76.8616 37.6858 77.2653 37.824C77.4585 37.889 77.8833 37.8737 78.1028 38.0033C78.4858 38.2222 78.793 38.8529 79.2245 39.0678C79.5147 39.219 79.6518 38.9637 79.9084 38.9328C80.4384 38.8904 80.3244 39.9001 80.2453 40.0081C80.2446 40.0058 79.9905 39.7413 79.9711 39.9815C79.7668 40.2336 80.24 40.0022 80.2453 40.0081C80.2339 40.082 80.4696 40.8057 80.5316 40.9472C80.5788 41.0215 80.8363 40.9195 80.8561 40.9631C80.8593 40.9705 80.8625 40.9779 80.8657 40.9853C81.2018 41.4534 81.334 42.0169 81.2126 42.5881C81.2072 42.5981 80.9013 42.5864 80.8923 42.6093C80.7577 42.9257 81.1215 43.1395 81.3169 43.449C81.5112 43.7559 81.3971 44.0001 80.8509 44.0672C80.8786 44.2895 80.58 44.5382 80.3971 44.6594C80.2152 44.7798 80.7732 44.9829 80.7795 45.0029C80.9339 45.4674 80.6929 45.6885 80.4499 45.9536C80.3923 46.003 80.3351 46.0581 80.2868 46.1277C80.1857 46.272 80.103 46.6228 80.0705 46.8233C80.0457 46.9828 79.8796 46.9976 79.891 47.1639C79.8923 47.1864 80.1345 47.2957 80.1407 47.3057C80.3428 47.5976 79.8109 47.2197 79.6938 47.1928C79.2686 47.0932 79.039 47.046 79.1147 47.3149C79.1324 47.3759 79.8755 47.9561 79.8787 48.0594C79.882 48.1919 79.6144 47.987 79.6249 48.1296C79.6254 48.1417 79.8046 48.2441 79.7596 48.3025C79.5524 48.576 79.2562 48.8284 79.0806 49.1376C79.0558 49.1797 79.3646 49.3048 79.3328 49.3691C79.1838 49.6698 78.9644 49.9708 78.6497 50.148C78.5713 50.1912 78.4144 50.0167 78.3489 49.9913C77.954 49.8362 78.3502 50.3076 78.3436 50.3357C78.2155 50.9927 77.506 51.0175 77.3056 51.6469C77.2971 51.6805 77.605 52.3027 77.116 52.0238C77.0828 52.0062 76.5903 51.7128 76.8073 52.0452C76.8206 52.0662 77.0828 52.2088 76.9763 52.2812C76.8703 52.3529 76.871 52.6347 76.5218 52.5377C76.4105 52.5087 75.925 52.2033 76.1287 52.6319C76.146 52.6592 76.6723 53.5608 76.1203 53.123C76.0298 53.0505 75.5299 52.5078 75.6535 52.9123C75.6773 52.9908 75.8391 53.0647 75.8387 53.2063C75.837 53.4252 75.5584 53.4126 75.6381 53.7816C75.6533 53.8461 75.8771 54.3171 75.5424 54.1033C75.4903 54.0696 75.3542 53.8615 75.292 53.8786C74.9961 53.9585 74.8766 54.2703 74.5499 54.3101C74.4348 54.3242 74.2289 53.9794 74.084 53.9566C73.9537 53.9359 73.7617 53.9651 73.7423 54.1239C73.7412 54.1405 73.7421 54.1587 73.7454 54.1786C73.7787 54.3807 74.2392 54.8299 74.1571 54.9541C73.8084 55.4877 73.0996 55.549 72.5763 55.8648C72.4987 55.9115 72.6931 56.0509 72.5887 56.1326C72.2018 56.4374 71.6232 57.1167 70.9823 56.9749C70.4733 56.8587 70.6647 56.3658 70.3572 56.3885C70.2121 56.3981 70.5117 57.0885 70.4992 57.1252C70.3806 57.4933 70.0136 57.3463 69.8312 57.5869C69.7931 57.6369 70.0064 57.8549 69.9719 57.8949C69.8566 58.0327 69.6276 58.0216 69.4989 58.1319C69.4416 58.1819 69.5752 58.3679 69.5068 58.39C69.3386 58.4486 69.1627 58.4438 68.9076 58.3469C68.8846 58.3379 68.8264 58.0414 68.7124 58.0972C68.5292 58.1876 68.205 58.131 68.1012 58.4365C68.0693 58.5286 68.3135 58.9911 68.0033 58.7474C67.9376 58.6967 67.6868 58.1206 67.7734 58.6862C67.7903 58.7796 67.8259 59.5803 67.4684 59.2263C67.3751 59.1331 67.0665 58.7104 67.0154 58.8214C67.0088 58.8384 67.1707 59.0736 67.109 59.1309C66.8896 59.3278 66.6005 59.4122 66.3334 59.5975C66.2621 59.6474 66.4758 59.8813 66.3635 59.9475C66.05 60.1321 65.5763 60.1854 65.1906 60.1673C65.0497 60.1599 65.0978 59.9056 65.0827 59.8819C64.8545 59.492 64.8637 60.0717 64.8128 60.1136C64.508 60.3623 64.217 60.1184 63.9133 60.2027C63.8278 60.2249 63.8986 60.4964 63.8821 60.5215C63.7031 60.7655 63.8274 60.2699 63.7132 60.218C63.3956 60.0695 63.0591 60.0754 62.748 60.0774C62.6347 60.0784 62.7269 60.4083 62.6229 60.4049C62.3808 60.3983 62.1424 60.3689 61.9118 60.3153C61.6099 60.2431 61.3048 60.1182 61.0264 59.9301C60.9408 59.8713 61.0667 59.6524 61.0623 59.5932C61.0404 59.1814 60.6947 59.6321 60.6291 59.6639C60.3445 59.8148 60.3289 59.5796 60.1262 59.5462C59.1228 59.3998 57.9024 58.5047 57.2116 57.583C57.1814 57.5447 57.1519 57.5061 57.123 57.4674C56.0889 55.9609 56.1852 55.2069 55.8188 54.1501C55.799 54.0826 55.499 54.2276 55.4776 54.1687C55.2163 53.393 55.2574 52.5992 55.1626 51.8152C55.1555 51.7496 54.8467 51.8441 54.8253 51.738C54.7792 51.5188 54.8068 51.2383 54.9211 51.0256C54.9761 50.9238 55.2299 51.0831 55.2799 50.9824C55.3974 50.7478 55.4474 50.4983 55.434 50.2488C55.428 50.1417 55.0921 50.2536 55.1093 50.1152C55.1989 49.371 55.3475 48.6433 55.7609 48.021C55.8609 47.8877 55.9764 47.763 56.1135 47.644C56.1574 47.6057 56.7743 47.7866 56.6958 47.645C56.5318 47.5754 56.3354 47.5025 56.1584 47.4327C56.435 46.3991 57.0463 45.516 57.5188 44.5748C57.5387 44.535 57.1979 44.4624 57.2351 44.3843C57.45 43.9326 57.5792 43.4493 58.1112 43.1451C58.1635 43.1148 58.685 43.408 58.6709 43.2363C58.6686 43.2043 58.6976 42.9732 58.6099 42.8608C58.5961 42.8447 58.3294 42.7529 58.3557 42.6845C58.5122 42.2914 58.7764 41.9346 59.1293 41.651C59.1864 41.606 59.4114 41.8128 59.4542 41.7824C59.7545 41.5672 59.743 41.1331 60.1366 40.9953C60.3996 40.9062 60.805 41.2303 61.2949 41.395C61.3651 41.4165 61.4382 41.3152 61.6956 41.4579C62.3407 41.8205 63.0057 42.2872 63.6968 42.6677C63.8471 42.7472 63.7738 42.5121 64.0771 42.8053C64.0972 42.8253 64.1521 42.9998 64.2569 43.096C64.3291 43.1632 64.6059 43.2829 64.69 43.3827C64.7755 43.48 64.5362 43.392 64.6265 43.524C64.7197 43.6548 65.0261 43.8049 64.9951 43.9378ZM79.56 45.143C79.2425 45.1578 80.1868 45.6104 80.0262 45.3512C80.0173 45.3381 79.5758 45.1415 79.56 45.143ZM68.7565 38.7948C69.0796 39.1597 68.926 38.4906 68.685 38.2033C68.4374 37.9196 68.6561 38.6854 68.7565 38.7948ZM67.4751 39.7615C67.784 40.0178 67.1649 38.6683 67.1367 39.0142C67.135 39.0337 67.4574 39.7465 67.4751 39.7615ZM61.1609 41.909C61.1741 41.914 61.2309 41.8431 61.2206 41.8334C60.9578 41.6238 60.8421 41.7698 61.1609 41.909ZM66.2384 40.7847C66.3907 40.9259 66.4075 40.6452 66.2191 40.4672C66.0643 40.3255 66.0454 40.6107 66.2384 40.7847ZM75.4037 49.7048C75.3906 49.6962 75.3375 49.7375 75.4057 49.7933C75.6253 49.9736 75.6242 49.8503 75.4037 49.7048ZM64.1212 42.239C64.4604 42.0954 65.3335 42.9889 64.8931 43.106C64.8144 43.126 64.8253 42.6863 64.6831 42.6455C64.4284 42.5681 64.7304 43.2862 64.3597 43.0281C64.2945 42.9793 64.1009 42.2448 64.1208 42.2372C64.1209 42.2378 64.1211 42.2384 64.1212 42.239ZM78.376 44.7132C78.3626 44.7098 78.3136 44.7865 78.3249 44.794C78.6046 44.982 78.7097 44.8149 78.376 44.7132ZM72.2432 51.8336C72.2284 51.8196 72.1413 51.8614 72.0899 51.8974C72.0646 51.9152 72.0477 51.9316 72.0511 51.9399C72.1441 52.1387 72.2595 52.2261 72.3396 52.2339C72.461 52.2466 72.4958 52.0749 72.2432 51.8336ZM76.3522 40.5541C76.1605 40.8429 76.0505 40.8496 76.1008 40.4261C76.1838 40.4747 76.2717 40.5059 76.3522 40.5541Z" fill="#735A47"/>
<path d="M4.7217 68.3832C4.70276 67.9927 4.73785 67.5542 4.80703 67.1209C4.91648 66.2898 5.20641 65.5403 5.50647 64.9961C5.68816 64.6724 5.78538 64.9172 5.91927 64.7121C6.18352 64.3191 6.30981 63.9169 6.60853 63.6108C6.70757 63.5121 6.86209 63.8133 6.95884 63.7094C7.48518 63.1494 7.84184 62.5999 8.3361 62.1405C9.88824 60.7185 11.44 59.6133 12.3324 58.5622C13.1351 57.5622 13.9643 56.853 14.7407 56.1679C15.4729 55.5308 16.4657 54.9543 17.0128 54.1941C17.076 54.1061 16.8434 53.9772 16.8417 53.9478C16.8182 53.4938 17.1286 53.9251 17.321 53.8156C17.6552 53.6242 17.9607 53.3785 18.2278 53.1021C18.6425 52.6568 19.0462 52.2109 19.4222 51.7964C19.7125 51.4816 19.0521 51.3775 19.5712 51.3112C19.6064 51.307 19.7002 51.5859 19.8079 51.5337C20.0486 51.4149 20.4117 51.0779 20.5895 50.9815C20.9302 50.7966 20.982 50.7601 21.289 50.5714C21.7134 50.316 22.2822 50.1628 22.7133 49.8866C22.8055 49.8266 22.5528 49.6362 22.6909 49.5174C22.8304 49.3968 23.2616 49.2295 23.4282 49.2311C23.5944 49.2319 23.6214 49.4605 23.6659 49.4965C24.0323 49.8034 24.2768 49.0667 24.3334 49.029C24.8644 48.6765 25.3939 48.5101 25.882 48.3677C26.3784 48.2156 26.8744 48.0975 27.3595 47.9069C28.1361 47.6009 28.9201 47.1883 29.6402 46.9245C30.4971 46.6113 31.26 46.4667 32.0181 46.0819C32.0976 46.0416 31.8625 45.7877 31.958 45.7383C32.1881 45.6188 32.4141 45.5 32.6365 45.3819C33.9054 44.7005 35.3366 44.6958 36.4434 45.0259C36.588 45.0691 36.3594 45.3293 36.497 45.3895C37.3666 45.7475 38.3067 46.6848 39.2302 45.7038C39.5445 45.8629 39.892 46.0497 40.1804 46.2728C40.41 46.4335 40.6005 46.6187 40.7323 46.8147C40.9466 47.1493 40.4862 47.219 40.9079 47.3488C41.0025 47.3807 41.064 47.0825 41.1973 47.1513C41.7606 47.4457 42.1675 47.9661 42.6549 48.2954C42.7548 48.3624 42.919 48.1746 42.9749 48.1703C43.4421 48.1505 43.2763 48.8964 43.2983 48.9971C43.5006 49.7848 43.8951 50.1405 44.2522 50.711C44.3339 50.8433 44.5162 50.5091 44.6054 50.6312C45.0642 51.2686 45.437 51.978 45.6633 52.6993C45.7127 52.8599 45.3914 52.8631 45.402 52.9465C45.451 53.3116 45.9589 53.1258 46.0118 53.4707C46.0237 53.5436 45.7909 53.6228 45.7733 53.6465C45.4965 54.0173 46.1 53.8905 46.1354 53.9295C46.4124 54.2222 46.3883 54.5738 46.4072 54.9144C46.4212 55.1392 46.4532 55.3607 46.5969 55.5599C46.6411 55.6202 46.8355 55.3297 46.9432 55.508C47.6623 56.6952 48.256 58.0428 48.6416 59.3829C48.7017 59.5908 48.4275 59.556 48.4079 59.5806C48.105 59.9717 48.702 59.8375 48.7526 59.8902C49.1389 60.314 48.9087 60.9898 49.7096 61.0245C50.4772 63.2296 51.7997 65.2268 51.9776 67.6592C51.9803 67.6894 51.686 67.7357 51.6925 67.7954C51.765 68.5201 52.1507 68.2411 52.8285 68.5389C52.8529 68.5498 52.8627 68.5705 52.8614 68.598C52.8557 68.768 52.4527 69.1706 52.4189 69.2072C52.2757 69.3688 51.8231 69.3717 51.7998 69.4185C51.6171 69.7934 52.9986 69.3691 53.1104 69.8047C53.1115 69.8186 52.8398 69.8271 52.8232 69.8694C52.7707 70.0006 52.9012 70.0905 52.8381 70.2217C52.691 70.5237 52.0264 70.7574 52.5028 71.052C52.5641 71.0916 53.3529 70.8481 53.3902 71.2587C53.4063 71.4188 53.5318 72.1207 53.5019 72.3284C53.4747 72.534 53.1956 72.43 53.1861 72.446C52.9021 73.0078 52.7343 72.829 52.2465 73.1327C51.757 73.4272 52.9722 73.2496 53.1178 73.3483C53.2638 73.4492 53.0004 73.8489 52.9038 73.9486C52.808 74.0468 52.6354 73.9381 52.5825 74.0228C52.2317 74.5713 53.1992 74.2428 53.3988 74.4241C53.8672 74.8644 52.9506 75.2091 52.8419 75.5867C52.8121 75.6905 53.0238 75.6151 53.0377 75.7119C53.087 76.1012 52.7858 76.2941 52.9907 76.755C53.0253 76.8251 53.5157 77.2677 53.079 77.4284C53.0163 77.4504 52.8091 77.3215 52.7305 77.4727C52.614 77.6956 52.4752 78.1052 52.4836 78.3735C52.4902 78.5714 52.908 78.4522 52.7321 78.6616C52.6533 78.7527 52.4955 78.5031 52.3657 78.6751C52.2383 78.8463 52.0934 79.3294 52.0314 79.5141C51.9722 79.6975 52.2739 79.6978 52.2865 79.7189C52.3579 79.8458 52.3395 80.2568 52.3232 80.2904C52.0932 80.8624 51.7633 81.3817 51.3742 81.848C50.6289 82.7415 49.7025 83.2797 48.8285 83.9001C48.7206 83.9752 48.943 84.1926 48.928 84.2067C48.5837 84.5378 48.5195 83.6696 48.1335 83.5715C48.4481 84.0909 48.2385 84.0789 47.9843 84.2685C47.8612 84.3599 48.0311 84.5406 48.0287 84.5682C47.9622 84.9885 47.6316 84.6247 47.562 84.5514C47.2982 84.2844 47.2977 84.7225 47.1231 84.5396C46.9532 84.3566 47.0427 83.9622 46.7789 84.0613C46.7735 84.2932 47.1694 84.7557 46.9852 84.9173C46.2713 85.5528 44.578 85.4577 43.9127 85.477C43.2331 85.5128 43.0141 85.5613 42.6105 85.4985C42.5901 85.495 42.5707 85.492 42.5523 85.4893C41.8196 85.3526 42.052 85.7623 41.4883 85.8357C40.9129 85.8695 41.4922 84.9563 41.4929 84.7252C41.5076 84.4954 41.374 84.6909 41.3475 84.5498C41.3256 84.41 41.5203 84.3238 41.3863 84.2216C41.2633 84.1284 40.68 84.282 40.5097 84.4513C40.1561 84.8188 40.1066 85.3895 39.7524 84.9757C39.733 84.9517 39.9517 84.7648 39.8715 84.6852C39.2427 84.0647 38.5705 83.5354 38.0522 82.8717C37.9814 82.78 38.2518 82.6101 38.2132 82.5544C37.8195 81.9738 37.6786 82.5203 37.021 82.7039C37.5785 82.1872 37.724 81.7056 37.3476 81.3648C37.1214 81.1587 36.9403 81.4389 36.6359 81.4772C36.5442 81.4888 36.5347 81.174 36.401 81.2617C35.9623 81.5472 35.7312 82.1064 35.4899 81.5769C35.48 81.5531 35.7231 81.3999 35.675 81.3326C35.3667 80.8972 34.9596 81.2421 34.5042 80.9042C34.2626 80.7249 34.0256 80.3145 33.7954 79.9528C33.7027 79.796 33.6015 79.651 33.4986 79.5475C34.0444 78.8931 33.5299 78.7465 33.0613 79.1434C32.8272 78.9583 32.5331 78.8264 32.3102 78.623C32.2328 78.553 32.4017 78.363 32.4024 78.3335C32.403 77.8682 32.0305 78.3254 31.9647 78.3205C31.2357 78.2357 30.7901 77.6456 30.0157 77.8999C29.9869 77.9092 29.8269 78.4765 29.7403 78.0192C29.7332 77.9876 30.0119 77.7699 29.6968 77.6856C29.5858 77.6567 29.4451 77.5866 29.2857 77.5192C28.9996 77.3964 28.6253 77.2833 28.3103 77.428C28.1842 77.4807 27.8535 77.9285 27.6646 77.5351C27.6388 77.4816 27.6884 77.3164 27.6527 77.2185C27.5339 76.9062 27.4028 77.4927 27.2803 76.9732C27.1521 76.4532 26.831 76.044 26.3255 76.3521C26.3087 76.3609 26.1556 76.8221 26.0086 76.8024C25.7678 76.77 25.4413 76.6446 25.1859 76.627C25.068 76.619 25.1197 76.9175 25.0988 76.9212C24.2822 77.0201 23.7281 76.7138 22.8756 76.5312C22.7216 76.4974 22.2322 76.8591 21.9528 76.5189C21.6427 76.146 22.1087 74.7396 21.3084 75.0177C20.9882 75.1287 20.4393 76.9163 19.9598 75.925C18.8536 76.0652 17.897 75.4925 16.7791 75.7207C16.729 75.7307 16.5244 76.2231 16.41 76.2049C16.2404 76.1768 16.1703 75.9303 16.05 75.9025C15.5468 75.7799 15.0587 75.9342 14.5698 75.8496C14.3844 75.818 14.4761 75.5801 14.255 75.542C14.034 75.5041 13.8507 75.8102 13.5659 75.62C13.3511 75.4753 13.202 74.7903 12.9106 74.6777C12.8211 75.3258 12.6178 75.2883 12.2269 75.414C12.1519 75.4384 12.1999 75.6739 12.1629 75.6971C12.0116 75.7965 11.909 75.5934 11.7638 75.7037C11.7508 75.7135 11.7385 75.7499 11.7267 75.7936L11.5958 75.7552C11.553 75.8197 11.5048 75.9048 11.4792 75.9189C11.1297 76.1179 11.0137 75.4956 11.0017 75.3898C10.9401 74.9828 10.7049 75.1851 10.6055 74.9793C10.5092 74.7742 10.828 74.7674 10.6833 74.5934C10.3855 74.2345 9.90545 73.9665 9.57094 73.6897C9.43761 73.5809 9.34358 73.8867 9.32029 73.8767C8.9738 73.698 8.94038 73.2239 8.36264 73.4711C9.34069 72.2542 8.08541 73.4122 7.99587 72.7465C7.99038 72.6918 8.58251 72.2717 8.74447 72.323C8.90382 72.3703 8.85165 72.6764 9.10778 72.7118C9.17194 72.7275 9.8286 72.4259 9.87444 72.4104C10.2632 72.335 9.586 73.1773 9.5604 73.2353C9.28417 73.8482 10.0265 73.4911 10.1195 73.4929C10.5807 73.5373 10.7935 73.8456 11.1778 73.8742C11.4287 73.8926 11.7872 73.2773 11.9248 73.3754C12.1797 73.5544 12.2231 73.9274 12.3615 74.1435L11.9525 74.0236C12.1231 74.1577 12.3151 74.1708 12.6283 73.8181C12.7766 73.6513 12.744 72.865 13.1211 73.5255C13.1446 73.5672 13.4152 74.162 13.6496 73.8329C13.6791 73.7914 13.7041 73.5663 13.7383 73.5511C13.9673 73.4534 14.0903 73.6489 14.334 73.589C14.5779 73.5291 14.8732 73.4315 15.1327 73.5363C15.2891 73.5991 15.4527 74.0405 15.5197 74.1513C15.7083 74.47 15.9926 74.0085 16.0922 74.3807C16.1934 74.7549 15.8692 75.2752 16.2071 75.5442C16.2789 74.96 16.3693 74.3621 16.4491 73.7753C17.2323 73.8739 17.9894 74.1361 18.7829 74.1814C18.8817 74.1865 18.8094 73.8624 18.9158 73.8596C19.3632 73.8492 19.7314 74.1079 20.2 74.058C20.5623 74.0181 20.9837 73.7175 21.3609 73.6643C21.5352 74.3545 22.1089 74.1724 22.5048 74.2663C22.6441 74.2989 22.6212 74.4775 22.7173 74.5441C23.0793 74.7911 22.949 74.1836 23.0601 74.0986C23.541 73.7364 23.4643 75.0814 23.9991 75.0909C24.0269 75.0918 24.424 74.4034 24.4763 74.3628C24.799 74.0962 24.5063 74.6159 24.6883 74.6837C25.023 74.8078 25.2424 74.9975 25.6655 74.821C25.7841 74.7682 26.1093 74.3459 26.3045 74.7096C26.3302 74.7572 26.2941 74.9923 26.3166 75.0081C26.7411 75.2762 26.8061 74.5337 27.0854 74.3044C27.3542 74.0742 27.7041 74.6227 27.7701 74.778C27.9466 75.1799 27.5919 74.9262 27.5815 74.9632C27.4103 75.3976 27.6986 75.3461 27.9139 75.4048C27.8728 76.1351 28.1832 76.1214 28.1359 75.4628C28.1288 75.3906 27.9526 75.442 27.9139 75.4048C28.1666 74.7084 28.5295 74.651 28.8322 75.3598C28.9802 75.694 28.7541 76.0319 29.3194 75.971C29.4598 75.9588 29.515 75.8138 29.5758 75.6634C29.632 75.5259 29.6896 75.3836 29.8122 75.3377C30.4058 75.1183 31.0005 75.7382 31.5483 75.8342C31.7518 75.8701 31.6437 75.5468 31.7882 75.5638C32.1766 75.6114 32.4209 75.9223 32.8169 75.9757C32.8536 75.9807 32.8861 75.6806 33.0015 75.7264C33.8819 76.0772 34.528 76.6553 35.3192 77.2883C35.4657 77.4064 35.6685 77.5473 35.8797 77.7072C36.152 77.9013 36.4514 78.1088 36.6168 78.2906C37.0839 78.802 37.4078 79.678 37.9012 79.9871C38.2213 80.1888 38.3536 79.919 38.6018 79.8774C39.08 79.795 39.0278 80.6526 39.0162 80.7806C39.0159 80.7854 38.7332 80.6317 38.7638 80.8535C38.6372 81.1517 39.0128 80.7795 39.0162 80.7806C39.0063 80.8639 39.4418 81.3133 39.5702 81.3435C39.6404 81.3614 39.7831 81.1253 39.8162 81.1384C40.5954 81.4498 41.2479 81.8322 41.7389 82.2354C41.7461 82.2454 41.5888 82.5082 41.6084 82.5288C41.8804 82.8236 42.25 82.5549 42.4211 82.3673C42.536 82.2427 42.5079 82.2152 42.4805 82.374C42.5546 82.4527 42.6366 82.5756 42.7123 82.7498C42.965 82.6721 43.3765 82.8645 43.6283 82.9725C43.8789 83.0812 43.8246 82.4858 43.8412 82.4717C44.3883 82.0032 44.7894 82.267 45.4196 82.1475C45.7184 82.0933 46.2444 81.8215 46.4942 81.6418C46.6925 81.5012 46.8803 81.5675 47.03 81.3919C47.0498 81.3684 46.9037 81.1455 46.9067 81.1325C46.9556 80.7494 47.1653 81.3701 47.2631 81.4493C47.6174 81.734 47.8516 81.8617 48.0019 81.5245C48.0438 81.4425 47.6534 80.5751 47.6872 80.4776C47.7425 80.3446 47.919 80.6329 47.9697 80.4822C47.9737 80.4697 47.8367 80.3164 47.8985 80.2719C48.0791 80.1389 48.2627 80.0146 48.4019 79.866C48.5059 79.7454 48.605 79.6015 48.682 79.442C48.7108 79.3838 48.3836 79.3026 48.4187 79.218C48.582 78.8239 48.779 78.3648 49.0606 77.9642C49.1312 77.8646 49.3296 77.9996 49.4022 77.9946C49.8445 77.9539 49.3269 77.5682 49.3229 77.5352C49.2488 76.6273 49.873 75.9987 49.6429 75.0181C49.6302 74.9595 48.9915 74.5763 49.5347 74.3851C49.5711 74.3747 50.1282 74.1733 49.7354 74.0274C49.7108 74.0195 49.4277 74.1441 49.4467 73.9498C49.4653 73.7539 49.249 73.4651 49.5349 73.1593C49.6258 73.0682 50.1583 72.7843 49.6775 72.5852C49.6443 72.5671 48.5856 72.3397 49.2473 72.0846C49.356 72.0424 50.0888 71.9334 49.6559 71.6884C49.5722 71.6438 49.4319 71.7819 49.3002 71.6483C49.0973 71.4442 49.2202 71.0873 48.8275 70.8754C48.7583 70.8382 48.2208 70.7591 48.5406 70.4885C48.5906 70.446 48.8422 70.4306 48.8439 70.3335C48.8468 70.1677 48.8096 70.0068 48.7608 69.8457C48.6752 69.5628 48.5518 69.2773 48.5563 68.9532C48.5571 68.7719 48.963 68.7257 49.0041 68.5201C49.0447 68.3129 49.0149 67.931 48.7772 67.8168C48.5392 67.702 48.0182 68.1194 47.8706 67.8741C47.228 66.8117 47.0814 65.5219 46.6065 64.339C46.5363 64.1646 46.394 64.4006 46.2751 64.1499C45.8377 63.2245 44.8759 61.7171 44.9059 60.6977C44.9301 59.8785 45.5998 60.5623 45.4934 59.9962C45.441 59.7233 44.6509 59.7965 44.6015 59.7502C44.1074 59.296 44.1995 58.7585 43.8497 58.3006C43.7774 58.2062 43.5644 58.4457 43.5058 58.364C43.3034 58.0864 43.2565 57.7079 43.0836 57.4314C43.0054 57.3077 42.8157 57.438 42.7687 57.3111C42.7175 57.176 42.6796 57.0422 42.657 56.9019C42.6264 56.7232 42.6195 56.5335 42.642 56.3219C42.6457 56.287 42.9892 56.329 42.8851 56.1087C42.7176 55.7554 42.6826 55.2351 42.2846 54.9574C42.1657 54.8757 41.7045 55.1201 41.8907 54.7089C41.9294 54.6232 42.5136 54.3821 41.886 54.3683C41.7798 54.3615 40.8904 54.2721 41.1712 53.8215C41.2451 53.7023 41.5995 53.2929 41.4537 53.2077C41.4324 53.1974 41.2332 53.4102 41.1473 53.3212C40.8492 53.0064 40.6399 52.6244 40.334 52.3378C40.2523 52.2624 40.1057 52.5596 39.9928 52.4446C39.6833 52.13 39.4297 51.6853 39.2524 51.355C39.1876 51.2329 39.4271 51.1389 39.4403 51.1145C39.6407 50.7027 39.1576 51.0319 39.1016 51.023C38.7495 50.9544 38.7747 50.6232 38.5611 50.5568C38.5056 50.5409 38.3802 50.7878 38.3576 50.8017C38.1457 50.9462 38.4797 50.5779 38.4552 50.4969C38.4235 50.3898 38.3678 50.321 38.3153 50.2845C38.1299 50.1846 37.9369 50.1147 37.7563 50.0581C37.6306 50.0195 37.6419 50.3689 37.5327 50.3321C36.886 50.1214 36.3161 49.9132 35.887 49.6706C35.8063 49.6245 35.8952 49.3905 35.8848 49.3325C35.7964 48.9238 35.5576 49.4413 35.5314 49.4922C35.3695 49.7186 35.3242 49.5058 35.2201 49.5557C35.069 49.6378 35.0036 49.6952 34.9521 49.7294C33.8076 50.3547 32.616 50.7496 31.6804 51.0553C30.0844 51.5727 28.8458 51.811 27.5646 52.3519C27.3686 52.4347 27.1742 52.5167 26.9868 52.5986C26.8798 52.6449 27.1087 52.9042 27.0184 52.9478C25.8577 53.4851 24.8582 53.7376 24.0768 54.2837C24.0141 54.3271 24.259 54.5432 24.1665 54.6206C23.9778 54.7814 23.7233 54.9213 23.4784 54.9728C23.3583 54.9991 23.3319 54.6938 23.2116 54.727C22.9299 54.8053 22.6836 54.9735 22.5131 55.1942C22.4426 55.2877 22.7809 55.4061 22.6768 55.5064C22.4545 55.726 22.2546 55.958 22.0599 56.1974C21.3332 57.0945 20.5065 57.8847 19.5355 58.4537C19.4382 58.5105 18.9197 58.1213 18.8435 58.3674C18.9554 58.5069 19.1021 58.6563 19.2293 58.7979C18.1653 59.9316 17.0173 60.8429 16.4224 61.5485C15.8405 62.285 15.2773 62.8248 14.7542 63.3405C14.6834 63.4098 15.0451 63.5282 14.9092 63.6632C14.1219 64.442 13.4967 65.1501 12.6401 65.5726C12.5563 65.6145 12.1464 65.1752 12.0355 65.4321C12.0143 65.4783 11.8201 65.8225 11.8639 65.9762C11.8712 65.9981 12.1269 66.1263 12.0613 66.2191C11.6744 66.7572 11.3484 67.1831 11.0869 67.451C11.0433 67.4961 10.7781 67.3484 10.7434 67.3844C10.6523 67.4834 10.6235 67.5968 10.6155 67.7009C10.5768 68.1256 10.5698 68.5461 10.3791 68.9198C10.1769 69.3173 9.67169 69.1428 9.15789 69.3489C9.085 69.379 9.06774 69.6394 8.77395 69.6498C8.03367 69.6789 7.22586 69.526 6.43653 69.5716C6.26533 69.5812 6.44717 70.001 6.03731 69.7529C6.00921 69.7346 5.87747 69.4233 5.74108 69.3453C5.64634 69.2902 5.34449 69.3775 5.22452 69.2649C5.10484 69.1522 5.35962 69.043 5.2232 68.8616C5.08567 68.6796 4.74064 68.7371 4.7217 68.3832ZM44.7938 83.4121C45.0792 83.6431 44.8787 82.6151 44.7028 82.9095C44.6946 82.9249 44.7796 83.4008 44.7938 83.4121ZM17.9121 74.9209C18.1902 75.4104 18.4707 74.7541 18.2778 74.3784C18.0851 74.003 17.8279 74.7725 17.9121 74.9209ZM14.5675 74.925C14.9017 75.3272 15.117 73.8573 14.6879 74.113C14.6631 74.1273 14.548 74.9016 14.5675 74.925ZM9.0738 68.2809C9.05951 68.2835 9.03192 68.4744 9.04545 68.4808C9.36971 68.6055 9.42429 68.2263 9.0738 68.2809ZM11.4286 74.7505C11.441 74.9836 11.843 74.9228 11.8241 74.6352C11.8109 74.4058 11.4178 74.4641 11.4286 74.7505ZM52.331 75.5701C52.347 75.5673 52.3678 75.4269 52.2794 75.4258C51.9955 75.4234 52.0658 75.6184 52.331 75.5701ZM7.9991 71.0621C8.03473 71.7723 7.10861 72.7909 6.94563 71.6929C6.93006 71.5088 7.41675 71.9957 7.47047 71.7414C7.57802 71.3193 6.78801 71.1551 7.1542 70.7083C7.22139 70.6329 7.99748 71.0239 8.00099 71.0633C8.00036 71.0629 7.99973 71.0625 7.9991 71.0621ZM45.192 84.6126C45.1999 84.6253 45.395 84.5945 45.3968 84.5796C45.4228 84.2328 45.0382 84.2932 45.192 84.6126ZM51.5279 67.2482C51.5524 67.2274 51.417 66.7818 51.3856 66.7772C50.7939 66.7441 51.0622 67.634 51.5279 67.2482ZM33.5071 79.5253C33.1471 79.6658 32.9602 79.5807 33.0618 79.1443C33.2118 79.271 33.3681 79.3886 33.5071 79.5253Z" fill="#735A47"/>
</svg>
