<svg width="249" height="132" viewBox="0 0 249 132" fill="none" xmlns="http://www.w3.org/2000/svg">
<path d="M242.238 120.209C240.838 120.245 239.318 120.252 237.716 120.239C235.223 120.22 232.602 120.15 230.433 120.061C229.322 120.016 229.872 119.832 229.112 119.792C227.594 119.714 226.21 119.798 224.714 119.701C224.223 119.669 224.837 119.379 224.321 119.351C221.482 119.201 218.805 119.248 215.934 119.145C204.762 118.744 193.762 118.316 182.582 117.684C179.602 117.515 176.61 117.331 173.601 117.129C168.891 116.814 163.18 116.168 158.311 115.915C157.742 115.886 158.061 116.169 157.952 116.182C156.232 116.377 156.836 115.9 155.735 115.745C151.368 115.129 146.496 114.682 142.269 114.38C140.472 114.251 142.221 114.934 140.442 114.473C140.318 114.441 140.8 114.213 140.311 114.136C139.202 113.963 137.081 113.799 136.219 113.687C134.558 113.472 134.282 113.446 132.709 113.274C130.556 113.036 128.014 112.613 125.7 112.403C125.207 112.358 125.826 112.715 125.034 112.669C124.241 112.623 122.164 112.347 121.472 112.193C120.781 112.04 121.106 111.858 120.988 111.793C120.019 111.242 117.544 111.519 117.233 111.491C114.746 111.275 112.429 110.952 110.17 110.588C107.276 110.121 104.474 109.586 101.516 109.109C97.5136 108.465 93.2282 107.829 89.4393 107.103C84.9324 106.237 81.1369 105.316 76.7725 104.403C76.3107 104.305 76.7812 104.745 76.2174 104.627C70.2359 103.367 64.3263 101.923 58.4914 100.172C57.9077 99.9959 58.7399 99.9137 58.1623 99.7214C56.8459 99.2858 55.2616 98.7248 53.6634 98.2148C50.9317 97.3459 48.1789 96.6207 46.6108 96.9858C44.19 96.223 41.2674 95.265 39.19 94.3183C37.8519 93.7073 39.3009 93.8534 37.5542 93.4155C37.1624 93.3159 37.575 93.7461 36.9888 93.5746C34.5334 92.8558 31.9244 91.8296 29.5063 91.0524C29.0138 90.8947 29.0566 91.1764 28.9043 91.1654C27.6206 91.0595 25.9417 89.7289 25.5466 89.5132C23.3415 88.3332 21.5233 87.515 19.5938 86.5954C18.8814 86.2548 18.1597 85.9013 17.4019 85.5025C16.7448 85.1544 17.3667 85.8593 16.7295 85.5331C13.4372 83.833 10.1078 81.7054 7.4642 79.034C6.88258 78.4381 7.63286 78.7588 7.36771 78.4636C6.2328 77.1558 5.57111 77.223 4.60059 75.8184C4.40205 75.5204 4.7181 75.5335 4.69985 75.4657C4.4302 74.4202 3.4778 74.0213 3.32361 73.7988C3.14225 73.5404 2.97802 73.2842 2.82761 73.0293C1.41767 70.5701 1.16779 68.4774 0.611461 65.6881C0.543963 65.3119 0.363735 66.2165 0.199504 65.1462C-0.464058 60.5958 0.587811 55.822 2.46256 51.7044C3.5446 49.3034 4.89719 47.0714 6.38442 45.0394C7.01832 44.1824 6.7772 44.9411 6.83857 44.9015C7.81879 44.265 7.7578 43.361 7.95035 43.0676C9.47773 40.7782 11.5533 39.2379 12.3379 37.4169C17.5048 32.3415 23.2422 27.9809 29.368 24.3069C33.0465 22.1072 36.8595 20.1729 40.787 18.5242C40.9194 18.4679 40.8164 18.8441 41.0798 18.731C44.2641 17.3865 43.4693 17.2695 45.33 15.8094C45.7979 15.4429 47.681 15.3518 47.8405 15.3386C48.431 15.2814 48.0664 15.9142 48.2538 15.8716C49.8 15.5099 48.994 14.2798 50.954 13.4686C51.016 13.4457 50.8603 13.7968 51.0343 13.7539C51.5742 13.6217 52.0438 13.3174 52.5774 13.202C53.8021 12.9415 54.4612 13.4313 56.0713 12.3794C56.2768 12.2463 55.64 11.6057 57.4262 10.9818C58.1349 10.7289 61.2712 9.59397 62.1741 9.34883C63.0741 9.09767 62.5528 9.55423 62.6195 9.54346C65.1087 9.07199 64.2525 9.51499 65.6035 9.6142C66.9508 9.71872 66.246 8.65846 66.6927 8.37202C67.1405 8.08415 68.9826 7.81493 69.4435 7.78241C69.9042 7.74791 69.4142 8.07069 69.8141 8.00934C72.4634 7.60757 70.7595 7.09375 71.5474 6.65968C73.4117 5.64107 75.2159 6.09173 77.0635 5.70425C77.5656 5.59955 77.109 5.50311 77.5463 5.37092C79.2792 4.85427 80.3999 4.8719 82.3451 4.16003C82.6609 4.04335 84.1706 3.14693 85.3117 3.32136C85.4727 3.34713 85.0953 3.65647 85.8593 3.5505C86.0668 3.52202 86.3038 3.48698 86.5598 3.44726C87.718 3.26572 89.2633 2.99815 90.2458 2.7631C91.1364 2.55055 90.0398 2.36119 91.1949 2.28041C91.7072 2.24643 90.8111 2.61889 91.7689 2.53828C92.7213 2.45474 95.1311 2.07872 96.047 1.95003C96.9652 1.81702 96.4243 1.60502 96.496 1.57584C96.9303 1.40403 98.6824 1.04733 98.8395 1.03151C106.739 0.0668315 114.09 0.258796 121.802 0.310206C122.408 0.315682 122.013 0.00536215 122.106 0.003115C124.186 -0.0537744 122.524 0.683828 123.958 1.00414C123.773 0.390695 124.623 0.529914 126.085 0.539643C126.789 0.544745 126.42 0.289936 126.485 0.269306C127.55 -0.0295078 128.249 0.478729 128.429 0.584744C129.095 0.97551 129.874 0.621035 130.326 0.887735C130.776 1.153 129.675 1.40936 131.067 1.51351C131.476 1.3285 130.484 0.679707 131.552 0.67357C134.8 0.643721 140.238 1.48079 143.88 2.12567C144.763 2.27873 145.544 2.41613 146.165 2.51693C149.341 3.03829 150.371 3.17678 152.207 3.56647C155.517 4.28779 154.368 3.66087 156.474 3.85182C158.586 4.0545 157.381 4.88197 157.637 5.15684C157.886 5.43127 158.249 5.26807 158.588 5.45901C158.925 5.64978 158.115 5.64502 158.954 5.85672C159.793 6.06604 162.19 6.15427 162.539 5.99189C163.276 5.64426 162.337 4.91219 164.548 5.57291C164.675 5.61142 164.199 5.78677 164.686 5.92079C168.568 6.97844 172.623 7.96112 176.453 9.15302C176.981 9.31789 176.426 9.4859 176.732 9.58521C179.909 10.6284 178.882 9.82931 180.804 9.76752C180.206 10.3876 181.061 11.0928 183.489 11.7971C184.943 12.2229 184.791 11.8363 185.798 11.8924C186.102 11.9092 187.07 12.4379 187.3 12.3462C188.063 12.0509 187.262 11.2042 189.697 12.1992C189.803 12.2439 189.371 12.3989 189.745 12.5341C192.158 13.4156 192.608 13.0018 195.267 13.831C195.628 13.9446 196.031 14.0855 196.461 14.2453C198.542 15.0147 201.279 16.2627 203.177 17.0503C202.828 17.8227 205.056 18.4898 206.162 18.3153C207.642 18.947 209.254 19.6003 210.641 20.3091C211.117 20.5523 210.697 20.6333 210.747 20.685C211.519 21.4882 212.385 21.2634 212.712 21.3908C216.214 22.7907 218.745 24.5779 222.073 25.9964C222.191 26.0481 222.665 25.6363 223.283 26.5001C223.32 26.5575 222.163 26.1828 223.607 27.0639C224.829 27.8109 226.816 29.3249 228.639 30.4725C228.981 30.6871 229.308 30.8812 229.636 31.0613C230.134 31.331 231.595 31.7982 232.285 32.8108C232.376 32.946 232.139 32.9757 232.256 33.1866C232.632 33.8626 233.317 33.6467 233.641 34.5753C233.965 35.5112 235.023 36.8863 236.893 38.3127C236.951 38.3587 237.681 38.4301 238.175 38.9898C238.964 39.8757 239.945 41.2498 240.647 42.2624C240.986 42.7483 241.012 42.271 241.075 42.3526C242.042 43.6516 242.753 44.9077 243.34 46.1939C244.202 48.1046 244.82 50.0808 245.299 52.5864C245.459 53.341 246.215 55.5407 245.958 57.0896C245.648 58.762 244.285 57.1202 244.491 60.7808C244.523 61.9182 245.495 63.465 245.202 65.338C245.118 65.8712 244.928 66.4281 244.582 66.9782C243.576 72.2527 241.16 76.6472 239.102 81.597C239.007 81.8229 239.122 82.7327 238.856 83.238C238.46 83.9886 238.035 84.2868 237.74 84.815C236.499 87.017 235.554 89.1367 234.318 91.2358C234.241 91.3666 234.174 91.4656 234.115 91.5436C233.817 91.9358 233.704 91.7837 233.23 92.5781C232.667 93.5201 232.572 94.3264 231.677 95.5272C230.999 96.4344 229.849 97.064 229.01 98.2991C229.539 98.6876 228.995 99.5616 228.187 101.208C228.031 101.526 228.423 101.323 228.359 101.48C228.106 102.115 227.613 102.555 227.386 103.164C227.33 103.313 227.516 103.437 227.481 103.566C227.187 104.666 225.813 105.916 225.574 106.131C224.668 106.953 224.619 107.575 224.028 108.268C223.435 108.963 224.018 107.732 223.387 108.583C222.083 110.341 220.607 112.726 219.402 114.588C218.922 115.332 219.499 114.984 219.436 115.095C218.511 116.678 217.245 118.059 217.193 119.235C215.215 119.468 216.721 120.243 215.042 122.273C214.909 122.433 214.157 122.258 214.497 121.536C214.836 120.815 215.678 119.931 216.133 118.918C216.241 118.68 216.476 117.058 216.55 116.867C217.14 115.353 218.173 115.753 218.27 115.713C219.328 115.256 219.689 113.331 219.905 112.899C220.888 110.928 222.014 109.439 222.851 107.802C223.399 106.732 222.86 106.253 223.377 105.47C225.094 102.864 226.516 102.454 227.319 99.4997C227.491 98.865 226.504 98.9965 228.197 97.3849C228.302 97.2865 229.648 96.1386 229.839 95.1243C229.863 94.9975 229.667 94.8849 229.732 94.7385C230.177 93.7493 230.694 93.2286 231.209 92.1754C231.478 91.6225 231.773 90.9999 232.09 90.3812C232.381 89.8156 232.688 89.2566 233.03 88.7244C233.463 88.0516 234.331 87.3566 234.607 87.0687C235.393 86.2612 235.513 85.0078 236.145 84.5837C236.782 84.1522 236.649 85.5881 237.687 84.1149C237.196 83.784 236.73 83.3711 236.253 83.006C238.048 79.5819 239.846 76.2312 241.155 72.6357C241.314 72.1927 240.851 72.536 241.013 72.0561C241.683 70.0414 242.442 68.3358 242.832 66.1922C242.906 65.7791 242.959 65.3539 242.997 64.9232C243.115 63.6106 243.092 62.2488 243.122 60.9631C243.89 59.967 243.708 57.3633 243.53 55.5349C243.473 54.8895 243.654 54.9084 243.643 54.4404C243.557 52.6731 243.106 53.5978 242.925 53.1523C242.076 51.3001 243.349 50.7549 242.415 48.4424C242.378 48.3457 241.6 47.622 241.172 47.2462C241.046 47.1333 240.953 47.0473 240.922 47.008C240.038 45.9301 241.046 46.6902 240.685 45.9054C240.002 44.4862 239.54 43.4448 238.235 42.0896C237.851 41.6904 236.69 40.9845 236.221 39.9806C236.159 39.8474 236.386 39.7421 236.318 39.6497C235.059 38.0021 234.471 38.5142 233.453 37.912C232.436 37.3176 231.362 35.774 231.156 35.4277C230.628 34.5196 231.844 35.7639 231.906 35.7734C232.672 35.824 231.588 35.0234 230.79 34.3659C231.124 33.6951 229.925 32.8517 229.959 33.6907C229.964 33.7812 230.65 34.2138 230.79 34.3659C229.694 34.3773 228.478 33.6178 227.434 32.2226C227.377 32.1451 227.32 32.0655 227.263 31.9838C226.754 31.2639 227.619 31.3797 225.433 30.1149C224.432 29.5478 224.542 30.2128 223.616 29.7978C221.51 28.8569 219.155 26.9821 217.01 25.9493C216.237 25.577 216.852 26.2072 216.318 25.9617C214.9 25.3145 213.759 24.521 212.296 23.9461C212.163 23.8944 212.354 24.3031 211.911 24.0988C208.563 22.5684 205.671 21.1399 202.066 19.7315C200.342 19.0537 197.2 18.0686 195.364 17.4093C195.346 17.4026 195.327 17.3959 195.309 17.3892C192.157 16.2351 188.334 14.5799 185.541 13.8545C183.725 13.3821 184.031 13.7765 183.209 13.741C181.616 13.671 179.159 12.2829 178.825 12.0852C178.813 12.0773 180.394 12.4419 179.6 12.0696C179.196 11.6385 178.843 12.0888 178.825 12.0852C178.612 11.952 175.503 11.0579 174.869 10.9571C174.524 10.8995 174.645 11.2128 174.466 11.1779C170.226 10.346 166.009 9.43605 161.755 8.41614C161.68 8.395 161.857 8.11941 161.681 8.07343C159.226 7.42493 157.559 7.48197 155.468 7.31769C153.377 7.1553 151.765 6.80315 150.632 6.08166C149.069 5.88548 146.872 5.30839 145.604 4.9818C144.336 4.65429 144.072 5.22105 143.958 5.21627C143.787 5.21041 143.619 5.20359 143.455 5.19585C140.181 5.04763 138.205 4.48966 134.711 4.08523C132.967 3.8788 129.492 3.67941 127.596 3.63504C126.098 3.59622 125.203 3.41165 123.821 3.44356C123.634 3.44796 123.811 3.72031 123.754 3.72822C122.207 3.98667 122.968 3.3682 122.654 3.24092C121.516 2.78415 120.802 2.53533 118.822 2.70953C118.363 2.74898 117.035 3.67541 116.212 3.73632C115.139 3.81413 115.542 3.47485 114.417 3.57309C114.321 3.58166 114.343 3.78634 113.651 3.79214C110.432 3.82263 106.919 3.89181 103.586 4.21212C103.131 4.25518 103.743 4.52795 103.088 4.59632C100.014 4.91798 96.6517 5.32936 93.6508 5.64928C92.911 5.72737 93.3348 5.42829 93.1646 5.38649C92.1181 5.13565 90.8282 5.96774 90.6061 6.0199C89.4314 6.29268 88.3154 6.52899 87.2236 6.74919C83.3268 7.54102 79.788 8.07855 75.5704 9.43039C75.2745 9.52338 73.1723 10.7754 72.0065 10.5488C71.9279 10.5336 70.7618 10.2899 69.987 10.9286C69.9393 10.9685 70.6463 11.0548 69.5507 11.3592C68.4541 11.6644 66.7714 12.4007 65.1879 12.5933C64.6885 12.6538 63.3929 12.4947 62.1428 13.4062C62.0582 13.466 60.2548 15.1804 59.2565 14.8085C59.0947 14.7471 58.963 14.0022 57.4437 14.9781C57.1546 15.1662 57.7853 15.1025 56.9914 15.5146C55.778 16.1465 54.0315 16.6208 52.6107 17.5608C52.3649 17.724 51.4125 18.6603 50.3566 18.6983C50.1899 18.7047 50.3654 18.3614 49.8711 18.543C47.5251 19.4052 45.216 20.6337 42.8663 21.5795C42.0336 21.9167 42.2739 21.3558 41.385 21.6736C40.4943 21.9912 38.767 22.7547 37.9846 23.3753C37.2048 23.9941 38.4416 24.0543 37.1832 24.7854C35.3235 25.8727 33.4681 26.9376 31.6354 28.0244C28.0818 30.1326 24.5847 32.3315 21.3622 34.8952C20.6438 35.4722 21.3756 35.1591 20.3353 36.034C16.4082 39.1931 10.8765 45.6699 8.44753 49.1055C6.42382 51.844 8.28297 47.9815 6.86528 50.1819C6.18434 51.2682 6.29696 52.8124 6.20551 53.0875C6.18285 53.1535 6.16041 53.2188 6.13817 53.2833C5.24921 55.9224 4.42103 57.7088 4.19827 60.1531C4.16111 60.6642 4.51323 60.1983 4.48267 60.6302C4.38823 62.0898 4.29315 63.6156 4.52881 64.9737C4.63938 65.5793 4.84469 65.4263 4.94188 65.9758C5.19516 67.2887 5.49697 68.438 5.88404 69.7463C5.9217 69.8684 5.29762 69.2318 5.74334 70.1727C5.8881 70.4678 6.04149 70.7768 6.20771 71.0939C6.891 72.4105 7.82204 73.8513 9.04837 74.9004C9.50886 75.2856 9.86872 74.9364 10.5458 76.062C10.6961 76.2922 10.0073 76.5537 11.513 77.114C11.7627 77.2306 14.1902 78.1606 15.0106 79.2178C15.2184 79.5011 15.6846 80.4006 16.3782 80.7136C16.4727 80.7539 16.263 80.3063 16.814 80.5968C18.2807 81.3694 19.8086 82.1695 21.3928 82.9044C21.909 83.1439 22.4324 83.3771 22.96 83.5991C23.5262 83.8353 22.8186 83.188 23.6611 83.5477C25.9777 84.5363 28.8635 85.8113 31.1559 86.7843C32.0033 87.1449 31.3243 87.1428 31.377 87.191C32.229 87.9713 33.0293 87.6524 33.3778 87.745C35.5248 88.3178 37.044 89.1295 39.0114 89.7117C39.5554 89.8727 39.2603 89.4857 39.3751 89.4981C40.5632 89.6393 39.5786 89.8328 40.2656 90.1154C42.1953 90.9086 44.4128 91.5776 46.4433 92.15C47.1918 92.3603 46.4497 91.8067 47.1139 91.9965C49.6345 92.7114 52.2165 93.4454 54.7639 94.1942C56.2043 94.6178 57.6316 95.0461 59.0279 95.4781C59.748 95.7014 59.2278 95.818 59.3656 95.9118C60.3215 96.5665 62.0039 96.446 62.3677 96.4853C64.0448 96.6703 64.6205 97.0358 66.0583 97.3465C73.0967 98.8716 81.748 100.882 88.4118 102.236C96.5914 103.902 103.056 105.182 110.791 106.279C111.265 106.346 111.744 106.411 112.231 106.477C112.765 106.548 112.272 106.15 112.733 106.208C118.666 106.962 124.498 107.814 130.471 108.387C130.961 108.434 130.291 108.049 131.077 108.115C132.692 108.247 134.733 108.482 136.351 108.748C137.141 108.878 136.047 109.031 136.844 109.156C138.697 109.446 140.696 109.666 142.617 109.799C143.435 109.854 142.234 109.424 143.294 109.52C150.519 110.169 157.621 110.689 164.909 111.597C165.409 111.659 165.806 112.329 166.881 112.277C166.973 112.105 166.982 111.895 167.03 111.708C172.313 112.004 177.565 112.332 182.821 112.627C188.067 112.921 193.319 113.185 198.608 113.362C199.055 113.377 198.294 113.014 199.158 113.04C204.164 113.193 209.025 113.207 214.144 113.626C214.655 113.666 214.373 114.261 215.882 114.192C216.146 114.18 218.404 114.129 218.989 114.006C219.069 113.987 218.659 113.703 219.389 113.704C223.616 113.709 228.046 113.798 232.265 113.977C232.953 114.006 232.221 114.302 232.709 114.325C234.338 114.403 236.04 114.392 237.716 114.388C239.613 114.383 241.453 114.388 243.193 114.53C245.402 114.712 244.583 115.225 245.758 115.731C245.92 115.802 247.29 115.814 247.357 116.108C247.537 116.848 246.882 117.658 247.148 118.446C247.214 118.616 249.03 118.433 247.953 118.843C247.876 118.871 246.548 119.007 246.227 119.146C245.999 119.243 246.411 119.542 245.944 119.665C245.48 119.788 244.968 119.537 244.202 119.682C243.424 119.829 243.771 120.169 242.238 120.209ZM139.874 3.5739C138.708 3.14467 138.41 4.16367 139.733 4.07099C139.797 4.06539 139.934 3.59541 139.874 3.5739ZM240.462 76.5373C241.511 75.2736 241.268 74.0214 240.527 74.9066C239.783 75.7805 240.143 76.9149 240.462 76.5373ZM233.27 91.2153C233.301 91.1797 233.331 91.1443 233.359 91.1093C234.449 89.7385 233.338 88.8532 232.638 90.6693C232.635 90.6762 232.635 90.6849 232.637 90.695C232.671 90.8408 233.203 91.2926 233.27 91.2153ZM240.321 115.875C240.341 115.889 241.31 115.902 241.345 115.889C241.871 115.556 239.896 115.529 240.321 115.875ZM225.153 105.366C225.628 104.984 226.314 103.443 225.722 103.922C225.245 104.309 224.559 105.844 225.153 105.366ZM77.241 6.18616C77.2179 6.17567 76.5348 6.33925 76.5708 6.42126C76.6889 6.68325 77.6142 6.36044 77.241 6.18616ZM210.185 128.739C212.465 125.33 214.846 123.91 212.3 127.582C211.838 128.247 212.921 125.906 212.267 126.71C211.073 128.18 211.037 129.649 209.644 131.037C209.392 131.287 210.052 128.933 210.188 128.732C210.187 128.734 210.186 128.737 210.185 128.739ZM139.333 2.24178C139.31 2.22464 138.345 2.0982 138.32 2.1096C137.758 2.37853 139.701 2.63278 139.333 2.24178ZM38.5712 19.9457C38.505 19.9416 36.4802 20.9591 36.4272 21.0227C35.6336 22.0463 39.719 19.9916 38.5712 19.9457ZM203.205 17.0856C204.322 17.1601 205.525 17.5997 206.157 18.3131C205.178 17.8878 204.194 17.4918 203.205 17.0856Z" fill="#735A47"/>
</svg>
