<svg width="169" height="169" viewBox="0 0 169 169" fill="none" xmlns="http://www.w3.org/2000/svg">
<path d="M11.5638 69.9289C11.0067 72.6244 10.2164 76.3174 9.57236 79.1199C9.37406 79.9846 9.27152 79.5078 9.12407 80.1204C8.84181 81.2888 8.72967 82.4538 8.44245 83.6058C8.34443 83.999 8.141 83.452 8.04459 83.8672C7.52448 86.1101 7.23621 88.2577 6.78866 90.5452C6.70543 90.9698 6.62144 91.4016 6.53665 91.8407C4.97467 99.8915 4.90394 108.314 8.14975 115.648C9.18914 118.001 10.0973 120.305 11.1387 122.531C12.6823 125.918 14.7934 129.904 17.407 132.656C17.708 132.976 17.7277 132.609 17.7988 132.657C18.9139 133.403 18.2402 133.434 18.7849 134.1C20.0157 135.579 21.5178 136.984 23.139 138.196C24.4401 139.17 25.7389 140.08 26.9825 140.875C28.1956 141.642 27.2877 140.418 28.3256 141.452C28.3983 141.523 27.9452 141.554 28.2568 141.793C28.9648 142.34 30.4267 143.182 31.0147 143.546C32.1429 144.252 32.3383 144.356 33.45 144.967C34.9698 145.8 36.7598 146.87 38.4628 147.656C38.8319 147.826 38.4828 147.336 39.0707 147.578C39.5353 147.77 40.5104 148.262 41.1785 148.632C41.3773 148.742 41.5447 148.839 41.6566 148.912C42.1369 149.222 41.8225 149.313 41.8908 149.403C42.4479 150.155 44.4689 150.465 44.7014 150.556C48.9464 152.277 52.413 154.134 56.4174 155.701C59.4556 156.888 62.7744 157.955 65.7158 158.918C65.9656 159 66.2121 159.08 66.4548 159.16C69.63 160.196 72.4268 161.067 75.6751 161.733C76.0444 161.807 75.6806 161.394 76.1303 161.484C80.9076 162.432 85.6992 163.076 90.5438 163.562C91.0299 163.611 90.3861 163.867 90.8717 163.932C93.8376 164.35 98.6399 164.891 100.371 163.547C101.83 163.533 103.513 163.479 105.025 163.482C105.605 163.485 106.146 163.489 106.652 163.504C107.808 163.529 106.744 163.988 108.132 163.66C108.443 163.582 107.991 163.372 108.46 163.275C110.425 162.866 112.58 162.439 114.427 161.695C114.803 161.543 114.62 161.341 114.714 161.263C115.501 160.631 117.187 160.625 117.533 160.527C120.126 159.82 121.844 158.82 124.055 157.631C124.568 157.352 123.804 157.392 124.29 157.113C126.811 155.668 129.413 154.096 131.967 152.711C132.535 152.404 132.176 152.955 132.455 152.821C133.319 152.403 133.567 151.976 134.049 151.559C134.245 151.387 134.479 151.217 134.811 151.047C135.046 150.926 135.052 151.21 135.107 151.206C135.981 151.144 136.195 150.271 136.343 150.15C138.235 148.582 139.842 148.032 141.529 146.291C141.727 146.081 141.051 146.315 141.616 145.741C145.38 141.912 148.715 137.223 151.917 132.802C152.415 132.116 152.275 132.748 152.328 132.719C153.178 132.237 152.992 131.439 153.126 131.195C153.473 130.576 153.872 130.006 154.261 129.466C155.056 128.369 155.759 127.335 155.822 126.247C159.474 120.146 161.417 113.177 162.764 106.212C163.135 104.289 163.504 102.373 163.865 100.452C163.886 100.337 164.153 100.578 164.193 100.349C164.658 97.5955 164.141 98.0738 163.726 96.214C163.621 95.7498 164.366 94.3896 164.418 94.2637C164.618 93.8181 165.035 94.3059 165.076 94.1553C165.395 92.8957 163.956 93.0601 163.965 91.3864C163.968 91.3336 164.233 91.5551 164.26 91.4136C164.343 90.9719 164.233 90.5394 164.315 90.1062C164.502 89.121 165.198 88.7278 164.695 87.2353C164.626 87.0493 163.843 87.3886 163.753 85.8988C163.731 85.3009 163.391 82.6842 163.307 81.9455C163.238 81.2088 163.581 81.6646 163.584 81.6112C163.579 79.5736 163.849 80.295 164.157 79.195C164.447 78.0864 163.304 78.6224 163.082 78.2559C162.862 77.8867 162.785 76.3901 162.781 76.0079C162.783 75.6325 163.063 76.0249 163.033 75.6984C162.801 73.5163 162.19 74.9596 161.806 74.3399C160.887 72.9025 161.328 71.3955 160.87 69.9292C160.84 69.8328 160.813 69.7827 160.786 69.7573C160.704 69.6766 160.636 69.8406 160.52 69.5797C159.925 68.2283 159.876 67.3022 159.045 65.8452C158.903 65.5912 157.924 64.5527 157.983 63.5749C157.994 63.4391 158.33 63.686 158.157 63.0856C157.902 62.1963 157.35 60.5954 156.926 59.6849C156.614 59.0176 156.566 59.9485 156.342 59.0255C156.243 58.6165 156.72 59.2623 156.518 58.5025C156.326 57.7679 155.61 55.8988 155.339 55.2029C155.07 54.5137 154.947 54.9893 154.909 54.9421C154.671 54.623 154.038 53.3398 153.99 53.2125C151.616 47.3584 150.29 41.3791 146.667 36.5501C146.632 36.507 146.596 36.4623 146.559 36.4159C146.239 36.0032 146.204 36.4589 146.153 36.3976C145.049 35.0348 146.488 35.7197 146.047 34.5872C145.638 35.0678 145.334 34.4112 144.64 33.4606C144.303 33.0005 144.274 33.3876 144.226 33.3575C143.467 32.842 143.533 32.1011 143.526 31.9185C143.512 31.2642 142.834 30.982 142.813 30.5341C142.793 30.0911 143.565 30.6287 142.928 29.6889C142.569 29.5458 142.571 30.5616 142.013 29.9012C139.958 27.3921 136.612 22.4022 134.689 20.6779C133.243 19.2954 132.461 18.7866 131.627 18.221C131.383 18.0602 131.133 17.8923 130.858 17.7019C128.593 16.1399 129.23 17.026 127.676 16.3052C126.117 15.588 127.36 15.1298 127.264 14.812C127.171 14.496 126.828 14.5578 126.632 14.2985C126.437 14.0397 127.073 14.2426 126.49 13.8415C125.907 13.4387 124.038 12.8061 123.706 12.8861C123.003 13.0519 123.497 13.9266 121.974 12.8526C121.887 12.7907 122.323 12.724 121.98 12.499C119.249 10.72 116.262 9.1398 113.381 7.62482C112.984 7.41618 113.474 7.30565 113.244 7.18114C110.833 5.90392 111.512 6.76649 109.935 6.72814C110.525 6.15843 109.946 5.39473 107.991 4.68C106.816 4.26143 106.906 4.64585 106.076 4.61611C105.825 4.60645 105.058 4.1312 104.859 4.23547C104.213 4.57943 104.844 5.32811 102.893 4.56726C102.807 4.53394 103.159 4.33834 102.856 4.24284C100.934 3.66193 100.544 4.08639 98.5253 3.85287C98.4751 3.84777 98.4234 3.84232 98.3702 3.8365C96.682 3.63188 93.6157 3.13824 91.6122 3.05106C91.6796 2.20059 89.7645 2.36301 89.0024 2.95001C87.7042 2.92168 86.2967 2.96743 85.0403 2.9067C84.6056 2.88619 84.8868 2.6358 84.8316 2.61013C83.9892 2.20759 83.4297 2.7896 83.1512 2.81798C80.1108 3.10328 77.6141 2.75747 74.7178 3.27349C74.6148 3.29202 74.4649 3.88704 73.6752 3.48166C73.6244 3.45357 74.578 3.15462 73.2049 3.17778C71.8323 3.20081 69.2458 2.96335 67.342 3.26732C66.8932 3.34113 65.7108 3.83653 64.777 3.46206C64.65 3.41128 64.7884 3.24221 64.6063 3.14799C64.0377 2.85138 63.7021 3.42394 63.0575 2.94565C63.0478 2.93852 63.0379 2.93116 63.028 2.92356C62.3623 2.40706 60.8753 2.01797 58.9745 2.58144C58.9125 2.59887 58.5147 3.11692 57.923 3.19627C56.97 3.31875 55.6108 3.48608 54.6362 3.73517C54.1691 3.85405 54.5407 4.06332 54.461 4.08888C51.4074 5.06705 49.1834 5.6422 46.0173 7.06056C45.4326 7.32023 44.0167 8.51777 42.8047 8.86555C41.47 9.261 41.9115 7.27449 39.4132 9.25314C38.4022 10.0697 38.129 12.4487 35.7623 13.0075C32.3759 15.7801 28.9763 18.0033 25.814 21.057C25.6687 21.1964 25.5245 21.9768 25.1534 22.2721C24.6131 22.7003 24.1726 22.7509 23.7778 23.0491C22.6169 23.9185 21.6007 24.8228 20.5097 25.6581L20.537 25.6323C20.1921 26.0925 19.8475 26.5528 19.4876 27.0121C19.0266 27.606 18.9858 27.2454 18.4433 27.9643C17.9061 28.6859 17.8268 29.3584 17.0224 30.2793C16.4167 30.9751 15.3578 31.394 14.6518 32.4119C15.1885 32.7925 14.7335 33.5 14.1575 34.8827C14.0482 35.1477 14.3957 34.9918 14.3544 35.1227C14.1901 35.6598 13.7831 36.016 13.654 36.5352C13.6225 36.661 13.8173 36.7708 13.8029 36.8797C13.6869 37.8031 12.6086 38.8702 12.4227 39.0647C11.7145 39.7861 11.7958 40.3172 11.3832 40.9341C10.9729 41.5548 11.2557 40.4836 10.8451 41.2391C9.99083 42.8137 9.21956 44.9863 8.69165 46.7247C8.48295 47.4175 8.90979 47.0282 8.88654 47.1292C8.84579 47.2995 8.80152 47.4668 8.75595 47.6307C8.42323 48.8969 7.93267 50.0761 8.26532 50.9108C6.52624 51.5412 8.18983 51.8171 7.39184 53.8106C7.32883 53.9666 6.57184 54.007 6.61943 53.3536C6.66677 52.7021 7.11872 51.8063 7.1741 50.8969C7.18662 50.6824 6.82366 49.3374 6.8259 49.1647C6.83688 47.8221 7.93703 47.9171 8.01124 47.8667C8.14157 47.7736 8.24351 47.6514 8.3216 47.516C8.745 46.7913 8.58417 45.5762 8.65112 45.2477C9.00826 43.4524 9.72168 42.0685 10.1659 40.6154C10.4631 39.6637 9.8574 39.2831 10.208 38.5749C11.4008 36.2276 12.6899 35.9127 13.144 33.3582C13.2498 32.8149 12.3048 32.8626 13.8078 31.5494C13.9024 31.4637 15.1128 30.5706 15.2632 29.7038C15.2821 29.5938 15.0907 29.4725 15.149 29.3495C15.5467 28.5267 16.0356 28.1304 16.5358 27.2771C17.0363 26.4249 17.6451 25.392 18.4063 24.5526C18.5111 24.4368 18.6383 24.3255 18.7755 24.2208L19.1972 23.8216C19.6858 23.6454 20.3002 23.522 20.5275 23.4499C21.3998 23.1654 21.8358 22.198 22.4863 22.1387C23.1405 22.0777 22.6407 23.1875 23.9225 22.4537C23.594 21.9625 23.3116 21.4137 23.0024 20.9024C25.4603 18.9256 27.9937 17.0215 30.5063 14.9836C30.8195 14.729 30.2988 14.7393 30.6311 14.4592C32.0261 13.2883 33.428 12.4924 34.9128 11.2991C36.0641 10.3733 37.204 9.17319 38.4726 8.25004C39.633 8.29211 41.4683 6.88507 42.9863 6.13253C43.515 5.86817 43.566 6.04617 43.9634 5.90175C45.4655 5.36665 44.5396 5.17995 44.887 4.89805C46.4115 3.71349 47.1205 4.85562 49.1223 4.00491C49.2223 3.95782 50.3102 2.78426 50.4922 2.67995C51.5982 1.99469 50.7706 2.84549 51.5357 2.64862C52.94 2.30473 53.9354 2.201 55.5458 1.64216C56.0115 1.4782 57.1191 0.816508 58.131 1.03698C58.2628 1.06549 58.2237 1.30984 58.3261 1.31076C60.1774 1.3297 60.1552 0.610784 61.2293 0.302539C61.7775 0.150281 62.497 0.215189 63.1037 0.349518C63.5962 0.473318 64.0467 0.633368 64.1853 0.705869C64.9852 1.09297 63.5692 0.867084 63.5222 0.901842C63.0062 1.34286 64.1047 1.2832 64.9628 1.31748C65.0774 2.0497 66.2875 1.99642 65.8449 1.34902C65.7921 1.27874 65.1275 1.35104 64.9628 1.31748C65.7014 0.599393 66.9968 0.494569 68.4622 1.13245C69.1513 1.43038 68.5132 1.81531 70.5798 1.62601C71.5185 1.53888 71.1418 1.04612 71.9641 0.884198C73.8495 0.513909 76.3269 0.898927 78.2859 0.764121C78.9972 0.715229 78.2953 0.461218 78.7805 0.418435C80.0692 0.30434 81.2154 0.478589 82.5123 0.341914C82.6301 0.329214 82.3349 0.0475521 82.7399 0.0344732C85.8081 -0.0660813 88.4913 0.0781097 91.7311 0.151593C93.2908 0.181845 96.1246 0.155412 97.805 0.388338C98.178 0.436993 98.6063 0.504455 99.0011 0.580434C101.63 1.0716 104.395 2.1122 106.426 2.67618C107.956 3.10686 107.718 2.73313 108.429 2.7716C109.816 2.8479 111.731 4.35995 111.968 4.58065C111.975 4.58486 110.693 4.13362 111.307 4.54462C111.578 4.98923 111.952 4.5759 111.968 4.58065C112.136 4.7135 114.587 5.86551 115.089 6.05213C115.365 6.14851 115.334 5.83189 115.476 5.88721C118.859 7.21085 122.082 8.87472 125.165 10.8027C125.217 10.8395 124.981 11.0561 125.106 11.1391C126.855 12.3101 128.194 12.679 129.787 13.3854C131.378 14.0928 132.502 14.8764 133.088 15.8567C133.089 15.8574 133.09 15.8581 133.091 15.8587C134.403 16.5743 135.822 18.0705 136.533 18.9528C137.255 19.838 137.772 19.5383 137.855 19.6021C140.289 21.6078 141.125 23.2353 142.93 25.7841C143.788 26.9964 145.496 29.3735 146.406 30.6645C147.127 31.6737 147.418 32.3894 148.102 33.2662C148.193 33.3819 148.332 33.1123 148.366 33.1439C149.294 33.9624 148.443 33.8514 148.484 34.1193C148.534 34.4542 148.595 34.7544 148.665 34.9889C148.923 35.5886 149.284 36.1615 149.98 37.065C150.227 37.376 151.622 37.9575 152.002 38.5952C152.493 39.4194 152.034 39.2441 152.527 40.0902C152.567 40.1609 152.753 40.0661 152.993 40.6109C154.112 43.1605 155.084 45.952 156.112 48.5403C156.253 48.8991 156.382 48.3255 156.588 48.8337C157.554 51.229 158.538 53.8691 159.28 56.2711C159.466 56.8717 159.112 56.5833 159.096 56.7334C158.994 57.6305 159.972 58.5279 160.047 58.6942C161.639 62.2306 162.397 65.2038 163.744 68.6271C164.011 69.3071 164.284 69.9908 164.578 70.716C164.681 70.9473 165.939 72.7151 165.66 73.7518C165.644 73.8236 165.355 74.8409 165.927 75.5109C165.963 75.5533 166.101 74.9315 166.32 75.8949C166.538 76.853 167.086 78.367 167.022 79.7622C167.004 80.2034 166.634 81.2836 167.256 82.4774C167.304 82.5428 168.563 84.4002 167.928 85.1774C167.821 85.3037 167.089 85.2522 167.583 86.7308C167.677 87.0153 167.805 86.4767 167.959 87.2347C168.195 88.4019 168.053 89.9615 168.38 91.404C168.44 91.6534 168.934 92.7414 168.525 93.5925C168.461 93.7251 168.223 93.4625 168.181 93.9137C167.974 96.0544 167.96 98.3013 167.548 100.426C167.402 101.177 167.052 100.744 166.851 101.516C166.65 102.288 166.333 103.842 166.39 104.681C166.447 105.521 167.212 104.727 167.073 105.957C167.037 106.269 166.998 106.581 166.957 106.892C166.269 112.026 164.624 116.959 162.63 121.761C162.311 122.518 162.786 121.976 162.315 123.096C161.301 125.506 159.667 128.903 157.687 131.765C156.405 133.635 155.153 135.411 154.124 136.585C152.134 138.85 153.992 135.567 152.585 137.37C151.906 138.237 151.822 139.642 151.682 139.877C150.345 142.163 148.956 143.442 147.472 145.347C147.162 145.74 147.709 145.562 147.441 145.895C146.522 147.036 145.366 148.075 144.373 149.077C143.925 149.528 144.169 149.61 143.729 150C142.674 150.928 141.66 151.668 140.45 152.341C140.341 152.401 140.825 151.665 140.004 152.289C138.882 153.134 137.412 153.971 136.047 154.883C135.807 155.046 135.573 155.215 135.348 155.392C134.927 155.723 135.183 156.179 134.017 156.467C133.772 156.528 133.709 155.832 132.848 156.993C132.705 157.186 131.151 158.99 129.939 159.16C129.621 159.205 128.71 159.147 128.184 159.545C128.113 159.601 128.563 159.665 128.105 159.961C126.487 161 124.685 161.95 122.91 162.911C122.434 163.168 123.287 163.079 122.57 163.453C120.599 164.484 117.951 165.48 115.812 166.056C115.023 166.269 115.49 165.87 115.425 165.863C114.399 165.736 114.019 166.432 113.718 166.548C111.856 167.25 110.317 167.283 108.533 167.618C108.039 167.707 108.429 167.929 108.333 167.967C107.325 168.341 108.034 167.753 107.377 167.779C106.715 167.801 106.036 167.833 105.339 167.866C104.158 167.919 102.951 168.007 101.815 168.08C101.165 168.122 101.91 168.408 101.326 168.441C97.8642 168.64 94.2354 168.605 90.8523 168.261C90.2165 168.195 90.6304 167.971 90.5005 167.909C89.6079 167.473 88.2381 167.91 87.9238 167.936C86.5 168.056 85.9745 167.788 84.7322 167.697C78.6564 167.285 71.2717 165.58 65.8342 163.769C65.5792 163.686 65.3261 163.603 65.0747 163.518C58.4196 161.264 53.3178 159.044 47.1027 156.375C46.6928 156.196 46.9719 156.677 46.6179 156.527C44.0328 155.424 41.521 154.216 39.0268 152.967C37.1241 152.014 35.2239 151.065 33.2802 150.1C32.9159 149.918 33.2997 150.467 32.6998 150.178C31.4851 149.595 29.9569 148.747 28.7976 147.957C28.2332 147.572 29.1548 147.804 28.5855 147.422C27.2599 146.528 25.8246 145.587 24.4544 144.711C23.8685 144.337 24.5536 145.189 23.8101 144.683C22.584 143.846 21.4047 143.004 20.2344 142.148C16.3285 139.306 12.9152 135.673 10.472 131.453C10.2491 131.067 10.5735 130.401 9.98632 129.688C9.79863 129.723 9.62237 129.836 9.44411 129.909C6.92425 125.948 5.22346 121.606 3.54768 117.758C1.65145 113.517 0.735573 108.962 0.4517 104.458C0.42804 104.069 0.130845 104.765 0.0855587 104.009C-0.153646 99.6375 0.083549 95.4029 1.11789 91.1559C1.1412 91.0603 1.18789 91.0027 1.24742 90.9561C1.44941 90.8024 1.80218 90.7619 1.88904 89.8217C1.90605 89.6194 2.13549 87.7769 2.08742 87.2853C2.07902 87.2178 1.74722 87.5055 1.83937 86.9131C2.37419 83.5094 3.05151 79.9529 3.85001 76.5641C3.97969 76.0175 4.16338 76.6575 4.25793 76.2713C4.93125 73.5281 5.28942 70.4556 6.23806 67.8097C6.89709 66.0356 7.21446 66.848 7.98496 66.0475C8.08904 65.9301 8.48643 64.842 8.79244 64.8918C9.5318 65.0306 10.0999 65.8089 10.9129 65.8911C11.0779 65.8974 11.4249 64.6544 11.4959 65.5103C11.4955 65.5609 11.2829 66.4844 11.3453 66.7606C11.3854 66.9443 11.7602 66.7644 11.7747 67.1136C11.79 67.4652 11.4395 67.75 11.4253 68.3465C11.4167 68.9464 11.806 68.7755 11.5638 69.9289ZM139.467 23.0512C139.883 24.0123 140.796 23.4779 139.903 22.7781C139.859 22.7451 139.444 23.002 139.467 23.0512ZM28.5003 17.662C29.7965 17.1941 30.0568 16.1118 29.1203 16.4129C28.1902 16.7113 28.1038 17.8074 28.5003 17.662ZM18.5061 26.7878C19.7142 25.796 18.6981 24.6868 17.9294 26.1895C17.8847 26.2772 18.4356 26.8468 18.5061 26.7878ZM6.99699 70.4477C7.01171 70.4418 7.20325 69.6529 7.19475 69.6325C6.96588 69.1367 6.58251 70.7123 6.99699 70.4477ZM11.8829 38.4224C12.264 38.084 12.6721 36.7616 12.1838 37.1757C11.787 37.5079 11.4001 38.8505 11.8829 38.4224ZM161.333 69.709C161.325 69.7296 161.514 70.2734 161.592 70.2318C161.846 70.0973 161.486 69.3704 161.333 69.709ZM5.3602 60.0785C6.15451 56.832 7.81273 55.1452 6.85877 58.6493C6.68688 59.2853 6.79547 57.1806 6.49997 57.9713C5.95998 59.4197 6.48604 60.5826 5.74223 62.0175C5.60657 62.2763 5.31176 60.2624 5.35985 60.0723C5.35996 60.0743 5.36008 60.0764 5.3602 60.0785ZM138.857 24.2927C138.86 24.316 139.344 24.9444 139.365 24.9517C139.895 25.0846 138.916 23.8101 138.857 24.2927ZM163.884 102.58C163.852 102.62 163.564 104.43 163.579 104.493C163.98 105.524 164.567 101.849 163.884 102.58ZM91.5815 3.02773C90.7141 3.34237 89.6868 3.37201 89.0063 2.95045C89.8565 2.97543 90.7231 2.98816 91.5815 3.02773Z" fill="#735A47"/>
</svg>
