<svg width="15" height="60" viewBox="0 0 15 60" fill="none" xmlns="http://www.w3.org/2000/svg">
<path d="M6.77351 0.571427C6.86525 0.90278 6.76944 1.36206 6.63742 1.68805C6.59648 1.79353 6.41067 1.7412 6.37408 1.81452C6.30276 1.95677 6.39466 2.09857 6.30968 2.23552C6.28062 2.28153 5.98635 2.22654 5.9626 2.27483C5.8346 2.53811 5.91164 2.80141 5.85175 3.0725C5.55638 4.41502 5.46645 5.74036 5.36213 7.10407C5.32806 7.5585 5.07432 8.1025 5.20336 8.56921C5.21869 8.62355 5.47568 8.5841 5.49721 8.59394C5.82687 8.74678 5.30486 8.70628 5.23854 8.81306C4.9767 9.23473 4.96689 9.70965 5.07899 10.1046C5.1275 10.2744 5.63413 10.0864 5.35221 10.268C5.33317 10.2806 5.05799 10.2459 5.0303 10.2939C4.96804 10.4027 5.02367 10.6043 5.00479 10.6884C4.96701 10.8503 4.9706 10.8746 4.97268 11.0251C4.97314 11.2303 4.84585 11.4803 4.91614 11.7002C4.93196 11.747 5.21023 11.6739 5.2608 11.7476C5.31131 11.8225 5.295 12.02 5.23146 12.0897C5.16787 12.1591 4.94623 12.1392 4.89614 12.153C4.47323 12.2671 5.0733 12.4742 5.08912 12.5032C5.35999 13.0365 5.04314 13.5075 5.06756 14.0177C5.08667 14.4014 5.21769 14.8066 5.22117 15.1742C5.22411 15.6095 5.09202 15.9876 5.142 16.4095C5.14696 16.454 5.47363 16.3831 5.48035 16.4373C5.55147 17.0132 5.55039 17.5894 5.36549 18.1794C5.34666 18.2387 5.05253 18.1831 5.01644 18.2434C4.80155 18.6116 4.26968 19.2155 5.54372 19.3349C5.51157 19.5769 5.48219 19.8708 5.24477 20.1042C5.09199 20.2547 4.76688 20.1446 4.91423 20.3041C4.94711 20.3401 5.21902 20.2692 5.24747 20.3246C5.367 20.5582 5.29817 20.8272 5.46019 21.0553C5.49377 21.1015 5.73967 21.068 5.78527 21.0781C6.15486 21.1637 5.57553 21.4047 5.53585 21.4504C5.24019 21.796 5.38745 22.0181 5.40638 22.3167C5.41064 22.3859 5.73479 22.2744 5.7508 22.3398C5.82942 22.6792 5.83408 23.0335 5.72033 23.386C5.69421 23.4641 5.40526 23.423 5.37835 23.4618C5.2632 23.6329 5.79956 23.6145 5.69964 23.7764C5.67927 23.8105 5.43598 23.8172 5.41004 23.8257C5.00295 23.9589 5.60092 23.9773 5.61632 23.999C5.82465 24.2746 5.22958 24.5321 5.348 24.8081C5.36279 24.841 5.65962 24.7307 5.68253 24.8249C5.8371 25.4534 5.83302 26.132 5.67216 26.7989C5.64747 26.9017 5.40958 26.8617 5.38218 26.8715C4.95473 27.0301 5.55371 27.0174 5.58013 27.0461C5.77297 27.2722 5.31173 27.5825 6.03807 27.6543C5.94496 28.7552 6.50496 29.7304 6.08241 30.8921C6.07773 30.9067 5.78525 30.9388 5.77718 30.9677C5.67697 31.3134 6.1141 31.1729 6.70247 31.2697C6.85018 31.2939 6.22447 31.5902 6.17936 31.615C6.01236 31.7042 5.57414 31.7404 5.54335 31.765C5.30369 31.9676 6.70974 31.6441 6.75076 31.8305C6.7497 31.8369 6.48487 31.8689 6.46252 31.8904C6.45494 31.8976 6.4495 31.9043 6.44574 31.9107L6.42653 31.8373C6.40043 31.8945 6.48597 31.9172 6.42144 31.9851C6.25367 32.1599 5.59551 32.405 6.03827 32.4578C6.09555 32.4641 6.86814 32.1919 6.88366 32.375C6.8891 32.448 6.99521 32.7474 6.97071 32.8487C6.94609 32.9495 6.67598 32.968 6.66691 32.9774C6.40347 33.3088 6.23865 33.2639 5.77989 33.5294C5.32293 33.7942 6.48655 33.4042 6.63177 33.4109C6.7767 33.418 6.55229 33.6684 6.46948 33.7398C6.38643 33.8105 6.21035 33.8076 6.16745 33.8611C5.88816 34.2134 6.7826 33.7906 6.99338 33.8142C7.49217 33.8691 6.66682 34.2816 6.63406 34.4797C6.62523 34.5333 6.81184 34.4349 6.84302 34.4707C6.96432 34.6148 6.72331 34.7977 7.02955 34.9096C7.07949 34.928 7.64897 34.9202 7.29478 35.135C7.24363 35.1658 7.01477 35.1925 6.98752 35.2773C6.94632 35.4036 6.95733 35.6098 7.06417 35.7005C7.14324 35.7677 7.47147 35.5631 7.39245 35.702C7.35708 35.7638 7.12169 35.741 7.07268 35.8516C7.02366 35.9622 7.10008 36.1803 7.1334 36.2639C7.16671 36.3469 7.42362 36.2177 7.44398 36.2191C7.5613 36.229 7.74166 36.3523 7.7457 36.3668C7.99835 37.0786 7.74594 37.8915 8.11002 38.5484C8.1384 38.6007 8.41315 38.477 8.42043 38.4841C8.59804 38.6386 7.79209 38.7184 7.57782 38.9285C8.15241 38.7336 8.07112 38.8441 8.17516 38.9584C8.22576 39.0133 8.43992 38.9102 8.4647 38.9092C8.83491 38.9013 8.41397 39.1007 8.32892 39.145C8.01613 39.3083 8.42874 39.2578 8.22017 39.3686C8.01312 39.4784 7.65666 39.4774 7.6998 39.6051C7.91852 39.5785 8.43265 39.3187 8.55022 39.39C8.99424 39.6572 8.7753 40.4733 8.81888 40.779C8.86398 41.0895 8.93072 41.1726 8.90693 41.3663C8.86335 41.7148 9.23327 41.4832 9.47562 41.6209C9.7182 41.7595 8.69788 41.9621 8.49295 42.0538C8.28793 42.1448 8.51628 42.1089 8.4092 42.1778C8.30212 42.2466 8.13529 42.217 8.11499 42.3094C8.09472 42.4017 8.53856 42.5043 8.77035 42.4671C9.26079 42.386 9.72736 42.1395 9.61625 42.4031C9.60953 42.4183 9.33684 42.4568 9.32434 42.5111C9.23274 42.9373 9.33552 43.3284 9.26581 43.7456C9.25611 43.8041 8.95214 43.8445 8.9432 43.8795C8.84889 44.2433 9.30586 43.9877 9.89974 43.9951C9.16455 44.1717 8.74885 44.3948 8.81301 44.6279C8.85182 44.7699 9.16094 44.6523 9.41069 44.6775C9.48595 44.685 9.29791 44.8481 9.45194 44.8221C9.95562 44.738 10.4729 44.4853 10.3263 44.7878C10.319 44.8012 10.043 44.8462 10.0375 44.887C10.0013 45.1542 10.519 45.035 10.6549 45.2708C10.7605 45.4522 10.5562 45.9066 10.5703 46.144C9.75356 46.3756 10.0033 46.5386 10.5907 46.4628C10.6107 46.6182 10.6872 46.7639 10.6516 46.9326C10.6393 46.9898 10.3938 47.0252 10.3701 47.0388C9.99724 47.2497 10.5629 47.1564 10.5935 47.1821C10.9001 47.4634 10.567 47.869 11.0663 48.0837C11.0842 48.0914 11.6571 47.9501 11.2679 48.1561C11.241 48.1699 10.9519 48.1336 10.976 48.2949C10.9994 48.4542 10.7785 48.8363 11.1015 48.977C11.1792 49.0106 11.6773 49.0147 11.3469 49.2228C11.3019 49.2506 11.1346 49.2803 11.0496 49.326C10.779 49.4724 11.3635 49.3495 10.8968 49.5617C10.4298 49.7727 10.1089 50.0351 10.5053 50.1604C10.517 50.1646 10.9867 50.0915 10.998 50.1612C11.015 50.2703 10.9639 50.4579 10.9972 50.5696C11.0134 50.6236 11.2873 50.5125 11.295 50.5205C11.5526 50.8454 11.3708 51.1793 11.363 51.6004C11.3605 51.676 11.8035 51.7917 11.5318 52.0068C11.2346 52.2439 9.80036 52.4445 10.2199 52.7077C10.3659 52.7947 11.7914 52.6206 11.5505 52.8956C11.5179 52.9352 11.4536 52.9833 11.3501 53.0424C11.7021 53.4834 11.3522 54.0685 11.8115 54.482C11.8321 54.5012 12.3431 54.437 12.3507 54.4912C12.3614 54.5728 12.143 54.6772 12.1435 54.7377C12.139 54.9903 12.3955 55.1476 12.4293 55.3799C12.4428 55.4684 12.1976 55.5076 12.2136 55.6121C12.2303 55.7185 12.5609 55.693 12.4513 55.8762C12.3665 56.0114 11.7618 56.3058 11.7285 56.4652C12.3574 56.2846 12.3723 56.3822 12.5882 56.5014C12.6302 56.5245 12.8378 56.4241 12.8688 56.4316C13 56.4604 12.8359 56.5701 12.9762 56.5929C13.0099 56.5985 13.224 56.5347 13.2637 56.5356C13.6088 56.5406 13.1767 56.8477 13.1021 56.9031C12.8162 57.1055 13.1097 57.0718 13.0101 57.1941C12.91 57.3142 12.7163 57.2399 12.6693 57.3582C12.573 57.6053 12.6877 57.8562 12.7396 58.0592C12.7622 58.1417 13.03 57.9981 13.0398 58.0079C13.164 58.1538 12.9135 58.4174 13.5095 58.3339C12.0778 58.903 13.6833 58.3914 13.4636 58.7207C13.4457 58.7467 12.7594 58.9861 12.6353 58.9462C12.5118 58.9076 12.693 58.7256 12.5036 58.6761C12.4593 58.665 11.7665 58.7287 11.7212 58.7218C11.3679 58.6699 12.3992 58.3305 12.4537 58.3051C13.0413 58.0273 12.2889 58.0756 12.2274 58.048C11.9428 57.9125 12.0364 57.6966 11.827 57.5782C11.6905 57.4978 11.0069 57.6935 11.0014 57.6007C10.9818 57.288 11.902 56.9042 10.9959 56.8762C10.8025 56.8694 10.076 57.153 10.598 56.7644C10.631 56.7403 11.1204 56.4243 10.7547 56.4341C10.7086 56.4354 10.4915 56.4997 10.4688 56.4902C10.3207 56.4226 10.4746 56.306 10.3591 56.2185C10.244 56.1321 10.0816 56.0338 10.1191 55.8856C10.1411 55.7954 10.5196 55.5833 10.6085 55.5181C10.8661 55.3351 10.3649 55.3547 10.6945 55.1949C11.0257 55.0338 11.5902 55.0112 11.7696 54.7818C11.2007 54.9323 10.6145 55.0788 10.0413 55.2259C9.95778 54.8453 10.0435 54.4269 9.92217 54.059C9.90653 54.0134 9.61236 54.1397 9.58766 54.0927C9.48488 53.8941 9.65736 53.6558 9.51626 53.4614C9.50433 53.4451 9.48934 53.4293 9.47195 53.4139L9.46769 53.3965C9.32867 53.2829 9.02253 53.1874 8.91343 53.0607C9.54248 52.7997 9.25668 52.6006 9.27074 52.4081C9.27503 52.3393 9.45027 52.2987 9.49531 52.2383C9.66045 52.01 9.1056 52.2413 9.00292 52.2182C8.56517 52.1228 9.86303 51.7622 9.76781 51.5317C9.76331 51.5197 9.02892 51.5511 8.98005 51.5414C8.66246 51.4817 9.21562 51.4549 9.24422 51.3564C9.29542 51.1726 9.43427 51.0286 9.18168 50.9002C9.10713 50.8631 8.64068 50.8528 8.94726 50.6617C8.98734 50.6364 9.21827 50.5813 9.22874 50.5669C9.3987 50.3101 8.67787 50.5011 8.40331 50.455C8.12926 50.4106 8.57822 50.1031 8.71116 50.0274C9.05531 49.8324 8.88886 50.0545 8.92645 50.0492C9.37457 49.9882 9.26542 49.8829 9.27474 49.7751C9.9753 49.5655 9.89465 49.4394 9.2815 49.6638C9.21461 49.6886 9.3015 49.7466 9.27474 49.7751C8.55945 49.88 8.43053 49.7594 9.03015 49.4149C9.31102 49.2529 9.68454 49.2281 9.48902 49.0275C9.40064 48.9367 8.92799 49.1154 8.76971 49.0597C8.40886 48.9336 8.78078 48.524 8.64745 48.3263C8.5988 48.2537 8.35606 48.4072 8.31367 48.3602C8.20026 48.2353 8.36199 48.049 8.21898 47.9345C8.20565 47.9242 7.9376 48.0358 7.92115 47.9918C7.79 47.6564 7.88256 47.3111 7.78223 46.9471C7.73515 46.7765 7.49157 46.5091 7.4698 46.3207C7.43161 45.9984 7.72062 45.4939 7.54508 45.2587C7.4313 45.1033 7.16575 45.2228 6.95517 45.2037C6.54725 45.1675 7.12776 44.7237 7.21873 44.6587C7.2218 44.6568 7.33105 44.7864 7.44957 44.6649C7.73181 44.5312 7.22051 44.66 7.21873 44.6587C7.27785 44.6178 7.25114 44.2971 7.18137 44.2559C7.14302 44.2326 6.88626 44.3281 6.87121 44.3145C6.51903 43.9874 6.33394 43.6092 6.33523 43.167C6.33838 43.1582 6.63457 43.0815 6.63831 43.062C6.69868 42.7891 6.29616 42.7487 6.02539 42.6185C5.75444 42.4875 5.78046 42.3155 6.24899 42.0507C6.14221 41.9248 6.30145 41.6483 6.39984 41.4865C6.49885 41.3269 5.92386 41.4815 5.90944 41.4744C5.4504 41.2558 5.71761 40.9618 5.66624 40.6079C5.6427 40.4391 5.46132 40.1371 5.34665 39.9828C5.25458 39.8594 5.36274 39.7353 5.23848 39.6326C5.22182 39.6186 4.9735 39.7129 4.96213 39.7106C4.61522 39.6589 5.25613 39.5402 5.35789 39.477C5.72786 39.247 5.92248 39.1165 5.67776 38.9914C5.62162 38.9624 4.6917 39.11 4.61611 39.0487C4.51945 38.9684 4.8509 38.9093 4.74146 38.8275C4.73239 38.8204 4.53558 38.8822 4.52454 38.8145C4.47151 38.5036 4.48689 38.1411 4.37201 37.8342C4.35718 37.7924 4.06068 37.9419 4.03409 37.883C3.9099 37.6078 3.82346 37.2821 3.88521 36.9591C3.90122 36.8787 4.13355 36.8553 4.19405 36.8205C4.55972 36.6085 3.94774 36.6515 3.93025 36.6332C3.4977 36.1992 3.89525 35.6475 3.48877 35.198C3.46562 35.174 2.7853 35.1408 3.28102 34.8817C3.31394 34.8643 3.82214 34.6025 3.42791 34.6282C3.40331 34.63 3.14473 34.7748 3.14082 34.6609C3.13689 34.5471 2.90016 34.434 3.16004 34.1956C3.24184 34.1203 3.74522 33.8476 3.27534 33.8403C3.24258 33.8399 2.21082 33.924 2.85515 33.6449C2.96125 33.5991 3.67139 33.3963 3.25933 33.3432C3.17958 33.3334 3.03942 33.4383 2.91587 33.3859C2.73185 33.3085 2.85495 33.0947 2.5349 33.0265L2.47074 32.7814C2.46017 32.778 2.44911 32.7747 2.4375 32.7715C2.37432 32.7553 1.85698 32.7349 2.20745 32.5538C2.26237 32.5256 2.50985 32.5044 2.52558 32.4455C2.60209 32.1681 2.38426 31.9232 2.50298 31.6401C2.5444 31.5389 2.94451 31.509 3.03152 31.396C3.11845 31.2829 3.18414 31.0766 2.98694 31.011C2.78958 30.9451 2.1848 31.1687 2.10736 31.0275C1.77305 30.4226 2.035 29.7198 1.99229 29.0749C1.98591 28.9782 1.77311 29.0915 1.74763 28.9508C1.65352 28.4439 1.32007 27.5779 1.74359 27.0739C2.08209 26.6686 2.43097 27.0798 2.55282 26.7885C2.61078 26.6478 1.8608 26.599 1.83386 26.5702C1.56195 26.2923 1.8614 26.0389 1.72963 25.7718C1.70232 25.7166 1.41147 25.8073 1.39151 25.7597C1.32064 25.597 1.43414 25.4101 1.39233 25.2535C1.37293 25.1835 1.14714 25.2215 1.1575 25.1537C1.17971 24.992 1.26031 24.8419 1.45719 24.6656C1.47514 24.6495 1.76785 24.7142 1.76612 24.5965C1.76256 24.4061 1.94933 24.1555 1.71066 23.9614C1.63897 23.904 1.11878 23.9528 1.46426 23.7795C1.53642 23.7431 2.16434 23.7192 1.60924 23.6111C1.51694 23.593 0.763105 23.3914 1.22005 23.2158C1.34026 23.1694 1.84312 23.0332 1.75572 22.9641C1.74194 22.9549 1.46637 23.0224 1.43324 22.9613C1.32136 22.7453 1.32998 22.5064 1.22219 22.2823C1.19289 22.223 0.911592 22.3398 0.877172 22.2504C0.782078 22.0046 0.829127 21.6822 0.899514 21.427C0.926011 21.3329 1.17091 21.3765 1.19646 21.3677C1.61215 21.2266 1.03427 21.2099 0.998005 21.1769C0.780399 20.9734 1.03644 20.7849 0.949664 20.5879C0.926449 20.5334 0.656264 20.594 0.631048 20.5847C0.384169 20.4872 0.881424 20.5359 0.929949 20.4587C1.06755 20.2424 1.02864 20.0152 0.978824 19.8116C0.960115 19.7366 0.64936 19.8448 0.636233 19.7772C0.552559 19.3775 0.55399 18.9537 0.703035 18.5489C0.731673 18.4726 0.978869 18.5033 1.03362 18.4842C1.41681 18.3526 0.874655 18.2314 0.82167 18.1985C0.579801 18.05 0.791759 17.9729 0.742508 17.8314C0.497937 17.1394 0.591989 16.2607 0.646335 15.5935C0.715554 14.722 0.916966 14.0407 0.821724 13.2224C0.815997 13.1705 0.493018 13.2367 0.483907 13.1921C0.380868 12.6089 0.485935 12.0356 0.371035 11.452C0.362197 11.4044 0.0562904 11.4844 0.031743 11.4083C-0.0207756 11.252 -0.0108676 11.0532 0.0822377 10.8903C0.127046 10.8103 0.395198 10.9066 0.4349 10.8263C0.52796 10.6394 0.543558 10.443 0.488226 10.2578C0.464012 10.1791 0.152364 10.3089 0.145477 10.2057C0.0921278 9.50266 0.0184898 8.81083 0.409516 8.08623C0.436387 8.03691 1.07653 7.97875 0.951114 7.87903C0.772981 7.87554 0.563668 7.88095 0.373388 7.8821C0.246414 6.85499 0.449442 5.83703 0.468936 4.81272C0.469688 4.76958 0.130983 4.85017 0.130684 4.76471C0.128622 4.26984 0.0288126 3.80707 0.361522 3.30347C0.39407 3.25436 0.992115 3.27303 0.900323 3.1312C0.883584 3.10807 0.801824 2.88807 0.671566 2.83128C0.651924 2.82367 0.37323 2.86653 0.364482 2.79517C0.318588 2.38552 0.379395 1.9517 0.547954 1.54716C0.575696 1.48243 0.873188 1.54975 0.895528 1.50372C1.05167 1.16397 0.824683 0.814981 1.09399 0.487125C1.27536 0.271494 1.78916 0.350845 2.29468 0.23811C2.366 0.222016 2.37724 0.0933558 2.67143 0.0869427C3.41119 0.0698654 4.22124 0.131173 5.00975 0.105631C5.17958 0.099864 4.99664 -0.0679636 5.40707 0.0313547C5.43453 0.0380927 5.57079 0.16076 5.71004 0.191497C5.80632 0.212726 6.10548 0.174162 6.22874 0.217523C6.35188 0.260928 6.10112 0.309159 6.24599 0.382484C6.39266 0.456093 6.73295 0.422429 6.77351 0.571427ZM6.84 40.7654C7.07996 40.571 6.07267 40.8565 6.34892 40.9052C6.36347 40.9072 6.82831 40.7752 6.84 40.7654ZM10.809 54.229C11.2165 53.9629 10.5331 54.0314 10.2155 54.2272C9.89861 54.4239 10.6858 54.3105 10.809 54.229ZM11.5597 55.681C11.86 55.4081 10.4251 55.7893 10.7671 55.8931C10.7866 55.8994 11.5423 55.6971 11.5597 55.681ZM2.43951 0.763842C2.45341 0.761913 2.46675 0.671363 2.45296 0.667914C2.12038 0.619481 2.09394 0.80403 2.43951 0.763842ZM12.359 57.0851C12.5346 56.9724 12.267 56.8879 12.0477 57.0256C11.8712 57.136 12.1404 57.225 12.359 57.0851ZM6.14672 34.6335C6.16111 34.6272 6.15496 34.5588 6.071 34.5859C5.80069 34.6731 5.90461 34.739 6.14672 34.6335ZM13.1609 59.6245C13.0972 59.2331 14.1967 58.6396 14.1924 59.0905C14.1918 59.1728 13.7688 59.046 13.6929 59.1739C13.5559 59.4107 14.324 59.2875 13.9868 59.5913C13.9247 59.6459 13.1617 59.6469 13.1591 59.6244C13.1597 59.6244 13.1603 59.6245 13.1609 59.6245ZM8.02451 40.3382C8.03709 40.332 8.02252 40.2381 8.00872 40.2399C7.67583 40.287 7.70499 40.4761 8.02451 40.3382ZM5.7552 30.7047C5.78318 30.6945 5.77087 30.4776 5.74293 30.4753C5.18764 30.4619 5.21178 30.9056 5.7552 30.7047ZM10.5496 46.1538C10.8994 46.1597 10.9716 46.2674 10.5909 46.4623C10.5841 46.3586 10.5586 46.2586 10.5496 46.1538Z" fill="#735A47"/>
</svg>
