<svg width="40" height="17" viewBox="0 0 40 17" fill="none" xmlns="http://www.w3.org/2000/svg">
<path d="M0.136278 10.0648C0.312575 9.95018 0.580172 10.0086 0.81224 10.1063C0.885522 10.1365 0.882199 10.325 0.932267 10.3543C1.03019 10.4112 1.09809 10.3075 1.20344 10.3766C1.23867 10.4003 1.25085 10.6964 1.28691 10.7146C1.4746 10.814 1.63449 10.7093 1.81517 10.7396C2.74124 10.882 3.63181 10.811 4.55792 10.7482C4.8609 10.7277 5.2781 10.9091 5.56179 10.7262C5.59496 10.7046 5.51708 10.4577 5.5193 10.4354C5.55355 10.0942 5.6322 10.6102 5.71651 10.6622C6.05243 10.8669 6.36549 10.8201 6.61048 10.6617C6.71485 10.5935 6.48588 10.1204 6.66485 10.3743C6.67705 10.3915 6.71005 10.665 6.74739 10.6863C6.83192 10.7343 6.9541 10.6558 7.01367 10.6643C7.12875 10.6819 7.14564 10.6752 7.24652 10.6549C7.38499 10.6294 7.57581 10.7246 7.70845 10.6296C7.73648 10.6085 7.63074 10.345 7.66959 10.2867C7.70839 10.2286 7.84643 10.2204 7.9052 10.2745C7.96457 10.3285 7.9967 10.5477 8.01618 10.5951C8.17905 10.9953 8.19466 10.3837 8.21078 10.3648C8.51163 10.0369 8.89416 10.2913 9.22925 10.2089C9.48276 10.1457 9.72888 9.97091 9.97367 9.92621C10.2671 9.87363 10.5465 9.96092 10.8207 9.86531C10.8497 9.85554 10.7348 9.54395 10.77 9.53138C11.1427 9.39837 11.5311 9.33714 11.967 9.45572C12.0108 9.46788 12.0334 9.76132 12.0815 9.79025C12.3741 9.96135 12.8888 10.4196 12.7107 9.16183C12.8812 9.16855 13.0857 9.16789 13.2913 9.37705C13.424 9.5116 13.4152 9.84033 13.4934 9.68055C13.5111 9.64487 13.4081 9.38598 13.4399 9.35271C13.5739 9.2129 13.771 9.25394 13.8918 9.07418C13.9162 9.03699 13.8441 8.79974 13.8417 8.75421C13.8255 8.38467 14.1057 8.92838 14.1446 8.96293C14.439 9.2196 14.5593 9.05557 14.7586 9.01025C14.8047 8.9999 14.6644 8.69293 14.7057 8.67143C14.9204 8.5643 15.1624 8.52847 15.4239 8.61033C15.4821 8.62934 15.5112 8.91529 15.5429 8.93836C15.6817 9.03673 15.5637 8.51383 15.6936 8.59825C15.7208 8.61538 15.7731 8.85272 15.7839 8.87738C15.9547 9.26449 15.8508 8.67816 15.8627 8.66131C16.0014 8.45017 16.2624 8.92537 16.4307 8.87915L16.3039 8.92441C16.3154 8.91938 16.326 8.91174 16.3357 8.90107C16.3526 8.88145 16.1803 8.62177 16.2357 8.58376C16.611 8.32568 17.0726 8.21636 17.5742 8.26692C17.6518 8.27452 17.6987 8.5056 17.714 8.52999C17.9545 8.91012 17.76 8.34554 17.7717 8.31604C17.8714 8.09716 18.2153 8.49274 18.0466 7.79334C18.8292 7.72494 19.3535 7.06988 20.2798 7.36996C20.2912 7.37313 20.3894 7.64998 20.4117 7.65514C20.6825 7.72006 20.4671 7.31624 20.3896 6.74437C20.3699 6.60087 20.7344 7.17788 20.7627 7.21952C20.8666 7.37311 20.9998 7.7903 21.0247 7.81805C21.2249 8.03401 20.6535 6.70909 20.781 6.65538C20.7859 6.65594 20.8714 6.90804 20.8922 6.92794C20.9574 6.99059 20.95 6.87935 21.0176 6.95019C21.1726 7.1148 21.4679 7.75122 21.4241 7.32757C21.4181 7.27271 21.0819 6.52616 21.2105 6.51461C21.2622 6.51057 21.4576 6.41435 21.5333 6.44039C21.6095 6.4662 21.672 6.72577 21.6803 6.73467C21.9643 6.99457 21.9625 7.15176 22.2353 7.59767C22.5073 8.04182 22.0179 6.91662 21.9966 6.77726C21.9759 6.63812 22.1961 6.85852 22.2611 6.93993C22.3262 7.02131 22.3564 7.19013 22.402 7.23259C22.7024 7.50899 22.2401 6.6407 22.2187 6.43894C22.1676 5.9614 22.6125 6.76218 22.7592 6.79833C22.799 6.80802 22.6953 6.62659 22.7153 6.59745C22.7956 6.48452 22.9685 6.72046 22.9942 6.42873C22.9983 6.38124 22.8927 5.83344 23.1086 6.17891C23.1396 6.22877 23.1993 6.44926 23.2647 6.47743C23.3625 6.51984 23.5059 6.51489 23.552 6.41427C23.5861 6.33987 23.3819 6.01963 23.4952 6.0988C23.5457 6.13422 23.5708 6.35996 23.6587 6.40962C23.747 6.45907 23.8887 6.39114 23.942 6.36136C23.9949 6.33158 23.8578 6.08138 23.8552 6.06186C23.8413 5.94945 23.8975 5.77923 23.9072 5.77568C24.373 5.54966 24.9929 5.8151 25.4005 5.48185C25.4326 5.4561 25.2973 5.18836 25.301 5.18157C25.3799 5.01523 25.5759 5.79248 25.762 6.00452C25.5245 5.44641 25.6168 5.52775 25.6807 5.43067C25.7113 5.38342 25.6011 5.17459 25.5961 5.15071C25.5274 4.79415 25.7423 5.20442 25.7882 5.28754C25.9581 5.59301 25.8519 5.19443 25.966 5.39842C26.0794 5.60082 26.1402 5.94353 26.223 5.9059C26.1665 5.69477 25.894 5.19263 25.9243 5.08165C26.0394 4.66154 26.6562 4.89615 26.8695 4.86182C27.0808 4.8282 27.1293 4.76616 27.2717 4.79447C27.5291 4.84581 27.3007 4.48335 27.3576 4.25413C27.4151 4.02471 27.7305 5.01333 27.83 5.21344C27.9291 5.41361 27.8653 5.19262 27.9323 5.29777C27.9991 5.40294 28.006 5.56278 28.0752 5.58504C28.1443 5.60726 28.144 5.18237 28.0781 4.95821C27.9384 4.48338 27.6851 4.02662 27.8912 4.14144C27.9031 4.14837 27.9761 4.4122 28.0167 4.42589C28.3356 4.52658 28.5956 4.43952 28.905 4.51861C28.9478 4.52984 29.0272 4.82393 29.0533 4.83367C29.3259 4.936 29.0693 4.48764 28.9765 3.91522C29.2233 4.62937 29.4516 5.03637 29.6067 4.98141C29.7001 4.94861 29.5657 4.64697 29.5422 4.407C29.535 4.33469 29.6818 4.52086 29.638 4.37153C29.4954 3.88321 29.23 3.37721 29.4706 3.52693C29.4814 3.53427 29.5585 3.80191 29.5887 3.80832C29.7845 3.85106 29.6131 3.34884 29.7592 3.22424C29.8735 3.12658 30.2253 3.33852 30.3942 3.3306C30.6927 4.1253 30.7655 3.8897 30.6158 3.32049C30.7221 3.30579 30.8166 3.23461 30.9396 3.2746C30.9819 3.2881 31.0474 3.52609 31.0609 3.54938C31.271 3.91533 31.1122 3.3666 31.1255 3.33773C31.2779 3.04823 31.6168 3.3819 31.6871 2.90505C31.6896 2.88792 31.4953 2.331 31.7049 2.71225C31.7191 2.73864 31.7409 3.01695 31.8511 2.99783C31.9615 2.97869 32.2661 3.20236 32.3135 2.89313C32.325 2.81862 32.2458 2.33732 32.4465 2.66175C32.4736 2.70588 32.5222 2.86822 32.5685 2.95141C32.7166 3.2163 32.533 2.64868 32.7605 3.10434C32.8201 3.22362 32.8804 3.33334 32.9374 3.42349C33.0984 3.67767 33.2323 3.77659 33.2487 3.49567C33.2499 3.48443 33.1211 3.02842 33.169 3.0187C33.2453 3.00373 33.3822 3.05815 33.4567 3.02736C33.4922 3.01253 33.3676 2.74582 33.372 2.73848C33.5586 2.49441 33.8206 2.6765 34.1207 2.68623C34.1768 2.68821 34.1725 2.26308 34.3763 2.52459C34.599 2.81094 34.9971 4.19971 35.1131 3.78986C35.1601 3.62563 34.6338 1.87161 35.1378 2.69276C35.3808 2.34951 35.8594 2.68383 36.0643 2.24221C36.0738 2.22251 35.9313 1.7304 35.968 1.72323C36.0229 1.71349 36.1399 1.92338 36.1819 1.92342C36.3611 1.92885 36.4247 1.68294 36.5823 1.65254C36.6423 1.64034 36.7166 1.87626 36.7888 1.86139C36.8599 1.84665 36.7799 1.52858 36.9302 1.63574C37.0428 1.71825 37.3687 2.30088 37.4893 2.33398C37.2387 1.72958 37.3057 1.71609 37.3486 1.51025C37.3563 1.47056 37.245 1.27045 37.244 1.24087C37.2381 1.11588 37.3493 1.27365 37.3377 1.13969C37.3351 1.10746 37.2478 0.901789 37.2406 0.863858C37.1769 0.533291 37.4788 0.950601 37.5327 1.02268C37.7353 1.29725 37.6522 1.0166 37.7579 1.11349C37.8637 1.21027 37.848 1.3953 37.9427 1.44083C38.1401 1.53432 38.2945 1.42751 38.4296 1.37931C38.4837 1.35848 38.3275 1.10139 38.3324 1.09207C38.4131 0.973965 38.6488 1.21658 38.4697 0.646117C39.1698 2.01598 38.4743 0.48115 38.7549 0.692816C38.7773 0.710049 39.0889 1.36642 39.0848 1.48504C39.0801 1.60378 38.9186 1.42709 38.9189 1.60882C38.9189 1.65149 39.1046 2.31368 39.1091 2.35677C39.144 2.69365 38.692 1.70661 38.6629 1.65428C38.3453 1.09113 38.5323 1.80991 38.5241 1.8688C38.4833 2.14016 38.3123 2.04809 38.266 2.24878C38.2359 2.37851 38.5122 3.03368 38.4447 3.03906C38.2232 3.05606 37.7689 2.1715 37.9247 3.03963C37.9574 3.22496 38.2978 3.9249 37.9209 3.42059C37.8977 3.38855 37.5762 2.91724 37.6534 3.26816C37.6631 3.31244 37.7506 3.52135 37.748 3.54305C37.729 3.68434 37.6137 3.53686 37.5742 3.64669C37.535 3.75642 37.494 3.9126 37.3819 3.87541C37.3134 3.8538 37.0897 3.48921 37.0271 3.40313C36.8484 3.15446 36.9573 3.6367 36.781 3.31913C36.6041 2.99986 36.4803 2.45682 36.2844 2.28326C36.4991 2.83113 36.7142 3.3956 36.9273 3.94771C36.6736 4.02692 36.3624 3.94467 36.1262 4.06376C36.0971 4.07908 36.2422 4.36216 36.2138 4.38623C36.0932 4.48657 35.8918 4.32215 35.7813 4.46016C35.6955 4.56837 35.6926 4.92747 35.6067 5.04983C35.2995 4.446 35.2096 4.72368 35.0642 4.7121C35.0137 4.70819 34.9539 4.53858 34.9027 4.495C34.7109 4.3348 34.9723 4.87244 34.9731 4.97204C34.9771 5.39682 34.4951 4.13913 34.3484 4.22887C34.3407 4.23311 34.4845 4.94532 34.4866 4.99221C34.4976 5.29892 34.3852 4.76328 34.3103 4.73438C34.1723 4.68202 34.0431 4.54693 33.9935 4.78932C33.9786 4.86122 34.0511 5.31138 33.862 5.0122C33.8373 4.97303 33.7602 4.74854 33.7481 4.73819C33.5357 4.56963 33.7921 5.26974 33.804 5.53452C33.8077 5.61586 33.7823 5.63067 33.7431 5.60843C33.66 5.55646 33.503 5.31771 33.451 5.22742C33.2561 4.89044 33.4408 5.05624 33.431 5.01971C33.3141 4.58508 33.2569 4.68861 33.1795 4.67698C32.9155 3.99516 32.8408 4.06978 33.1003 4.66769C33.1288 4.73294 33.155 4.65046 33.1795 4.67698C33.373 5.37028 33.3071 5.49282 32.9641 4.90532C32.8034 4.62997 32.7236 4.26875 32.6154 4.4522C32.5661 4.53518 32.7696 4.99654 32.7556 5.14827C32.7238 5.49447 32.3754 5.12361 32.2555 5.24774C32.212 5.29282 32.3606 5.53131 32.3342 5.571C32.2646 5.67709 32.107 5.5155 32.0481 5.65093C32.0429 5.66352 32.166 5.92536 32.1374 5.94008C31.923 6.05683 31.6595 5.95908 31.4212 6.04418C31.3063 6.08532 31.158 6.31206 31.0284 6.32737C30.8045 6.35535 30.4014 6.06069 30.2625 6.22325C30.1717 6.32807 30.3004 6.58768 30.3222 6.78992C30.3654 7.18156 29.952 6.60953 29.8914 6.51964C29.8895 6.51665 29.9635 6.41519 29.8576 6.29731C29.7159 6.02124 29.8921 6.51797 29.8914 6.51964C29.852 6.46166 29.632 6.47651 29.613 6.54301C29.6028 6.57931 29.7133 6.82962 29.7061 6.84373C29.5319 7.17348 29.2954 7.33999 28.9829 7.32478C28.9762 7.32147 28.8721 7.03389 28.8577 7.02966C28.654 6.96326 28.6917 7.35015 28.6464 7.6064C28.6008 7.86266 28.4729 7.83305 28.2059 7.37403C28.1343 7.47316 27.9126 7.31107 27.7819 7.21123C27.6509 7.11154 27.8583 7.66952 27.8557 7.68321C27.7767 8.11927 27.5283 7.85116 27.2831 7.89143C27.1662 7.90956 26.9868 8.07378 26.8958 8.18013C26.8235 8.26536 26.7168 8.1578 26.6657 8.27422C26.6587 8.28983 26.7685 8.53134 26.7688 8.5422C26.7927 8.87406 26.5974 8.25448 26.5351 8.15478C26.3088 7.79214 26.1821 7.60142 26.1357 7.83323C26.1246 7.88651 26.3905 8.78481 26.3604 8.85567C26.3205 8.94625 26.2208 8.62602 26.1823 8.72875C26.1789 8.73726 26.2569 8.92818 26.2112 8.93674C26.0012 8.97855 25.74 8.95438 25.5444 9.05571C25.5174 9.06883 25.6756 9.35777 25.6386 9.3817C25.4648 9.49378 25.2516 9.56711 25.0115 9.49944C24.9519 9.48187 24.8938 9.25819 24.8584 9.19917C24.6425 8.84269 24.7819 9.43156 24.7721 9.44785C24.5445 9.85085 24.0809 9.45577 23.8364 9.83475C23.8232 9.85651 23.9233 10.5085 23.6502 10.0264C23.6319 9.99436 23.3543 9.50038 23.4452 9.87892C23.4509 9.90258 23.6005 10.1541 23.5208 10.1551C23.4411 10.1561 23.4028 10.3811 23.1868 10.1261C23.1186 10.0459 22.833 9.55683 22.9152 10.0069C22.9217 10.038 23.1708 11.0295 22.8539 10.4056C22.8019 10.3028 22.5269 9.61747 22.5653 10.0115C22.5731 10.0877 22.6733 10.2244 22.6592 10.3417C22.6376 10.5223 22.4547 10.3842 22.4789 10.7306C22.4835 10.7917 22.6014 11.2856 22.3949 10.9596C22.3625 10.9085 22.2854 10.6736 22.243 10.6614C22.042 10.602 21.9468 10.8206 21.7276 10.7276C21.6503 10.6951 21.5236 10.3161 21.4259 10.2413C21.3283 10.1665 21.1745 10.1198 21.1852 10.3128C21.1965 10.5058 21.5079 11.0638 21.4389 11.1481C21.1428 11.5124 20.6125 11.3327 20.2105 11.4451C20.1498 11.4621 20.2866 11.6508 20.204 11.6908C19.9033 11.8376 19.4535 12.2634 18.9974 11.935C18.6279 11.6737 18.7825 11.2855 18.5544 11.2129C18.4446 11.1788 18.6541 11.8929 18.6445 11.9224C18.5562 12.2185 18.2909 11.9775 18.1676 12.1411C18.1415 12.1753 18.2956 12.4345 18.2718 12.4607C18.1912 12.5527 18.0324 12.4767 17.948 12.5406C17.9271 12.5569 17.9491 12.6283 17.9646 12.6883L17.5295 12.8436C17.5345 12.8924 17.5363 12.9336 17.5154 12.9313C17.4028 12.9214 17.2866 12.8538 17.1298 12.6748C17.1155 12.6585 17.1013 12.3675 17.0228 12.3781C16.8957 12.3962 16.6871 12.2342 16.6045 12.483C16.5801 12.5577 16.7158 13.0622 16.531 12.7386C16.4923 12.6711 16.3517 12.0592 16.3891 12.6108C16.3956 12.7024 16.4089 13.4563 16.2001 13.0245C16.1449 12.911 15.9531 12.431 15.9239 12.5225C15.9205 12.5367 16.0208 12.8003 15.9863 12.838C15.8634 12.9659 15.7003 12.9787 15.5723 13.1039C15.5382 13.1379 15.6732 13.4024 15.6199 13.4441C15.4736 13.5592 15.247 13.5429 15.0616 13.4979C14.9932 13.4808 14.973 13.2373 14.9619 13.2132C14.7835 12.8199 14.889 13.3864 14.8744 13.425C14.7813 13.657 14.6027 13.4249 14.4876 13.5289C14.4557 13.5569 14.5512 13.8151 14.5501 13.8407C14.5347 14.0915 14.4665 13.6006 14.4049 13.5607C14.2318 13.4472 14.0877 13.5075 13.9606 13.5767C13.914 13.6026 14.05 13.8955 14.0072 13.9151C13.7553 14.0371 13.4715 14.0788 13.1689 13.9755C13.1118 13.9554 13.0818 13.7106 13.0578 13.659C12.891 13.2981 12.9204 13.841 12.9093 13.8963C12.8591 14.1484 12.764 13.9494 12.6791 14.0126C12.2645 14.3254 11.656 14.3301 11.1964 14.3525C10.5983 14.3829 10.0994 14.2649 9.56827 14.4546C9.53456 14.4664 9.64534 14.7745 9.61723 14.7887C9.24801 14.9579 8.83791 14.9244 8.47159 15.1067C8.4415 15.1211 8.55753 15.4109 8.51156 15.444C8.41866 15.514 8.27886 15.5293 8.15063 15.4579C8.08804 15.4237 8.09776 15.1496 8.03605 15.1204C7.89175 15.052 7.76005 15.0598 7.64414 15.1372C7.59556 15.1706 7.74684 15.4597 7.67813 15.4792C7.21517 15.6175 6.76189 15.7754 6.19504 15.4819C6.15635 15.4617 5.99045 14.8415 5.94779 14.9768C5.98065 15.1518 6.02581 15.3563 6.06427 15.5426C5.39715 15.7939 4.66532 15.722 3.95654 15.8292C3.92619 15.8339 4.04503 16.1567 3.98653 16.1675C3.65157 16.2294 3.34581 16.3848 2.93536 16.1177C2.89497 16.0916 2.80292 15.5007 2.71985 15.608C2.70484 15.6276 2.57209 15.7329 2.5525 15.8683C2.55049 15.8885 2.62853 16.158 2.57966 16.1751C2.29854 16.2687 1.98674 16.2577 1.65827 16.1371C1.60611 16.117 1.6105 15.8154 1.57324 15.7985C1.31625 15.6793 1.07609 15.9428 0.797821 15.7058C0.619567 15.5448 0.60966 15.0284 0.469455 14.5357C0.449227 14.4663 0.353063 14.4654 0.318187 14.1732C0.229973 13.4387 0.183834 12.629 0.0841845 11.8466C0.062076 11.6783 -0.0113584 11.8696 0.001491 11.4557C0.0021171 11.4281 0.0552391 11.2855 0.0572012 11.1451C0.0582355 11.0482 0.00412023 10.7532 0.0136947 10.6281C0.022741 10.5032 0.0790049 10.7491 0.103017 10.6004C0.123734 10.4501 0.0636553 10.1147 0.136278 10.0648ZM27.1941 6.76673C27.0158 6.52994 27.3903 7.50753 27.3771 7.2434C27.3761 7.22947 27.2031 6.77828 27.1941 6.76673ZM36.0767 3.208C35.8114 2.81593 35.9902 3.47473 36.1888 3.78015C36.388 4.08489 36.1577 3.32663 36.0767 3.208ZM36.962 2.49007C36.7111 2.19955 37.2549 3.58095 37.2641 3.25282C37.2648 3.23417 36.9767 2.50688 36.962 2.49007ZM0.825894 14.3456C0.822673 14.332 0.752797 14.3278 0.753149 14.3416C0.760198 14.6761 0.90218 14.6841 0.825894 14.3456ZM37.809 1.73542C37.6947 1.56601 37.6869 1.82151 37.828 2.0327C37.9416 2.20258 37.9513 1.94613 37.809 1.73542ZM22.9563 7.26981C22.9492 7.25585 22.9017 7.26016 22.936 7.34138C23.0467 7.60294 23.0749 7.50472 22.9563 7.26981ZM39.4629 0.986925C39.1976 1.04509 38.5453 -0.00650638 38.8689 3.50475e-05C38.9272 0.00129241 38.9248 0.403544 39.0317 0.476757C39.2265 0.610069 38.9822 -0.124307 39.268 0.199322C39.32 0.258708 39.4791 0.986148 39.4632 0.988679C39.4631 0.988094 39.463 0.98751 39.4629 0.986925ZM26.6893 5.61426C26.6827 5.60197 26.619 5.61308 26.6226 5.6264C26.7132 5.94801 26.8415 5.92585 26.6893 5.61426ZM20.2346 7.69946C20.2205 7.67336 20.0721 7.70589 20.0785 7.73274C20.2181 8.2636 20.5168 8.20013 20.2346 7.69946ZM30.4046 3.35087C30.3507 3.01369 30.4146 2.9473 30.6153 3.32021C30.5428 3.32386 30.4767 3.34546 30.4046 3.35087Z" fill="#735A47"/>
</svg>
