<svg width="83" height="105" viewBox="0 0 83 105" fill="none" xmlns="http://www.w3.org/2000/svg">
<path d="M33.9735 98.3535C33.7194 95.8266 33.5995 92.4654 33.5693 89.9284C33.5584 89.1178 33.7706 89.5245 33.772 88.9733C33.7732 87.8755 33.618 86.8879 33.6358 85.8345C33.6421 85.4779 33.9641 85.9013 33.9639 85.5263C33.9637 85.3979 33.9626 85.269 33.9608 85.1396C33.9383 83.2608 33.7598 81.4694 33.6934 79.5356C33.3483 69.4301 32.8243 59.5098 32.3314 49.2864C32.1685 45.9152 32.1878 41.8062 31.8671 38.3355C31.8292 37.9276 31.586 38.1864 31.5602 38.1099C31.164 36.9126 31.7076 37.2867 31.7306 36.4935C31.8201 33.3357 31.646 29.8477 31.3821 26.8229C31.269 25.5312 30.8272 26.8508 31.0448 25.5432C31.0594 25.453 31.3503 25.7619 31.3607 25.4107C31.3831 24.6023 31.2554 23.1049 31.2444 22.4665C31.226 21.265 31.2137 21.0755 31.1603 19.9372C31.1031 18.6705 31.1252 17.1471 31.0605 15.7586C31.0465 15.4571 31.0289 15.1642 31.0063 14.882C30.9773 14.5308 30.7163 15.0061 30.6451 14.4512C30.5729 13.883 30.5385 12.3871 30.5874 11.8704C30.6363 11.3686 30.8644 11.5751 30.9119 11.4852C31.3112 10.7205 30.6748 9.00574 30.6577 8.78648C30.5045 6.70094 30.4665 4.88256 30.7522 2.78344C30.7916 2.53389 30.8439 2.24189 30.926 1.93633C30.9734 1.76362 31.0102 1.63883 31.0982 1.41631C31.1404 1.31326 31.1817 1.22203 31.2455 1.10363C31.3177 0.970624 31.4055 0.832996 31.5238 0.693125C31.6537 0.537445 31.8672 0.338582 32.1331 0.204226C32.4275 0.046276 32.8292 -0.0229107 33.1222 0.00668609C33.7584 0.0784111 34.0189 0.306504 34.2346 0.457818C34.631 0.776699 34.8017 1.02149 34.98 1.25372C35.6419 2.18038 36.0572 3.00868 36.5377 3.86135C36.8178 4.36767 37.0849 4.85392 37.3671 5.3652C38.517 7.44986 39.7191 9.5784 40.7518 11.5445C42.271 14.4412 43.449 16.9592 44.9946 19.7359C45.1575 20.0291 45.2585 19.5255 45.4586 19.8839C47.5786 23.6812 49.6582 27.4645 51.6342 31.3189C51.8326 31.706 51.3007 31.3669 51.4842 31.7628C52.466 33.8747 53.8554 37.1202 55.4632 38.3729C55.6972 38.5552 55.9357 38.6953 56.1776 38.7834C57.0685 40.3453 58.1732 42.2292 58.8111 43.7301C59.2228 44.6975 58.4197 44.0098 59.2119 45.0201C59.3904 45.2481 59.4255 44.7839 59.6755 45.1367C60.7278 46.6215 61.7159 48.3466 62.8041 49.7854C63.0266 50.0785 63.1815 49.8606 63.275 49.9241C64.0478 50.463 64.3285 52.0073 64.4621 52.2955C65.492 54.4985 66.5537 55.9084 67.7646 57.8009C68.0452 58.2397 67.9915 57.5422 68.2711 57.9574C69.7211 60.1182 71.1566 62.3989 72.4044 64.6364C72.6788 65.131 72.1612 64.8451 72.2798 65.0887C72.8114 66.1722 73.4071 66.1122 73.9165 67.1412C74.0268 67.3618 73.7476 67.3734 73.7488 67.4255C73.7634 68.237 74.58 68.4284 74.6869 68.5762C76.0208 70.3951 76.2473 71.9547 77.4051 73.8034C77.5449 74.0276 77.5201 73.3595 77.8942 73.9967C77.9351 74.0666 77.9756 74.1362 78.0157 74.2055C79.0976 76.3742 80.6877 78.0765 80.5932 81.612C80.4942 82.6304 79.3756 83.6336 78.595 83.7994C77.7749 84.0488 77.1076 84.0498 76.4521 84.0421C75.1552 84.0037 73.983 83.8133 72.8187 83.6116C72.6938 83.5893 72.5674 83.5663 72.4398 83.5427C71.6909 83.4032 72.259 83.2474 72.2149 83.2128C71.5175 82.6687 70.9389 83.1826 70.6897 83.1678C68.7507 83.0365 67.0609 82.2356 65.6522 82.7084C57.6646 81.0381 49.6686 79.8693 41.8237 77.9718C41.7238 77.9484 41.9514 77.6878 41.7518 77.6423C41.7361 77.6387 41.7206 77.6351 41.7051 77.6316C39.3381 77.0971 39.7304 77.6193 38.0399 77.914C37.6177 77.9894 36.4827 77.1314 36.381 77.0657C36.0109 76.8242 36.4907 76.4573 36.3628 76.4018C35.3064 75.958 35.2628 77.4112 33.7743 77.1817C33.7283 77.1722 33.9636 76.9398 33.8432 76.8945C33.4685 76.7528 33.0753 76.7989 32.7031 76.6491C31.8571 76.3048 31.6764 75.5678 30.2719 75.7645C30.0961 75.791 30.2263 76.6392 28.9091 76.3972C28.3747 76.2989 26.0247 75.9495 25.3857 75.7954C24.7329 75.6397 25.2275 75.4501 25.1824 75.4315C23.4549 74.8075 24.1699 74.7732 23.3542 74.1214C22.5452 73.4718 22.6005 74.7227 22.219 74.8003C21.8501 74.8798 20.5742 74.3811 20.286 74.2318C19.9878 74.0812 20.41 73.981 20.1351 73.8782C18.31 73.1997 19.2083 74.3412 18.5605 74.43C17.0086 74.6345 16.0469 73.5418 14.7233 73.2056C14.3687 73.1149 14.6229 73.3733 14.3012 73.3326C13.0116 73.1632 12.3072 72.7373 10.8119 72.6825C10.5701 72.6748 9.27048 72.9466 8.61694 72.3703C8.52288 72.2872 8.88157 72.1432 8.35102 71.9586C7.57984 71.6904 6.14572 71.2403 5.27477 71.0197C4.63439 70.8577 5.23963 71.4683 4.47153 71.0687C4.1378 70.8879 4.8585 70.9276 4.23919 70.6064C3.60921 70.3001 2.00292 69.5306 1.47753 69.0012C0.966588 68.515 1.02982 68.9624 0.977805 68.9435C0.758321 68.8186 0.205756 68.2504 0.0701311 67.5784C-0.0137403 67.2277 -0.00150007 66.9395 0.00397944 66.8803C0.371384 64.7408 2.01045 63.9969 3.18049 63.2822C4.45038 62.5962 5.7457 62.0942 7.02943 61.6264C9.59759 60.7036 12.1716 59.9304 14.7578 58.9736C15.1677 58.8231 14.7969 58.6325 14.8584 58.6067C16.2158 58.0184 15.3638 59.143 16.4331 59.064C16.1011 58.5358 16.7048 58.4493 17.6765 58.0505C18.1386 57.8597 17.806 57.7244 17.8413 57.687C18.429 57.1112 19.0708 57.3781 19.2255 57.4247C19.8016 57.5936 20.1811 57.0288 20.5696 57.1388C20.9612 57.2457 20.3451 57.8222 21.2872 57.4881C21.4799 57.1904 20.592 56.901 21.2772 56.5628C23.8587 55.3102 28.9637 53.8044 31.0602 52.8788C31.0665 52.8762 31.0726 52.8736 31.0788 52.8709C33.1766 51.9784 33.8311 51.6335 35.0779 51.1489C37.3321 50.2681 36.3512 50.2558 37.6312 49.4502C38.9128 48.6412 38.688 49.8878 38.9781 49.9983C39.2648 50.1101 39.3784 49.8042 39.6698 49.8029C39.9604 49.802 39.5077 50.181 40.0887 49.9597C40.6704 49.7385 42.0368 48.6572 42.1353 48.3527C42.3442 47.7082 41.4337 47.5673 42.9923 47.0297C43.0821 46.999 42.9226 47.3761 43.2604 47.2463C45.9421 46.205 48.6328 44.9245 51.2924 43.8384C51.6573 43.6899 51.4736 44.116 51.6874 44.0327C53.9217 43.1607 52.931 43.0746 53.8566 41.9912C53.9237 42.7986 54.7791 42.8958 56.4095 42.1007C57.3871 41.6239 57.0754 41.4095 57.6058 40.8896C57.7637 40.7338 58.5553 40.5963 58.6134 40.3947C58.804 39.7353 57.8967 39.5506 59.6761 38.924C59.7542 38.8974 59.6435 39.2616 59.9045 39.1515C61.597 38.4376 61.5539 37.8671 63.3006 36.9293C64.6646 36.1968 67.2858 35.2551 68.8923 34.5169C69.1616 35.1223 70.083 34.696 70.6286 34.0942C70.7909 33.9202 70.9198 33.7338 70.9956 33.5527C72.0351 33.0658 73.1329 32.4887 74.1601 32.0764C74.5234 31.9295 74.4006 32.2631 74.4566 32.2653C75.2942 32.3196 75.502 31.5855 75.7154 31.457C76.5682 30.9536 77.4094 30.5573 78.2356 30.1872C78.6474 30.0028 79.0571 29.8241 79.4599 29.6438C79.6662 29.5514 79.8684 29.4597 80.0709 29.3655C80.167 29.3208 80.2758 29.2697 80.3731 29.2231C80.425 29.1982 80.4748 29.1742 80.5228 29.1506C80.5485 29.138 80.5715 29.1265 80.5931 29.1154C80.6013 29.1111 80.6156 29.1037 80.6198 29.1011C80.6225 29.0996 80.6247 29.0981 80.6201 29.1003C80.6182 29.1014 80.6144 29.1028 80.5973 29.1135C80.5889 29.119 80.5776 29.1262 80.5598 29.14C80.5545 29.1461 80.5354 29.1514 80.4706 29.2286C80.441 29.2682 80.3947 29.3269 80.3662 29.4508C80.334 29.5697 80.3687 29.7764 80.4662 29.8921C80.4662 29.9088 80.5134 29.9249 80.4516 29.9259C80.3984 29.9312 80.287 29.9599 80.1787 30.008C79.9503 30.1064 79.6981 30.2717 79.4588 30.4649C79.3877 30.5243 79.5822 31.0758 78.8085 31.0601C78.7564 31.06 79.2993 30.3844 78.3094 31.0082C77.3213 31.6383 75.3369 32.7812 74.1831 34.0254C73.9315 34.2955 73.485 35.1414 72.7486 35.4542C72.6871 35.4738 72.6173 35.4932 72.5395 35.5109C72.4323 35.5369 72.4058 35.3343 72.2285 35.3666C71.6701 35.4773 71.9183 36.0901 71.1615 36.2071C70.3882 36.3429 69.3 37.1548 68.667 38.7774C68.6423 38.8341 68.8262 39.4176 68.5371 39.8635C68.0757 40.5717 67.3703 41.5488 66.924 42.315C66.7129 42.6776 67.1019 42.5945 67.0696 42.6601C65.7687 45.216 64.582 46.8255 63.0188 49.4711C62.7382 49.9439 62.3311 51.5479 61.542 52.3611C60.6807 53.2481 59.9789 51.4888 59.0064 54.0724C58.6124 55.118 59.5814 57.2071 57.8364 58.517C56.2737 62.0436 54.2337 64.9686 52.7784 68.5641C52.7124 68.7263 52.922 69.4386 52.731 69.7987C52.4474 70.3313 52.0818 70.5247 51.8721 70.9025C50.994 72.4721 50.4242 74.046 49.6072 75.5876C49.2989 76.1701 49.1838 75.8521 48.8139 76.5517C48.687 76.7917 48.6092 77.0228 48.5364 77.2589C48.3857 77.7118 48.2624 78.1651 47.8353 78.7393C47.346 79.3933 46.3791 79.7825 45.7941 80.6803C46.3468 81.0317 45.9832 81.6661 45.4891 82.8921C45.393 83.1299 45.7254 83.0048 45.6902 83.1231C45.5535 83.603 45.1653 83.9026 45.0497 84.3602C45.0196 84.474 45.2106 84.59 45.1972 84.6889C45.0934 85.5306 44.0103 86.3814 43.8198 86.5296C43.1032 87.0865 43.1507 87.5707 42.702 88.0589C42.2569 88.5393 42.6163 87.6337 42.1571 88.2352C41.2051 89.4846 40.1659 91.1947 39.2978 92.5246C38.954 93.0553 39.438 92.8534 39.3946 92.933C39.0663 93.5156 38.6511 94.045 38.3397 94.5498C38.0386 95.0375 37.8352 95.5008 37.8968 95.9568C36.1148 95.9313 37.6008 96.7018 36.4044 98.1564C36.3108 98.2709 35.5837 98.0778 35.7756 97.5284C35.9681 96.9789 36.6045 96.349 36.876 95.5894C36.9386 95.4096 36.9299 94.1363 36.9752 93.9895C37.0022 93.8988 37.0338 93.8175 37.0691 93.7449C37.4728 92.913 38.3282 93.2947 38.4045 93.2766C39.3153 93.0482 39.401 91.5579 39.5416 91.2421C40.1861 89.8003 41.0157 88.7575 41.5531 87.5547C41.9054 86.7673 41.3367 86.332 41.6969 85.771C42.888 83.9018 44.1378 83.7147 44.4175 81.4673C44.479 80.9804 43.5813 81.0007 44.8958 79.8891C44.9823 79.8132 46.0434 79.0436 46.0644 78.2612C46.067 78.1627 45.867 78.0565 45.9038 77.9485C46.1301 77.3002 46.4704 76.9421 46.7698 76.3163L46.7502 76.3539C46.7863 76.2744 46.8215 76.1909 46.8556 76.1023C47.1639 75.3026 47.4971 74.3602 48.0055 73.5276C48.31 73.0286 49.0209 72.5601 49.2371 72.3623C49.8569 71.7986 49.805 70.8232 50.3436 70.5588C50.8871 70.2887 50.9444 71.3901 51.7343 70.3524C51.2314 70.0431 50.7429 69.6714 50.2502 69.3347C51.5419 66.84 52.9665 64.4649 54.2319 61.9427C54.3903 61.6259 53.9436 61.8033 54.1058 61.4605C54.7868 60.025 55.6162 58.9083 56.2962 57.4017C56.8149 56.2476 57.1601 54.8602 57.7106 53.6298C58.6771 53.2361 59.4046 51.366 60.1332 50.1349C60.3863 49.7067 60.5339 49.8122 60.7548 49.5245C61.5841 48.4407 60.7594 48.7184 60.8522 48.3488C61.2664 46.7459 62.5084 47.2773 63.386 45.6224C63.4345 45.5308 63.3939 44.132 63.4436 43.9544C63.714 42.8838 63.7492 43.9207 64.12 43.3748C64.8186 42.3463 65.3747 41.724 65.9413 40.3703C66.0966 39.9901 66.247 38.8822 66.9873 38.3664C67.0829 38.3009 67.2512 38.4781 67.3088 38.4139C68.3643 37.2095 67.7645 36.7816 68.1118 35.8508C68.4422 34.9305 69.8601 34.0364 70.2342 33.8997C71.1441 33.536 69.8719 34.4982 69.8999 34.558C69.9097 35.2523 70.4984 34.3483 71.3127 33.7437C71.3859 33.8063 71.4664 33.8468 71.548 33.8714C72.0448 34.0783 72.5792 33.5334 71.9711 33.2858C71.9043 33.26 71.5819 33.56 71.4051 33.683C71.3683 33.7091 71.3369 33.7304 71.3127 33.7437C71.3223 33.6982 71.334 33.6529 71.348 33.6077C71.4925 32.6989 72.3258 31.9799 73.6962 31.7284C74.3672 31.6077 74.1321 32.2437 75.5137 31.0202C76.1487 30.4671 75.5841 30.259 76.1149 29.7008C76.5885 29.2119 77.1995 28.7716 77.9499 28.3715C78.3313 28.1725 78.7365 27.9779 79.2863 27.8099C79.5682 27.7303 79.8761 27.6418 80.3725 27.6372C80.8216 27.6113 81.7653 27.8532 82.2355 28.5332C82.532 28.8861 82.6481 29.515 82.5533 29.8906C82.4709 30.2772 82.3264 30.4688 82.2323 30.597C82.1339 30.7229 82.0613 30.7882 82.0049 30.8384C81.9452 30.8894 81.9578 30.8777 81.9364 30.895C81.8772 30.9411 81.837 30.9676 81.8045 30.9886C81.7394 31.03 81.7068 31.0467 81.6933 31.0541C81.6589 31.0725 81.6319 31.0857 81.616 31.0932C81.5896 31.1056 81.5608 31.1185 81.547 31.1242C81.5119 31.1392 81.4841 31.1505 81.4558 31.1621C81.4015 31.1841 81.3514 31.2044 81.3009 31.2251C81.203 31.2651 81.1025 31.3075 81.009 31.3484C80.8199 31.4311 80.6269 31.5222 80.4566 31.6113C79.9081 31.8981 80.5682 31.8927 80.201 32.0961C79.2153 32.6434 78.2302 32.8878 77.2612 33.4747C77.1723 33.5288 77.527 33.6774 77.2069 33.8367C75.3488 34.7673 73.6217 35.4982 71.7525 36.3661C71.2369 36.6052 70.6944 36.863 70.139 37.1373C68.9199 37.7393 66.835 38.953 65.561 39.5495C63.353 40.5856 60.4873 41.5356 58.6709 42.5429C57.4825 43.2004 57.8768 43.3277 57.4431 43.7598C56.6009 44.5983 54.5225 44.8547 54.2334 44.8779C54.2256 44.8779 55.2432 44.305 54.6195 44.4449C54.159 44.3265 54.2446 44.8709 54.2334 44.8779C54.0448 44.8945 51.9233 45.8544 51.5285 46.1065C51.3146 46.2437 51.5607 46.4281 51.447 46.495C48.7505 48.0738 45.9588 49.4901 43.0414 50.7267C42.9886 50.7455 42.9339 50.4332 42.8116 50.4808C41.0966 51.1397 40.1924 51.9754 38.9137 52.8144C37.6357 53.6525 36.5116 54.0867 35.4783 53.9818C34.5245 54.4867 33.0498 54.9306 32.1197 55.1922C32.0645 55.2079 32.0111 55.223 31.9598 55.2374C31.0283 55.4971 31.1403 56.0925 31.0672 56.1378C28.7852 57.5217 27.2346 57.7593 24.6754 58.6495C23.4582 59.0726 21.0819 59.998 19.7945 60.5034C18.7724 60.9075 18.103 60.9856 17.1852 61.3886C17.0592 61.4435 17.2748 61.6506 17.2384 61.6736C16.2732 62.3325 16.5807 61.5457 16.3244 61.5098C15.4006 61.3767 14.8373 61.328 13.5509 61.9744C13.2536 62.1233 12.6604 63.3127 12.1144 63.5623C11.4116 63.883 11.5812 63.4676 10.8455 63.8175C10.7842 63.8469 10.8634 64.0366 10.4057 64.1943C8.27616 64.938 5.83082 65.7641 4.32751 66.8135C4.13557 66.952 4.55888 67.0492 4.31058 67.2422C4.05808 67.4398 3.87653 67.6504 3.87918 67.6616C3.87677 67.6669 3.9218 67.6047 3.95923 67.467C3.99896 67.3289 4.00977 67.1245 3.98145 66.9782C3.93474 66.6883 3.8027 66.4868 3.75805 66.4423C3.70853 66.391 3.73392 66.4454 3.81871 66.524C3.99412 66.6914 4.3382 66.9274 4.73873 67.157C5.09947 67.363 4.77158 67.4656 4.82778 67.5654C5.22405 68.1934 6.3073 67.9321 6.45109 67.9653C10.0327 68.7953 12.9661 69.8736 16.9905 70.3466C17.2195 70.3732 19.0027 70.0322 19.6552 70.6977C19.6946 70.7415 20.3641 71.4238 21.0751 71.1505C21.12 71.1334 20.7047 70.7721 21.5058 70.933C22.3193 71.0958 23.6518 71.1135 24.7168 71.6032C25.0504 71.7573 25.8134 72.4452 26.9315 72.1663C27.0091 72.1469 28.7899 71.3994 29.2719 72.1795C29.3467 72.3072 29.1478 73.0238 30.458 72.8424C30.7106 72.8071 30.2965 72.5767 30.9496 72.5732C31.9591 72.5681 33.2177 72.9616 34.4631 72.821C34.6762 72.795 35.6608 72.4399 36.3077 72.9252C36.41 73.0014 36.1602 73.2121 36.5322 73.2977C38.322 73.7096 40.2091 73.8386 42.0162 74.2998C42.1033 74.3219 42.1714 74.3474 42.2256 74.3753C42.569 74.5531 42.3515 74.8321 42.9208 75.0176C43.5799 75.232 44.9222 75.5585 45.6575 75.4987C46.3939 75.4387 45.7291 74.6812 46.7955 74.8116C51.4336 75.3815 55.9011 76.5923 60.4404 77.4857C61.1112 77.6176 60.5947 77.2915 61.5898 77.4702C64.8114 78.0458 70.1027 78.8498 73.3385 79.5474C73.7936 79.6456 74.196 79.7409 74.5488 79.8358C76.8507 80.4168 73.8907 80.4808 75.6728 80.7676C76.0991 80.8286 76.528 80.6657 76.8096 80.4702C77.0955 80.2751 77.1981 80.058 77.2287 80.0405C77.3216 79.9932 77.3318 79.9517 77.226 79.9899C77.126 80.023 76.8959 80.1807 76.7435 80.4138C76.5883 80.6428 76.5451 80.8611 76.5423 80.9359C76.5388 81.0176 76.5569 80.9978 76.5576 80.9266C76.5682 80.6054 76.3662 79.8108 75.9598 79.0395C75.7901 78.716 75.6678 79.1683 75.5227 78.888C75.0991 78.083 74.7057 77.1584 74.2477 76.3069C74.1631 76.1496 74.0747 75.9921 73.9818 75.8363C73.7151 75.3911 73.5724 75.6024 73.3522 75.1859C72.827 74.2018 72.3961 73.297 72.001 72.237C71.9656 72.1415 72.5629 72.5746 72.1353 71.8536C71.4396 70.6839 70.72 69.1324 69.6922 67.916C69.3886 67.5592 68.9316 67.813 68.7012 66.7781C68.6522 66.5611 69.3226 66.4449 68.2373 65.7517C68.0553 65.6331 66.3754 64.3651 66.2485 63.2974C66.2115 63.0105 66.2956 62.1924 65.919 61.7567C65.8665 61.699 65.7974 62.1099 65.5199 61.7297C64.5494 60.3923 63.6369 58.9233 62.643 57.5432C62.3766 57.1741 62.4995 57.901 62.1098 57.345C61.0412 55.822 59.847 53.8264 58.9435 52.2417C58.6116 51.6582 59.0637 51.9195 59.0595 51.8643C58.9967 50.9743 58.2612 50.8886 58.0936 50.6874C57.0533 49.4246 56.6211 48.2351 55.7644 47.004C55.5287 46.6638 55.4522 47.0577 55.3878 47.0009C54.7321 46.4037 55.4868 46.6819 55.2463 46.1949C54.5737 44.8291 53.6671 43.4068 52.8366 42.1156C52.5318 41.6423 52.5907 42.3481 52.32 41.9206C52.0692 41.526 51.8197 41.128 51.5727 40.7279C50.2288 38.5519 48.9426 36.2908 47.8317 34.0837C47.5839 33.5902 47.9697 33.7674 47.9604 33.64C47.9038 32.764 46.8634 32.0249 46.6886 31.8217C45.8839 30.8842 45.8394 30.3683 45.2788 29.4612C42.5267 25.0204 39.5752 19.2927 37.345 14.913C35.9618 12.2048 34.7633 9.75473 33.5737 7.40142C32.9256 6.12821 32.2171 4.72209 31.6472 3.90884C31.5843 3.82002 31.5299 3.75913 31.5523 3.78051C31.5658 3.79163 31.6053 3.83364 31.7246 3.9157C31.8755 4.00397 32.0746 4.17853 32.7121 4.26928C33.3127 4.38647 34.2858 4.01107 34.5854 3.68324C34.7808 3.50802 34.8681 3.386 34.9359 3.29029C35.0025 3.19395 35.0469 3.10975 35.069 3.06418C35.1519 2.88216 35.1209 2.91807 35.1076 2.99232C35.0287 3.33034 34.9696 4.09928 34.9537 4.8125C34.9451 5.17284 35.2821 4.81643 35.2799 5.13357C35.278 8.49108 35.3684 12.0132 35.5422 15.5602C35.5783 16.2578 35.6238 17.0384 35.6733 17.7433C35.697 18.0927 35.9812 17.5725 36.0298 18.1353C36.1329 19.311 36.189 20.7729 36.1505 21.9429C36.1328 22.5213 35.8285 21.7614 35.8162 22.3448C35.7863 23.6909 35.8407 25.1294 35.9652 26.5107C36.0192 27.1027 36.2857 26.1923 36.3311 26.9599C36.6459 32.1487 36.998 37.2552 36.9049 42.5346C36.8987 42.8991 36.2772 43.2503 36.4462 44.009C36.6273 44.0559 36.8361 44.0402 37.0275 44.0539C37.5866 51.6178 37.8348 59.1333 38.284 66.7204C38.3029 67.0394 38.6067 66.4624 38.6456 67.087C38.8698 70.6811 39.1875 74.1521 39.0877 77.8441C39.0784 78.2127 38.4701 78.0712 38.6293 79.1302C38.6567 79.2985 38.8433 80.9469 38.9984 81.3326C39.0217 81.3905 39.2805 81.0683 39.3232 81.6006C39.4061 82.6541 39.478 83.7316 39.535 84.7782C39.646 86.8046 39.7121 88.842 39.7294 90.8339C39.7333 91.3284 39.4028 90.8244 39.4029 91.1745C39.4041 93.6353 39.804 96.3174 39.6855 98.6787C39.6055 100.268 39.055 99.7109 38.6042 100.585C38.5405 100.705 38.5914 101.687 38.3007 101.754C37.5704 101.929 36.7326 101.511 35.9575 101.75C35.8739 101.774 35.8988 102.116 35.8854 102.342C35.8792 102.452 35.8617 102.569 35.8161 102.46C35.8053 102.463 35.793 102.449 35.7793 102.47C35.7657 102.495 35.7512 102.516 35.7335 102.507C35.6982 102.492 35.6528 102.433 35.596 102.342C35.5662 102.296 35.371 101.361 35.217 101.137C35.1104 100.976 34.8302 101.285 34.6867 100.97C34.5423 100.64 34.77 100.27 34.5902 99.729C34.4079 99.1772 34.0843 99.4491 33.9735 98.3535ZM27.7588 56.3201C26.8377 56.3766 27.0959 57.3994 27.8932 56.8161C27.9313 56.7866 27.806 56.3164 27.7588 56.3201ZM53.6673 64.834C54.5894 64.0447 54.3498 63.0239 53.6627 63.5831C52.9757 64.1433 53.3871 65.0747 53.6673 64.834ZM48.6256 75.4914C49.5469 74.479 48.3166 73.6229 47.9455 75.0186C47.9234 75.0998 48.5717 75.5509 48.6256 75.4914ZM38.2109 96.71C38.1984 96.7326 38.2292 97.4206 38.2443 97.4408C38.6001 97.7917 38.5368 96.3927 38.2109 96.71ZM43.3178 85.8776C43.7 85.6271 44.1006 84.4775 43.6257 84.7971C43.2478 85.0492 42.8395 86.1967 43.3178 85.8776ZM14.7809 72.6966C14.7905 72.7144 15.2866 72.8203 15.2933 72.7317C15.3086 72.4461 14.6049 72.397 14.7809 72.6966ZM33.2417 103.024C34.5808 100.385 36.5027 99.4115 34.9346 102.164C34.6546 102.667 35.1421 100.881 34.7141 101.485C33.928 102.6 34.2383 103.735 33.2827 104.802C33.1081 104.994 33.1599 103.174 33.2424 103.018C33.2422 103.02 33.2419 103.022 33.2417 103.024ZM26.8287 55.3355C26.8075 55.3294 26.1529 55.57 26.1422 55.5883C25.909 56.0356 27.2314 55.5501 26.8287 55.3355ZM43.7087 77.9889C43.742 78.0235 45.3315 78.3177 45.3883 78.3004C46.3121 77.9042 43.0935 77.3065 43.7087 77.9889ZM68.9276 34.5247C69.3142 34.0623 69.8484 33.7001 70.3764 33.5845C70.5856 33.5362 70.7926 33.5238 70.9923 33.5538C70.8239 33.6309 70.653 33.7106 70.4792 33.7924C69.9725 34.0303 69.4478 34.284 68.9276 34.5247Z" fill="#735A47"/>
</svg>
